<?xml version="1.0" encoding="UTF-8" standalone="no"?>
<svg
   xmlns:dc="http://purl.org/dc/elements/1.1/"
   xmlns:cc="http://creativecommons.org/ns#"
   xmlns:rdf="http://www.w3.org/1999/02/22-rdf-syntax-ns#"
   xmlns:svg="http://www.w3.org/2000/svg"
   xmlns="http://www.w3.org/2000/svg"
   xmlns:xlink="http://www.w3.org/1999/xlink"
   xmlns:sodipodi="http://sodipodi.sourceforge.net/DTD/sodipodi-0.dtd"
   xmlns:inkscape="http://www.inkscape.org/namespaces/inkscape"
   id="svg2"
   viewBox="0 0 208.84 599.65"
   version="1.0"
   inkscape:version="0.48.4 r9939"
   width="100%"
   height="100%"
   sodipodi:docname="Bunzen_burner.svg">
  <sodipodi:namedview
     pagecolor="#ffffff"
     bordercolor="#666666"
     borderopacity="1"
     objecttolerance="10"
     gridtolerance="10"
     guidetolerance="10"
     inkscape:pageopacity="0"
     inkscape:pageshadow="2"
     inkscape:window-width="1918"
     inkscape:window-height="1198"
     id="namedview4093"
     showgrid="false"
     inkscape:zoom="1.113164"
     inkscape:cx="168.64941"
     inkscape:cy="366.85858"
     inkscape:window-x="0"
     inkscape:window-y="0"
     inkscape:window-maximized="0"
     inkscape:current-layer="g4427" />
  <defs
     id="defs5">
    <linearGradient
       id="linearGradient3746">
      <stop
         id="stop3748"
         stop-color="#303030"
         offset="0" />
      <stop
         id="stop3754"
         stop-color="#666"
         offset=".36475" />
      <stop
         id="stop3756"
         stop-color="#e6e6e6"
         offset=".69976" />
      <stop
         id="stop3758"
         stop-color="#ececec"
         offset=".78996" />
      <stop
         id="stop3760"
         stop-color="#f2f2f2"
         offset=".86083" />
      <stop
         id="stop3750"
         stop-color="#999"
         offset="1" />
    </linearGradient>
    <linearGradient
       id="linearGradient3752-1"
       y2="592.89"
       xlink:href="#linearGradient3746"
       gradientUnits="userSpaceOnUse"
       x2="1567.7"
       gradientTransform="matrix(1.0080325,0,0,0.35059875,-1381.6451,491.95771)"
       y1="592.89"
       x1="1506.2" />
    <linearGradient
       id="linearGradient3763"
       y2="1096.4"
       xlink:href="#linearGradient3746"
       gradientUnits="userSpaceOnUse"
       x2="764.87"
       gradientTransform="translate(-538.37 -340.25)"
       y1="1027.2"
       x1="694.83" />
    <linearGradient
       id="linearGradient3765"
       y2="1102.7"
       xlink:href="#linearGradient3746"
       gradientUnits="userSpaceOnUse"
       x2="762.47"
       gradientTransform="translate(-538.37 -341.37)"
       y1="1102.7"
       x1="640.78" />
    <linearGradient
       id="linearGradient3773"
       y2="1164.6"
       xlink:href="#linearGradient3746"
       gradientUnits="userSpaceOnUse"
       x2="710.03"
       gradientTransform="translate(-538.37 -341.34)"
       y1="1164.6"
       x1="701.9" />
    <radialGradient
       id="radialGradient3812"
       gradientUnits="userSpaceOnUse"
       cy="609.51"
       cx="705.97"
       gradientTransform="matrix(-8.3682702,1.8644287e-5,4.3673498e-4,35.365395,6071.5282,-20948.895)"
       r="9.8688">
      <stop
         id="stop3786"
         stop-color="#80e5ff"
         offset="0" />
      <stop
         id="stop3788"
         stop-color="#80e5ff"
         stop-opacity="0"
         offset="1" />
    </radialGradient>
    <linearGradient
       id="linearGradient4073"
       y2="792.45"
       xlink:href="#linearGradient3746"
       gradientUnits="userSpaceOnUse"
       x2="200.75"
       gradientTransform="matrix(1.0164 0 0 1.0819 -2.6811 -64.828)"
       y1="779.91"
       x1="191.05" />
    <linearGradient
       id="linearGradient4075"
       y2="792.45"
       xlink:href="#linearGradient3746"
       gradientUnits="userSpaceOnUse"
       x2="200.75"
       gradientTransform="matrix(1.0164 0 0 -1.0819 -2.6811 1650.9)"
       y1="779.91"
       x1="191.05" />
    <radialGradient
       id="radialGradient4095"
       gradientUnits="userSpaceOnUse"
       cy="180.11"
       cx="167.6"
       gradientTransform="matrix(9.8465971,-1.6225139e-7,8.1649955e-7,8.9396176,-1486.3178,-1378.658)"
       r="44.227">
      <stop
         id="stop4091"
         stop-color="#f00"
         offset="0" />
      <stop
         id="stop4093"
         stop-color="#f00"
         stop-opacity="0"
         offset="1" />
    </radialGradient>
    <radialGradient
       id="radialGradient4103"
       gradientUnits="userSpaceOnUse"
       cy="232.88"
       cx="167.6"
       gradientTransform="matrix(9.5405387,0.02211737,-0.1972873,15.353136,-1389.0745,-3093.1924)"
       r="30.695">
      <stop
         id="stop4107"
         stop-color="#0ff"
         offset="0" />
      <stop
         id="stop4111"
         stop-color="#ff8080"
         offset=".74102" />
      <stop
         id="stop4109"
         stop-color="#faa"
         offset="1" />
    </radialGradient>
  </defs>
  <g
     id="g4427"
     transform="matrix(.61564 0 0 .61564 .375 -.038478)">
    <g
       id="g4021"
       transform="matrix(1.0166 0 0 1 -3.4137 0)">
      <g
         id="g3947">
        <path
           id="path3915"
           d="m133.39 794.83c-1.6788 0.8582-3.0778 1.6413-3.1088 1.7402-0.0433 0.1384 8.6106 0.17981 37.574 0.17981 20.987 0 37.571-0.0575 37.495-0.13024-0.0744-0.0716-1.5627-0.85593-3.3073-1.7429l-3.172-1.6127-31.214 0.003-31.214 0.003-3.0525 1.5604z"
           style="color:#000000"
           fill="url(#linearGradient4075)" />
        <path
           id="path3919"
           d="m133.39 791.22c-1.6788-0.8582-3.0778-1.6413-3.1088-1.7402-0.0433-0.1384 8.6106-0.17981 37.574-0.17981 20.987 0 37.571 0.0575 37.495 0.13024-0.0744 0.0716-1.5627 0.85593-3.3073 1.7429l-3.172 1.6127-31.214-0.003-31.214-0.003-3.0525-1.5604z"
           style="color:#000000"
           fill="url(#linearGradient4073)" />
      </g>
      <g
         id="g3951"
         transform="translate(.14009 54.143)">
        <path
           id="path3953"
           d="m133.39 794.83c-1.6788 0.8582-3.0778 1.6413-3.1088 1.7402-0.0433 0.1384 8.6106 0.17981 37.574 0.17981 20.987 0 37.571-0.0575 37.495-0.13024-0.0744-0.0716-1.5627-0.85593-3.3073-1.7429l-3.172-1.6127-31.214 0.003-31.214 0.003-3.0525 1.5604z"
           style="color:#000000"
           fill="url(#linearGradient4075)" />
        <path
           id="path3955"
           d="m133.39 791.22c-1.6788-0.8582-3.0778-1.6413-3.1088-1.7402-0.0433-0.1384 8.6106-0.17981 37.574-0.17981 20.987 0 37.571 0.0575 37.495 0.13024-0.0744 0.0716-1.5627 0.85593-3.3073 1.7429l-3.172 1.6127-31.214-0.003-31.214-0.003-3.0525-1.5604z"
           style="color:#000000"
           fill="url(#linearGradient4073)" />
      </g>
      <g
         id="g3957"
         transform="translate(0 46.508)">
        <path
           id="path3959"
           d="m133.39 794.83c-1.6788 0.8582-3.0778 1.6413-3.1088 1.7402-0.0433 0.1384 8.6106 0.17981 37.574 0.17981 20.987 0 37.571-0.0575 37.495-0.13024-0.0744-0.0716-1.5627-0.85593-3.3073-1.7429l-3.172-1.6127-31.214 0.003-31.214 0.003-3.0525 1.5604z"
           style="color:#000000"
           fill="url(#linearGradient4075)" />
        <path
           id="path3961"
           d="m133.39 791.22c-1.6788-0.8582-3.0778-1.6413-3.1088-1.7402-0.0433-0.1384 8.6106-0.17981 37.574-0.17981 20.987 0 37.571 0.0575 37.495 0.13024-0.0744 0.0716-1.5627 0.85593-3.3073 1.7429l-3.172 1.6127-31.214-0.003-31.214-0.003-3.0525-1.5604z"
           style="color:#000000"
           fill="url(#linearGradient4073)" />
      </g>
      <g
         id="g3963"
         transform="translate(0 38.804)">
        <path
           id="path3965"
           d="m133.39 794.83c-1.6788 0.8582-3.0778 1.6413-3.1088 1.7402-0.0433 0.1384 8.6106 0.17981 37.574 0.17981 20.987 0 37.571-0.0575 37.495-0.13024-0.0744-0.0716-1.5627-0.85593-3.3073-1.7429l-3.172-1.6127-31.214 0.003-31.214 0.003-3.0525 1.5604z"
           style="color:#000000"
           fill="url(#linearGradient4075)" />
        <path
           id="path3967"
           d="m133.39 791.22c-1.6788-0.8582-3.0778-1.6413-3.1088-1.7402-0.0433-0.1384 8.6106-0.17981 37.574-0.17981 20.987 0 37.571 0.0575 37.495 0.13024-0.0744 0.0716-1.5627 0.85593-3.3073 1.7429l-3.172 1.6127-31.214-0.003-31.214-0.003-3.0525-1.5604z"
           style="color:#000000"
           fill="url(#linearGradient4073)" />
      </g>
      <g
         id="g3969"
         transform="translate(0 30.959)">
        <path
           id="path3971"
           d="m133.39 794.83c-1.6788 0.8582-3.0778 1.6413-3.1088 1.7402-0.0433 0.1384 8.6106 0.17981 37.574 0.17981 20.987 0 37.571-0.0575 37.495-0.13024-0.0744-0.0716-1.5627-0.85593-3.3073-1.7429l-3.172-1.6127-31.214 0.003-31.214 0.003-3.0525 1.5604z"
           style="color:#000000"
           fill="url(#linearGradient4075)" />
        <path
           id="path3973"
           d="m133.39 791.22c-1.6788-0.8582-3.0778-1.6413-3.1088-1.7402-0.0433-0.1384 8.6106-0.17981 37.574-0.17981 20.987 0 37.571 0.0575 37.495 0.13024-0.0744 0.0716-1.5627 0.85593-3.3073 1.7429l-3.172 1.6127-31.214-0.003-31.214-0.003-3.0525-1.5604z"
           style="color:#000000"
           fill="url(#linearGradient4073)" />
      </g>
      <g
         id="g3975"
         transform="translate(.29717 23.08)">
        <path
           id="path3977"
           d="m133.39 794.83c-1.6788 0.8582-3.0778 1.6413-3.1088 1.7402-0.0433 0.1384 8.6106 0.17981 37.574 0.17981 20.987 0 37.571-0.0575 37.495-0.13024-0.0744-0.0716-1.5627-0.85593-3.3073-1.7429l-3.172-1.6127-31.214 0.003-31.214 0.003-3.0525 1.5604z"
           style="color:#000000"
           fill="url(#linearGradient4075)" />
        <path
           id="path3979"
           d="m133.39 791.22c-1.6788-0.8582-3.0778-1.6413-3.1088-1.7402-0.0433-0.1384 8.6106-0.17981 37.574-0.17981 20.987 0 37.571 0.0575 37.495 0.13024-0.0744 0.0716-1.5627 0.85593-3.3073 1.7429l-3.172 1.6127-31.214-0.003-31.214-0.003-3.0525-1.5604z"
           style="color:#000000"
           fill="url(#linearGradient4073)" />
      </g>
      <g
         id="g3981"
         transform="translate(.59433 15.453)">
        <path
           id="path3983"
           d="m133.39 794.83c-1.6788 0.8582-3.0778 1.6413-3.1088 1.7402-0.0433 0.1384 8.6106 0.17981 37.574 0.17981 20.987 0 37.571-0.0575 37.495-0.13024-0.0744-0.0716-1.5627-0.85593-3.3073-1.7429l-3.172-1.6127-31.214 0.003-31.214 0.003-3.0525 1.5604z"
           style="color:#000000"
           fill="url(#linearGradient4075)" />
        <path
           id="path3985"
           d="m133.39 791.22c-1.6788-0.8582-3.0778-1.6413-3.1088-1.7402-0.0433-0.1384 8.6106-0.17981 37.574-0.17981 20.987 0 37.571 0.0575 37.495 0.13024-0.0744 0.0716-1.5627 0.85593-3.3073 1.7429l-3.172 1.6127-31.214-0.003-31.214-0.003-3.0525-1.5604z"
           style="color:#000000"
           fill="url(#linearGradient4073)" />
      </g>
      <g
         id="g3987"
         transform="translate(-.39622 7.7263)">
        <path
           id="path3989"
           d="m133.39 794.83c-1.6788 0.8582-3.0778 1.6413-3.1088 1.7402-0.0433 0.1384 8.6106 0.17981 37.574 0.17981 20.987 0 37.571-0.0575 37.495-0.13024-0.0744-0.0716-1.5627-0.85593-3.3073-1.7429l-3.172-1.6127-31.214 0.003-31.214 0.003-3.0525 1.5604z"
           style="color:#000000"
           fill="url(#linearGradient4075)" />
        <path
           id="path3991"
           d="m133.39 791.22c-1.6788-0.8582-3.0778-1.6413-3.1088-1.7402-0.0433-0.1384 8.6106-0.17981 37.574-0.17981 20.987 0 37.571 0.0575 37.495 0.13024-0.0744 0.0716-1.5627 0.85593-3.3073 1.7429l-3.172 1.6127-31.214-0.003-31.214-0.003-3.0525-1.5604z"
           style="color:#000000"
           fill="url(#linearGradient4073)" />
      </g>
    </g>
    <path
       id="path3801"
       d="m 163.95201,0.0625 c 0,149.04069 -380.22309,483.08309 0,620.96772 380.22308,-137.89275 0,-471.93352 0,-620.96772 z m 0,96.412128 c 0,115.864642 263.89033,403.218412 0,510.413332 -263.890336,-107.19816 0,-394.55194 0,-510.413332 z"
       style="color:#000000;fill:url(#radialGradient4095)"
       inkscape:connector-curvature="0" />
    <path
       id="path3803"
       d="m 163.95201,96.475439 c 0,115.864641 -263.890336,403.218411 0,510.413331 -168.5537195,-77.21604 0,-291.94993 0,-375.4013 0,83.45786 168.55372,298.18201 0,375.4013 263.89033,-107.19816 0,-394.55194 0,-510.413331 z"
       style="color:#000000;fill:url(#radialGradient4103)"
       inkscape:connector-curvature="0" />
    <path
       id="path3805"
       d="m 163.95201,231.4891 c 0,83.45785 -168.5537195,298.182 0,375.40129 168.55372,-77.21604 0,-291.94993 0,-375.40129 z"
       style="color:#000000;fill:url(#radialGradient3812)"
       inkscape:connector-curvature="0" />
    <path
       id="rect2934"
       style="color:#000000"
       d="m235.72 841.19c-0.5509-0.015-1.1008 0.00025-1.6562 0.0312-9.6119 0.5977-27.156 9.8125-27.156 9.8125h-89.624s-4.2346 17.094-9.9062 23.375c-11.464 12.696-30.731 15.237-44.969 24.719-14.984 9.9783-10.738 21.637-19.188 22.969-32.464 5.12-43.227 36.13-43.227 51.38h335.18c0-15.249-10.763-46.259-43.219-51.375-8.4498-1.3321-4.2031-12.99-19.188-22.969-7.7959-5.1914-17.108-8.2887-25.812-12.125 4.3327-1.5219 8.6636-3.1676 13.156-3.2812 8.48-0.2146 16.588 4.719 25.062 4.3438 11.53-0.5106 21.934-8.5148 33.469-8.9062 5.1862-0.176 10.1 3.2622 15.281 2.9688 1.347-0.076 3.875-1.2188 3.875-1.2188l0.1875-15.5-0.1875-15.5s-2.528-1.1424-3.875-1.2188c-5.1808-0.2935-10.095 3.1448-15.281 2.9688-11.535-0.3914-21.939-8.3644-33.469-8.875-8.4745-0.3752-16.582 4.5271-25.062 4.3125-8.3448-0.2111-16.143-5.6784-24.406-5.9062z"
       stroke-width="1.2182"
       stroke="#000"
       fill="#4d4d4d" />
    <path
       id="path3819"
       style="color:#000000;fill:url(#linearGradient3752-1);stroke:#000000;stroke-width:0.72420418"
       d="M 136.593,612.02231 V 753.247 h 61.994 V 612.02231 c -15.42088,0 -16.62447,2.35561 -30.997,2.35561 -14.37253,0 -15.57612,-2.35561 -30.997,-2.35561 z"
       inkscape:connector-curvature="0" />
    <path
       id="path3761"
       style="color:#000000"
       d="m221.56 753.02h-107.94l-0.031 36.125h108l-0.031-36.125z"
       stroke-width="1.2182"
       stroke="#000"
       fill="url(#linearGradient3765)" />
    <path
       id="rect2895"
       style="color:#000000"
       d="m113.62 754.14h107.94l11.125-11.75 0.125-7.8437h-130.41l0.125 7.8437 11.094 11.75z"
       stroke-width="1.2182"
       stroke="#000"
       fill="url(#linearGradient3763)" />
    <path
       id="path3830"
       style="color:#000000"
       d="m136.84 800.8h61.5"
       stroke-width="1.2182"
       stroke="#000"
       fill="#4d4d4d" />
    <path
       id="path3832"
       style="color:#000000"
       d="m136.84 847.17h61.5"
       stroke-width="1.2182"
       stroke="#000"
       fill="#4d4d4d" />
    <path
       id="path3834"
       style="color:#000000"
       d="m136.84 839.45h61.5"
       stroke-width="1.2182"
       stroke="#000"
       fill="#4d4d4d" />
    <path
       id="path3848"
       style="color:#000000"
       d="m128.78 835.58h77.656"
       stroke-linejoin="round"
       stroke-linecap="round"
       stroke-width="1.2182"
       stroke="#000"
       fill="#4d4d4d" />
    <path
       id="path3836"
       style="color:#000000"
       d="m136.84 831.7h61.5"
       stroke-width="1.2182"
       stroke="#000"
       fill="#4d4d4d" />
    <path
       id="path3850"
       style="color:#000000"
       d="m128.78 827.86h77.656"
       stroke-linejoin="round"
       stroke-linecap="round"
       stroke-width="1.2182"
       stroke="#000"
       fill="#4d4d4d" />
    <path
       id="path3838"
       style="color:#000000"
       d="m136.84 823.98h61.5"
       stroke-width="1.2182"
       stroke="#000"
       fill="#4d4d4d" />
    <path
       id="path3852"
       style="color:#000000"
       d="m128.78 820.11h77.656"
       stroke-linejoin="round"
       stroke-linecap="round"
       stroke-width="1.2182"
       stroke="#000"
       fill="#4d4d4d" />
    <path
       id="path3840"
       style="color:#000000"
       d="m136.84 816.23h61.5"
       stroke-width="1.2182"
       stroke="#000"
       fill="#4d4d4d" />
    <path
       id="path3842"
       style="color:#000000"
       d="m136.84 808.52h61.5"
       stroke-width="1.2182"
       stroke="#000"
       fill="#4d4d4d" />
    <path
       id="path3854"
       style="color:#000000"
       d="m128.78 812.39h77.656"
       stroke-linejoin="round"
       stroke-linecap="round"
       stroke-width="1.2182"
       stroke="#000"
       fill="#4d4d4d" />
    <path
       id="path2906"
       d="m167.59 807.02c-8.9719 0-16.25 7.2781-16.25 16.25s7.2781 16.25 16.25 16.25 16.25-7.2781 16.25-16.25-7.2781-16.25-16.25-16.25z"
       style="color:#000000"
       fill="#fff" />
    <path
       id="rect2909"
       d="m167.59 807.02c-1.4019 0-2.7646 0.1972-4.0625 0.5313v31.438c1.2979 0.334 2.6606 0.5312 4.0625 0.5312s2.7646-0.1972 4.0625-0.5312v-31.438c-1.2979-0.3341-2.6606-0.5313-4.0625-0.5313z"
       style="color:#000000"
       fill="url(#linearGradient3773)" />
    <path
       id="path3844"
       style="color:#000000"
       d="m128.78 796.92h77.656"
       stroke-linejoin="round"
       stroke-linecap="round"
       stroke-width="1.2182"
       stroke="#000"
       fill="#4d4d4d" />
    <path
       id="path3846"
       style="color:#000000"
       d="m128.78 843.33h77.656"
       stroke-linejoin="round"
       stroke-linecap="round"
       stroke-width="1.2182"
       stroke="#000"
       fill="#4d4d4d" />
    <path
       id="path3856"
       style="color:#000000"
       d="m128.78 804.64h77.656"
       stroke-linejoin="round"
       stroke-linecap="round"
       stroke-width="1.2182"
       stroke="#000"
       fill="#4d4d4d" />
    <path
       id="path3858"
       style="color:#000000"
       d="m128.78 789.17 8.0625 3.875-8.0625 3.875"
       stroke-width="1.2182"
       stroke="#000"
       fill="none" />
    <path
       id="path3860"
       style="color:#000000"
       d="m128.78 843.3 8.0625 3.875-8.0625 3.875"
       stroke-width="1.2182"
       stroke="#000"
       fill="none" />
    <path
       id="path3862"
       style="color:#000000"
       d="m128.78 835.58 8.0625 3.875-8.0625 3.875"
       stroke-width="1.2182"
       stroke="#000"
       fill="none" />
    <path
       id="path3864"
       style="color:#000000"
       d="m128.78 827.83 8.0625 3.875-8.0625 3.875"
       stroke-width="1.2182"
       stroke="#000"
       fill="none" />
    <path
       id="path3866"
       style="color:#000000"
       d="m128.78 820.11 8.0625 3.875-8.0625 3.875"
       stroke-width="1.2182"
       stroke="#000"
       fill="none" />
    <path
       id="path3868"
       style="color:#000000"
       d="m128.78 812.36 8.0625 3.875-8.0625 3.875"
       stroke-width="1.2182"
       stroke="#000"
       fill="none" />
    <path
       id="path3870"
       style="color:#000000"
       d="m128.78 804.64 8.0625 3.875-8.0625 3.875"
       stroke-width="1.2182"
       stroke="#000"
       fill="none" />
    <path
       id="path3872"
       style="color:#000000"
       d="m128.78 796.92 8.0625 3.875-8.0625 3.875"
       stroke-width="1.2182"
       stroke="#000"
       fill="none" />
    <path
       id="path3887"
       style="color:#000000"
       d="m206.41 789.17-8.0625 3.875 8.0625 3.875"
       stroke-width="1.2182"
       stroke="#000"
       fill="none" />
    <path
       id="path3889"
       style="color:#000000"
       d="m206.41 843.3-8.0625 3.875 8.0625 3.875"
       stroke-width="1.2182"
       stroke="#000"
       fill="none" />
    <path
       id="path3891"
       style="color:#000000"
       d="m206.41 835.58-8.0625 3.875 8.0625 3.875"
       stroke-width="1.2182"
       stroke="#000"
       fill="none" />
    <path
       id="path3893"
       style="color:#000000"
       d="m206.41 827.83-8.0625 3.875 8.0625 3.875"
       stroke-width="1.2182"
       stroke="#000"
       fill="none" />
    <path
       id="path3895"
       style="color:#000000"
       d="m206.41 820.11-8.0625 3.875 8.0625 3.875"
       stroke-width="1.2182"
       stroke="#000"
       fill="none" />
    <path
       id="path3897"
       style="color:#000000"
       d="m206.41 812.36-8.0625 3.875 8.0625 3.875"
       stroke-width="1.2182"
       stroke="#000"
       fill="none" />
    <path
       id="path3899"
       style="color:#000000"
       d="m206.41 804.64-8.0625 3.875 8.0625 3.875"
       stroke-width="1.2182"
       stroke="#000"
       fill="none" />
    <path
       id="path3901"
       style="color:#000000"
       d="m206.44 796.89-8.0625 3.875 8.0625 3.875"
       stroke-width="1.2182"
       stroke="#000"
       fill="none" />
    <path
       id="path3903"
       style="color:#000000"
       d="m136.84 793.05h61.5"
       stroke-linejoin="round"
       stroke-linecap="round"
       stroke-width="1.2182"
       stroke="#000"
       fill="none" />
  </g>
  <metadata
     id="metadata4091">
    <rdf:RDF>
      <cc:Work>
        <dc:format>image/svg+xml</dc:format>
        <dc:type
           rdf:resource="http://purl.org/dc/dcmitype/StillImage" />
        <cc:license
           rdf:resource="http://creativecommons.org/licenses/publicdomain/" />
        <dc:publisher>
          <cc:Agent
             rdf:about="http://openclipart.org/">
            <dc:title>Openclipart</dc:title>
          </cc:Agent>
        </dc:publisher>
        <dc:title>Bunzen burner</dc:title>
        <dc:date>2009-04-27T09:34:59</dc:date>
        <dc:description>Another addition to my Chemistry Pack</dc:description>
        <dc:source>http://openclipart.org/detail/25348/bunzen-burner-by-boobaloo-25348</dc:source>
        <dc:creator>
          <cc:Agent>
            <dc:title>boobaloo</dc:title>
          </cc:Agent>
        </dc:creator>
        <dc:subject>
          <rdf:Bag>
            <rdf:li>bunzen</rdf:li>
            <rdf:li>burner</rdf:li>
            <rdf:li>chem</rdf:li>
            <rdf:li>chemistry</rdf:li>
            <rdf:li>clip art</rdf:li>
            <rdf:li>clipart</rdf:li>
            <rdf:li>colour</rdf:li>
            <rdf:li>fire</rdf:li>
            <rdf:li>flame</rdf:li>
            <rdf:li>heat</rdf:li>
            <rdf:li>image</rdf:li>
            <rdf:li>lab</rdf:li>
            <rdf:li>laboratory</rdf:li>
            <rdf:li>media</rdf:li>
            <rdf:li>png</rdf:li>
            <rdf:li>public domain</rdf:li>
            <rdf:li>science</rdf:li>
            <rdf:li>svg</rdf:li>
          </rdf:Bag>
        </dc:subject>
      </cc:Work>
      <cc:License
         rdf:about="http://creativecommons.org/licenses/publicdomain/">
        <cc:permits
           rdf:resource="http://creativecommons.org/ns#Reproduction" />
        <cc:permits
           rdf:resource="http://creativecommons.org/ns#Distribution" />
        <cc:permits
           rdf:resource="http://creativecommons.org/ns#DerivativeWorks" />
      </cc:License>
    </rdf:RDF>
  </metadata>
</svg>
