<?xml version="1.0" encoding="UTF-8" standalone="no"?>
<!-- Created with Inkscape (http://www.inkscape.org/) -->

<svg
   xmlns:dc="http://purl.org/dc/elements/1.1/"
   xmlns:cc="http://creativecommons.org/ns#"
   xmlns:rdf="http://www.w3.org/1999/02/22-rdf-syntax-ns#"
   xmlns:svg="http://www.w3.org/2000/svg"
   xmlns="http://www.w3.org/2000/svg"
   xmlns:sodipodi="http://sodipodi.sourceforge.net/DTD/sodipodi-0.dtd"
   xmlns:inkscape="http://www.inkscape.org/namespaces/inkscape"
   version="1.0"
   width="500"
   height="500"
   viewBox="0 0 1 1"
   id="svg23264"
   inkscape:version="0.48.4 r9939"
   sodipodi:docname="fire.svg">
  <metadata
     id="metadata3527">
    <rdf:RDF>
      <cc:Work
         rdf:about="">
        <dc:format>image/svg+xml</dc:format>
        <dc:type
           rdf:resource="http://purl.org/dc/dcmitype/StillImage" />
      </cc:Work>
    </rdf:RDF>
  </metadata>
  <sodipodi:namedview
     pagecolor="#ffffff"
     bordercolor="#666666"
     borderopacity="1"
     objecttolerance="10"
     gridtolerance="10"
     guidetolerance="10"
     inkscape:pageopacity="0"
     inkscape:pageshadow="2"
     inkscape:window-width="1918"
     inkscape:window-height="1198"
     id="namedview3525"
     showgrid="false"
     inkscape:zoom="0.71629917"
     inkscape:cx="419.48001"
     inkscape:cy="354.69621"
     inkscape:window-x="0"
     inkscape:window-y="0"
     inkscape:window-maximized="0"
     inkscape:current-layer="svg23264" />
  <defs
     id="defs23331" />
  <title
     id="title23266">SVG drawing</title>
  <desc
     id="desc23268">This was produced by version 4.1 of GNU libplot, a free library for exporting 2-D vector graphics.</desc>
  <polygon
     points="182.85,519.35 210.04,519.35 210.04,546.5 182.85,546.5 182.85,519.35 "
     transform="matrix(3.616491e-2,0,0,-3.621801e-2,-6.604416,19.80148)"
     style="font-style:normal;font-variant:normal;font-weight:normal;font-stretch:normal;letter-spacing:normal;word-spacing:normal;text-anchor:start;fill:#ff0000;fill-opacity:1;fill-rule:evenodd;stroke:#000000;stroke-width:0.46051392000000002;stroke-linecap:butt;stroke-linejoin:miter;stroke-miterlimit:10.43299960999999954;stroke-dasharray:none;stroke-dashoffset:0;stroke-opacity:1"
     id="polygon23274" />
  <g
     transform="matrix(38.843346,0,0,26.405391,-11.555547,-6.405227)"
     style="stroke:none"
     id="g23363">
    <path
       d="m 0.31041448,0.25294001 -3.472e-5,3.472e-5 -3.472e-5,3.472e-5 -3.473e-5,3.473e-5 -3.472e-5,3.472e-5 -5.208e-5,6.944e-5 -6.945e-5,6.945e-5 -5.208e-5,5.208e-5 -3.472e-5,6.944e-5 -3.472e-5,5.209e-5 -5.209e-5,6.944e-5 -1.736e-5,5.208e-5 -3.472e-5,5.208e-5 -3.472e-5,6.945e-5 -1.736e-5,5.208e-5 -1.736e-5,5.209e-5 -1.736e-5,5.208e-5 0,5.208e-5 -1.736e-5,5.208e-5 0,5.209e-5 0,5.208e-5 0,6.944e-5 0,5.209e-5 0,5.208e-5 0,5.208e-5 1.736e-5,1.0417e-4 0,1.2153e-4 1.736e-5,1.2152e-4 1.736e-5,5.209e-5 0,6.944e-5 1.736e-5,6.944e-5 0,6.945e-5 c 5.0347e-4,-3.8194e-4 6.25e-4,-0.001146 5.2083e-4,-0.001892 z"
       style="font-style:normal;font-variant:normal;font-weight:normal;font-stretch:normal;letter-spacing:normal;word-spacing:normal;text-anchor:start;fill:#000000;fill-opacity:1;fill-rule:evenodd;stroke:none"
       id="path23324"
       inkscape:connector-curvature="0" />
    <path
       d="m 0.30822699,0.27545723 c -0.004895,0.001348 -0.007682,-0.002905 -0.00809,-0.007274 -2.9514e-4,-0.002535 8.5069e-4,-0.003576 -3.472e-5,-0.006024 7.4652e-4,3.6458e-4 0.001389,0.001059 0.001719,0.001649 5.0347e-4,-0.002639 8.1597e-4,-0.005451 5.7292e-4,-0.007951 0.001111,2.7777e-4 0.001875,0.002222 0.002344,0.003142 0.00125,-0.00375 0.00158,-0.007135 6.9444e-4,-0.009149 0.001128,1.2153e-4 0.001788,0.001441 0.002552,0.002934 7.4652e-4,-9.8958e-4 6.25e-4,-0.003038 6.25e-4,-0.005156 1.2152e-4,-0.001007 2.9513e-4,-0.002135 9.2013e-4,-0.002674 6.0763e-4,0.00474 0.002934,0.00434 0.004236,0.009618 4.6875e-4,-0.001042 5.5556e-4,-0.00217 4.3403e-4,-0.003594 0.001528,8.8541e-4 0.002865,0.004201 0.003576,0.008941 6.7708e-4,-3.4722e-4 9.8958e-4,-0.001684 0.00125,-0.003194 0.001476,0.002101 0.001997,0.004722 0.00125,0.007847 -3.8194e-4,8.8541e-4 -6.25e-4,0.001788 -5.0347e-4,0.002795 6.2499e-4,-3.8194e-4 8.3333e-4,-0.001302 0.001198,-0.002066 2.6041e-4,0.001128 5.2083e-4,0.002465 2.9514e-4,0.003437 -7.4653e-4,0.005625 -0.006927,0.00816 -0.0106249,0.006458 0.002622,-0.001667 0.00533,-0.002309 0.006007,-0.007621 -3.8194e-4,3.6458e-4 -0.001059,6.9444e-4 -0.001441,8.1597e-4 5.7291e-4,-0.001806 7.4652e-4,-0.00342 6.944e-5,-0.004323 -7.118e-4,0.001875 -0.001701,0.002986 -0.002465,0.003194 9.0277e-4,-0.001493 0.001076,-0.003872 -0.001545,-0.007743 5.0347e-4,0.004618 0,0.006753 -0.001198,0.008351 -7.4652e-4,-8.8541e-4 -0.001545,-0.00217 -0.001927,-0.003924 -7.4652e-4,0.001875 -8.1597e-4,0.004132 1.0417e-4,0.006875 -9.375e-4,-2.6042e-4 -0.001684,-0.001163 -0.002674,-0.006806 -0.00125,0.002575 4.4775e-4,0.005153 -0.002396,0.003837 7.4653e-4,0.004497 0.002656,0.006858 0.005052,0.007604 z"
       style="font-style:normal;font-variant:normal;font-weight:normal;font-stretch:normal;letter-spacing:normal;word-spacing:normal;text-anchor:start;fill:#000000;fill-opacity:1;fill-rule:evenodd;stroke:none"
       id="path23326"
       inkscape:connector-curvature="0" />
    <polygon
       points="200.61,524.55 200.61,524.91 192.49,524.91 192.49,524.55 192.49,524.55 "
       transform="matrix(0.0017361,0,0,-0.0017361,-0.03125,1.1875)"
       style="font-style:normal;font-variant:normal;font-weight:normal;font-stretch:normal;letter-spacing:normal;word-spacing:normal;text-anchor:start;fill:#000000;fill-opacity:1;fill-rule:evenodd;stroke:none"
       id="polygon23328" />
  </g>
  <path
     style="opacity:0.90000000000000002;fill:#ff0000;fill-opacity:1;fill-rule:nonzero;stroke:none"
     d="m 9.1814352,250.32924 0,-240.821165 240.8211648,0 240.82116,0 0,240.821165 0,240.82116 -240.82116,0 -240.8211648,0 0,-240.82116 z m 371.3532148,198.24119 0,-4.88623 -137.51237,0 -137.51238,0 0,4.88623 0,4.88623 137.51238,0 137.51237,0 0,-4.88623 z M 196.48033,436.52486 c 6.75502,-0.8663 11.98239,-2.05963 11.61639,-2.65185 -0.36603,-0.59223 -3.96562,-1.83559 -7.99913,-2.76302 -11.37091,-2.61457 -34.2561,-14.39509 -44.70043,-23.0103 -18.30935,-15.1028 -33.1647,-37.91817 -40.68734,-62.48903 -1.82188,-5.95073 -3.22366,-10.81205 -3.11507,-10.80293 0.10859,0.009 3.6527,0.944 7.8758,2.07752 10.44363,2.80319 18.53739,2.65946 22.31098,-0.39622 2.54234,-2.05865 3.39073,-5.02294 4.89461,-17.10179 2.18366,-17.5389 3.06661,-21.31745 6.65287,-28.47095 3.26335,-6.50936 3.64306,-6.03742 7.81711,9.71545 9.19753,34.71153 23.46992,62.34472 35.38243,68.50491 5.21014,2.69428 12.29014,4.8793 12.29014,3.79298 0,-0.41602 -2.1754,-6.56455 -4.83422,-13.66337 -9.28159,-24.78102 -9.68889,-46.84252 -1.22513,-66.35829 l 3.71945,-8.57635 4.45089,9.52404 c 5.49939,11.7676 15.01024,24.47956 25.46194,34.03184 l 7.94477,7.26106 6.61144,-7.19025 c 15.55659,-16.91846 21.59613,-38.29179 20.16075,-71.34678 -0.48345,-11.13362 -1.22468,-22.44174 -1.64716,-25.12916 l -0.76814,-4.88623 6.59237,6.98032 c 10.63282,11.25857 21.8278,27.1738 26.94623,38.30786 8.03667,17.48209 7.60133,34.58162 -1.21393,47.6822 -2.27613,3.38261 -3.5261,6.36247 -2.77771,6.62192 0.7484,0.25943 5.29115,-1.36757 10.09501,-3.61557 10.52065,-4.92321 23.40928,-16.6055 31.01549,-28.11252 3.07134,-4.64646 6.21249,-8.26417 6.98033,-8.03935 0.76783,0.22482 2.46529,2.56192 3.77212,5.19357 3.71399,7.47908 3.22141,22.23323 -1.13856,34.10216 -1.9744,5.37485 -3.91662,11.17313 -4.31605,12.88507 l -0.7262,3.11261 7.17157,-2.12973 c 3.94437,-1.17135 9.98333,-3.33499 13.41991,-4.80809 3.43659,-1.47308 6.24834,-2.09637 6.24834,-1.38507 0,3.84671 -7.2871,23.31887 -11.6387,31.10027 -13.45781,24.06483 -31.86814,36.77149 -82.33916,56.82987 -12.14428,4.82643 -21.56772,9.27527 -20.94097,9.88632 0.62675,0.61105 6.4795,2.25466 13.0061,3.65247 18.31845,3.92327 56.87509,3.51057 78.17963,-0.83683 39.38994,-8.03789 68.85362,-22.53774 90.7591,-44.66493 16.98824,-17.16018 27.91828,-42.51442 25.86284,-59.99356 -1.11273,-9.46261 -6.26398,-29.47559 -7.58686,-29.47559 -0.52148,0 -2.97232,3.33984 -5.44628,7.42187 -5.33314,8.79964 -13.2145,17.70729 -15.66713,17.70729 -3.41852,0 -0.76269,-16.94077 4.18097,-26.66926 8.90573,-17.52532 12.23495,-42.45138 8.39281,-62.83735 -1.78067,-9.44794 -9.23579,-25.31208 -16.44694,-34.99827 -5.72747,-7.69326 -12.49919,-14.61756 -13.29513,-13.59469 -0.25132,0.32296 -2.22273,6.11511 -4.38092,12.87144 -2.15819,6.75633 -5.5965,14.77456 -7.64069,17.81829 -4.27509,6.36544 -9.60932,10.56032 -11.18991,8.79983 -0.5968,-0.66474 -2.46663,-6.83474 -4.15519,-13.71112 -8.24252,-33.56661 -25.15196,-67.6274 -42.5242,-85.65671 -5.74138,-5.95856 -20.95341,-17.01613 -23.40925,-17.01613 -0.29841,0 -0.30363,4.73129 -0.0112,10.51397 0.29201,5.78268 -0.18121,13.47849 -1.05162,17.10179 -1.87424,7.80027 -5.73087,17.05832 -7.10645,17.05832 -0.53602,0 -2.68564,-4.02593 -4.77692,-8.9465 -6.55879,-15.43226 -16.75552,-29.02891 -39.53821,-52.721514 -23.54602,-24.486402 -29.83396,-33.721611 -34.53029,-50.7152 -1.2732,-4.607014 -2.60725,-9.268425 -2.96458,-10.358693 -1.15317,-3.518685 -11.46191,8.115778 -14.69432,16.584068 -2.41448,6.325462 -3.17864,12.678917 -4.1928,34.859791 -1.34498,29.416688 -2.36807,35.270108 -7.80568,44.658298 -3.36835,5.8156 -3.68205,6.01488 -5.49364,3.49016 -6.24553,-8.70405 -20.13216,-23.80456 -24.94086,-27.12104 -7.07389,-4.878737 -15.33852,-8.364092 -19.8333,-8.364092 -2.77752,0 -3.25744,0.487011 -2.40753,2.443113 10.3303,23.775829 10.07026,49.566429 -0.83629,82.941779 -4.3411,13.28427 -12.68137,33.23416 -13.88714,33.21798 -0.38392,-0.006 -2.75748,-3.04681 -5.27458,-6.75926 -11.12008,-16.40084 -25.32888,-29.0333 -36.145496,-32.13546 l -3.96161,-1.13618 0.467104,20.39578 c 0.509187,22.23328 -1.272348,37.7547 -7.649357,66.64419 l -3.737328,16.93107 -7.788349,-6.3437 c -7.174042,-5.84334 -24.6699,-15.30979 -25.942843,-14.03685 -0.300623,0.30063 0.69463,3.31894 2.211672,6.70737 4.672718,10.43685 4.784539,19.55785 0.496032,40.46047 -3.630724,17.69653 -3.754786,19.48596 -2.174086,31.35833 7.158511,53.76645 47.540553,92.67635 104.157521,100.36044 8.92145,1.21084 29.68093,0.91591 41.41013,-0.5883 z"
     id="path3529"
     inkscape:connector-curvature="0"
     transform="scale(0.002,0.002)" />
</svg>
