<?xml version="1.0" encoding="UTF-8" standalone="no"?>
<!-- Created with Inkscape (http://www.inkscape.org/) -->

<svg
   height="400"
   width="300"
   id="svg3293"
   sodipodi:version="0.32"
   inkscape:version="1.2.2 (b0a8486541, 2022-12-01)"
   version="1.0"
   sodipodi:docname="hotplatev2.svg"
   inkscape:output_extension="org.inkscape.output.svg.inkscape"
   inkscape:export-filename="../hotplate.png"
   inkscape:export-xdpi="513.25867"
   inkscape:export-ydpi="513.25867"
   xml:space="preserve"
   xmlns:inkscape="http://www.inkscape.org/namespaces/inkscape"
   xmlns:sodipodi="http://sodipodi.sourceforge.net/DTD/sodipodi-0.dtd"
   xmlns:xlink="http://www.w3.org/1999/xlink"
   xmlns="http://www.w3.org/2000/svg"
   xmlns:svg="http://www.w3.org/2000/svg"
   xmlns:rdf="http://www.w3.org/1999/02/22-rdf-syntax-ns#"
   xmlns:cc="http://creativecommons.org/ns#"
   xmlns:dc="http://purl.org/dc/elements/1.1/"><defs
     id="defs3295"><linearGradient
       inkscape:collect="always"
       id="linearGradient3203"><stop
         style="stop-color:#ffffff;stop-opacity:1;"
         offset="0"
         id="stop3205" /><stop
         style="stop-color:#ffffff;stop-opacity:0;"
         offset="1"
         id="stop3207" /></linearGradient><linearGradient
       inkscape:collect="always"
       id="linearGradient3193"><stop
         style="stop-color:#00c0bf;stop-opacity:1;"
         offset="0"
         id="stop3195" /><stop
         style="stop-color:#00c0bf;stop-opacity:0;"
         offset="1"
         id="stop3197" /></linearGradient><inkscape:perspective
       sodipodi:type="inkscape:persp3d"
       inkscape:vp_x="-50 : 871 : 1"
       inkscape:vp_y="0 : 1000 : 0"
       inkscape:vp_z="700 : 871 : 1"
       inkscape:persp3d-origin="300 : 671 : 1"
       id="perspective3637" /><inkscape:perspective
       sodipodi:type="inkscape:persp3d"
       inkscape:vp_x="-50 : 871 : 1"
       inkscape:vp_y="0 : 1000 : 0"
       inkscape:vp_z="700 : 871 : 1"
       inkscape:persp3d-origin="300 : 671 : 1"
       id="perspective14" /><linearGradient
       inkscape:collect="always"
       xlink:href="#linearGradient3193"
       id="linearGradient3199"
       x1="110.75042"
       y1="65.505646"
       x2="217.94905"
       y2="65.505646"
       gradientUnits="userSpaceOnUse"
       gradientTransform="translate(-100)" /><linearGradient
       inkscape:collect="always"
       xlink:href="#linearGradient3203"
       id="linearGradient3209"
       x1="16.522675"
       y1="65.66478"
       x2="47.28083"
       y2="65.66478"
       gradientUnits="userSpaceOnUse"
       gradientTransform="matrix(1.422973,0,0,1.0776104,-8.0115713,-0.02886165)" /><linearGradient
       inkscape:collect="always"
       xlink:href="#linearGradient3203"
       id="linearGradient3213"
       gradientUnits="userSpaceOnUse"
       x1="-33.382977"
       y1="65.93119"
       x2="43.245827"
       y2="65.66478"
       gradientTransform="matrix(-0.99491364,0,0,1.0776104,167.49541,-0.79658418)" /><linearGradient
       inkscape:collect="always"
       xlink:href="#linearGradient3193"
       id="linearGradient3607"
       gradientUnits="userSpaceOnUse"
       gradientTransform="translate(-102.15369,3.23234)"
       x1="110.75042"
       y1="65.505646"
       x2="217.94905"
       y2="65.505646" /><inkscape:perspective
       sodipodi:type="inkscape:persp3d"
       inkscape:vp_x="-50 : 1076 : 1"
       inkscape:vp_y="0 : 1000 : 0"
       inkscape:vp_z="700 : 1076 : 1"
       inkscape:persp3d-origin="300 : 876 : 1"
       id="perspective3637-6" /><inkscape:perspective
       sodipodi:type="inkscape:persp3d"
       inkscape:vp_x="-50 : 1076 : 1"
       inkscape:vp_y="0 : 1000 : 0"
       inkscape:vp_z="700 : 1076 : 1"
       inkscape:persp3d-origin="300 : 876 : 1"
       id="perspective14-1" /></defs><sodipodi:namedview
     id="base"
     pagecolor="#ffffff"
     bordercolor="#666666"
     borderopacity="1.0"
     inkscape:pageopacity="0.0"
     inkscape:pageshadow="2"
     inkscape:cx="-81.525868"
     inkscape:cy="126.7807"
     inkscape:zoom="5.9551651"
     inkscape:document-units="px"
     inkscape:current-layer="layer1"
     width="60px"
     height="60px"
     inkscape:grid-points="false"
     gridtolerance="50"
     showgrid="true"
     inkscape:grid-bbox="false"
     inkscape:window-width="3440"
     inkscape:window-height="1371"
     inkscape:window-x="0"
     inkscape:window-y="32"
     inkscape:snap-global="true"
     inkscape:window-maximized="1"
     inkscape:showpageshadow="2"
     inkscape:pagecheckerboard="0"
     inkscape:deskcolor="#d1d1d1"><inkscape:grid
       id="GridFromPre046Settings"
       type="xygrid"
       originx="0"
       originy="0"
       spacingx="3px"
       spacingy="3px"
       color="#0000ff"
       empcolor="#0000ff"
       opacity="0.2"
       empopacity="0.4"
       empspacing="5"
       visible="true"
       enabled="true" /></sodipodi:namedview><metadata
     id="metadata3298"><rdf:RDF><cc:Work
         rdf:about=""><dc:format>image/svg+xml</dc:format><dc:type
           rdf:resource="http://purl.org/dc/dcmitype/StillImage" /></cc:Work></rdf:RDF></metadata><g
     inkscape:groupmode="layer"
     id="layer2"
     style="display:none"><path
       sodipodi:nodetypes="ccccccccc"
       id="path3191"
       d="m 12.59673,12.204433 99.19863,0.343791 c -4.96536,5.632123 -7.71569,6.222709 -7.71569,13.802258 L 104.42346,107 c 0,12.63941 -4.43007,17.58396 -14.89608,18.27154 -7.93251,0 -45.70267,-0.0864 -54.65089,-0.12329 C 23.6319,125.28729 19.96863,120.08538 21,107 V 25.319111 c 0,-5.173017 -4.46927,-8.513925 -8.40327,-13.114678 z"
       style="display:inline;overflow:visible;visibility:visible;opacity:0.25;fill:url(#linearGradient3607);fill-opacity:1;fill-rule:nonzero;stroke:none;stroke-width:37.2;marker:none;enable-background:accumulate" /></g><g
     inkscape:groupmode="layer"
     inkscape:label="Warstwa 1"
     id="layer1"
     style="display:inline"><path
       style="display:inline;overflow:visible;visibility:visible;fill:#00c0ff;fill-opacity:1;fill-rule:evenodd;stroke:#000000;stroke-width:0;stroke-linecap:round;stroke-linejoin:round;stroke-miterlimit:4;stroke-dashoffset:0;stroke-opacity:1;marker:none;enable-background:accumulate"
       d="m 34.95679,26.076524 110.2857,-0.448416 0.32772,74.583292 c -1.46327,10.85351 2.4391,23.98508 -12.42013,24.58301 H 46.209218 C 31.53067,124.92377 34.771135,114.57738 35.284512,98.866164 Z"
       id="rect2388"
       sodipodi:nodetypes="ccccccc" /><path
       style="opacity:0.805147;fill:url(#linearGradient3209);fill-opacity:1;fill-rule:evenodd;stroke:none;stroke-width:1"
       d="m 29.180513,15.120545 c 3.522301,4.054095 5.276315,8.108189 4.921589,12.162283 l -0.656213,82.946782 c -1.062411,12.85456 7.050324,12.85516 21.983096,12.40551 -10.670592,-3.44124 -8.356353,-9.70243 -8.530753,-17.27042 L 46.242018,24.607126 c 0.01479,-5.26083 -7.562856,-8.522147 -17.061505,-9.486581 z"
       id="path3201"
       sodipodi:nodetypes="ccccccc" /><path
       sodipodi:nodetypes="ccccccc"
       id="path3211"
       d="m 147.8156,12.96603 c -2.46272,4.054094 -3.68909,8.108188 -3.44106,12.162283 l 0.45881,82.946757 c 0.25558,12.12484 -7.20319,13.34166 -15.37013,12.40553 6.81102,-1.4953 5.84258,-9.70244 5.96453,-17.27043 l 0.45881,-80.75756 c -0.01,-5.260829 5.2878,-8.522147 11.92904,-9.48658 z"
       style="opacity:0.808824;fill:url(#linearGradient3213);fill-opacity:1;fill-rule:evenodd;stroke:none;stroke-width:1" /><path
       d="m 31.834934,126.60392 c 0.203899,-0.001 0.407799,-0.002 0.617878,-0.004 0.688741,-0.003 1.377348,-0.002 2.066097,-8.2e-4 0.496569,-0.001 0.993136,-0.003 1.489699,-0.005 1.36885,-0.005 2.737663,-0.005 4.106522,-0.005 1.474605,-4.9e-4 2.949198,-0.005 4.423794,-0.009 3.058234,-0.007 6.116461,-0.01 9.174708,-0.0115 0.166275,-9e-5 0.332545,-1.6e-4 0.503859,-3.3e-4 0.166601,-8e-5 0.333205,-1.6e-4 0.504853,-3.2e-4 1.844924,-9.8e-4 3.689845,-0.003 5.534764,-0.005 5.570542,-0.006 11.14108,-0.0118 16.71163,-0.0127 0.267346,-4e-5 0.267346,-4e-5 0.540093,-9e-5 0.722315,-1.2e-4 1.44463,-1.6e-4 2.166949,-3.2e-4 0.543678,-9e-5 1.08736,-1.7e-4 1.631041,-3.3e-4 0.179651,-3e-5 0.359304,-6e-5 0.5444,-9e-5 5.645884,-9.8e-4 11.291709,-0.008 16.937574,-0.02 6.340085,-0.0133 12.680135,-0.021 19.020245,-0.0211 0.67579,-4e-5 1.35157,-9e-5 2.02735,-1.6e-4 0.1664,-1e-5 0.3328,-3e-5 0.50425,-4e-5 2.68031,-3.3e-4 5.36056,-0.006 8.04086,-0.0136 2.69283,-0.007 5.38557,-0.009 8.07842,-0.004 1.45951,0.002 2.91881,0.002 4.37829,-0.005 1.33519,-0.007 2.67003,-0.006 4.00523,9.8e-4 0.4839,10e-4 0.96784,-4.9e-4 1.45171,-0.005 3.60729,-0.0324 3.60729,-0.0324 4.61735,0.55027 0.39168,0.42438 0.62437,0.79381 0.83776,1.29079 0.0959,0.17096 0.19178,0.34191 0.29058,0.51805 0.14317,0.55835 0.17126,1.07644 0.17315,1.64668 0.002,0.23789 0.004,0.47578 0.005,0.72087 -1.4e-4,0.26203 -3.2e-4,0.52406 -4.8e-4,0.78608 0.001,0.27724 0.003,0.55447 0.004,0.8317 0.004,0.75193 0.005,1.50385 0.005,2.25578 1.6e-4,0.47035 0.001,0.94069 0.002,1.41104 0.004,1.64255 0.005,3.28509 0.005,4.92764 -1.6e-4,1.5283 0.004,3.05655 0.0105,4.58484 0.005,1.31422 0.008,2.62843 0.007,3.94266 -1e-4,0.78397 10e-4,1.56791 0.005,2.35188 0.004,0.73805 0.004,1.47604 0.001,2.21411 -3.2e-4,0.26975 4.7e-4,0.5395 0.003,0.80923 0.0165,1.91822 -0.25584,3.45887 -1.56022,5.0951 -0.15265,0.19455 -0.15265,0.19455 -0.30838,0.39304 -0.22759,0.27835 -0.45774,0.55537 -0.68865,0.83198 -0.13498,0 -0.26996,0 -0.40904,0 -0.0675,0.16171 -0.13498,0.32341 -0.20452,0.49001 -1.52297,0.91858 -3.54216,2.12338 -5.52201,2.12338 0.009,0.1735 0.019,0.34699 0.0288,0.52575 0.0757,2.36673 0.0757,2.36673 -0.84683,3.39433 -1.21248,1.01338 -2.63445,1.3246 -4.33969,1.3701 -0.4817,0.003 -0.96345,0.004 -1.44517,0.002 -0.38521,0 -0.38521,0 -0.7782,0.002 -0.54058,0 -1.08117,0 -1.62174,-0.003 -0.82493,-0.003 -1.64964,-2e-5 -2.47456,0.003 -0.52687,0 -1.05375,-0.002 -1.58062,-0.002 -0.36788,0.002 -0.36788,0.002 -0.74319,0.003 -1.79548,-0.0119 -3.26173,-0.16809 -4.60546,-1.21144 -1.15679,-1.18781 -1.22712,-2.0819 -1.22712,-3.5934 -22.54207,0 -45.084149,0 -68.309318,0 0,0.59291 0,1.18582 0,1.7967 -0.582731,1.28448 -1.494356,1.98508 -2.99109,2.58276 -0.910197,0.25577 -1.734376,0.37689 -2.697642,0.38621 -0.189864,0.002 -0.379729,0.004 -0.575345,0.006 -0.304558,0.002 -0.304558,0.002 -0.61527,0.004 -0.2116,0.002 -0.423198,0.003 -0.641208,0.004 -0.447469,0.002 -0.894941,0.004 -1.342416,0.005 -0.455186,0.002 -0.910369,0.005 -1.365522,0.01 -0.660414,0.007 -1.320662,0.01 -1.981127,0.0113 -0.200969,0.003 -0.40194,0.006 -0.608999,0.009 -1.694593,-0.004 -3.017327,-0.35364 -4.437667,-1.08885 -1.340093,-1.1467 -1.440655,-2.23239 -1.383696,-3.76759 0.0095,-0.14803 0.01898,-0.29605 0.02876,-0.44854 -0.244655,-0.0303 -0.489311,-0.0606 -0.741381,-0.0919 -2.772532,-0.50213 -5.348874,-1.88259 -6.94617,-3.76889 -1.290846,-1.72601 -1.459943,-3.41852 -1.4436,-5.37841 -0.0014,-0.28249 -0.0032,-0.565 -0.0055,-0.84749 -0.0046,-0.76099 -0.0029,-1.52189 3.18e-4,-2.28288 0.0026,-0.79948 1.59e-4,-1.59895 -0.0014,-2.39843 -0.0018,-1.34154 4.77e-4,-2.68304 0.0055,-4.02457 0.0056,-1.54791 0.0038,-3.09574 -0.0018,-4.64365 -0.0046,-1.33311 -0.0053,-2.6662 -0.0026,-3.99932 0.0016,-0.79445 0.0018,-1.58886 -0.0016,-2.38331 -0.003,-0.74667 -9.54e-4,-1.49323 0.005,-2.23989 0.0014,-0.27297 0.0011,-0.54596 -0.0013,-0.81893 -0.01132,-1.50033 0.0065,-2.79398 1.158256,-4.03646 0.100351,-0.11271 0.200705,-0.22541 0.304097,-0.34152 0.773501,-0.46929 1.559113,-0.40295 2.492008,-0.39684 z"
       style="fill:#172b34;stroke-width:0.999999"
       id="path255" /><path
       d="m 31.834934,126.60392 c 0.203899,-0.001 0.407799,-0.002 0.617878,-0.004 0.688741,-0.003 1.377348,-0.002 2.066097,-8.2e-4 0.496569,-0.001 0.993136,-0.003 1.489699,-0.005 1.36885,-0.005 2.737663,-0.005 4.106522,-0.005 1.474605,-4.9e-4 2.949198,-0.005 4.423794,-0.009 3.058234,-0.007 6.116461,-0.01 9.174708,-0.0115 0.166275,-9e-5 0.332545,-1.6e-4 0.503859,-3.3e-4 0.166601,-8e-5 0.333205,-1.6e-4 0.504853,-3.2e-4 1.844924,-9.8e-4 3.689845,-0.003 5.534764,-0.005 5.570542,-0.006 11.14108,-0.0118 16.71163,-0.0127 0.267346,-4e-5 0.267346,-4e-5 0.540093,-9e-5 0.722315,-1.2e-4 1.44463,-1.6e-4 2.166949,-3.2e-4 0.543678,-9e-5 1.08736,-1.7e-4 1.631041,-3.3e-4 0.179651,-3e-5 0.359304,-6e-5 0.5444,-9e-5 5.645884,-9.8e-4 11.291709,-0.008 16.937574,-0.02 6.340085,-0.0133 12.680135,-0.021 19.020245,-0.0211 0.67579,-4e-5 1.35157,-9e-5 2.02735,-1.6e-4 0.1664,-1e-5 0.3328,-3e-5 0.50425,-4e-5 2.68031,-3.3e-4 5.36056,-0.006 8.04086,-0.0136 2.69283,-0.007 5.38557,-0.009 8.07842,-0.004 1.45951,0.002 2.91881,0.002 4.37829,-0.005 1.33519,-0.007 2.67003,-0.006 4.00523,9.8e-4 0.4839,10e-4 0.96784,-4.9e-4 1.45171,-0.005 3.60729,-0.0324 3.60729,-0.0324 4.61735,0.55027 0.39168,0.42438 0.62437,0.79381 0.83776,1.29079 0.0959,0.17096 0.19178,0.34191 0.29058,0.51805 0.14317,0.55835 0.17126,1.07644 0.17315,1.64668 0.002,0.23789 0.004,0.47578 0.005,0.72087 -1.4e-4,0.26203 -3.2e-4,0.52406 -4.8e-4,0.78608 0.001,0.27724 0.003,0.55447 0.004,0.8317 0.004,0.75193 0.005,1.50385 0.005,2.25578 1.6e-4,0.47035 0.001,0.94069 0.002,1.41104 0.004,1.64255 0.005,3.28509 0.005,4.92764 -1.6e-4,1.5283 0.004,3.05655 0.0105,4.58484 0.005,1.31422 0.008,2.62843 0.007,3.94266 -1e-4,0.78397 10e-4,1.56791 0.005,2.35188 0.004,0.73805 0.004,1.47604 0.001,2.21411 -3.2e-4,0.26975 4.7e-4,0.5395 0.003,0.80923 0.0165,1.91822 -0.25584,3.45887 -1.56022,5.0951 -0.15265,0.19455 -0.15265,0.19455 -0.30838,0.39304 -0.22759,0.27835 -0.45774,0.55537 -0.68865,0.83198 -0.13498,0 -0.26996,0 -0.40904,0 -0.0675,0.16171 -0.13498,0.32341 -0.20452,0.49001 -1.52297,0.91858 -3.54216,2.12338 -5.52201,2.12338 0.009,0.1735 0.019,0.34699 0.0288,0.52575 0.0757,2.36673 0.0757,2.36673 -0.84683,3.39433 -1.21248,1.01338 -2.63445,1.3246 -4.33969,1.3701 -0.4817,0.003 -0.96345,0.004 -1.44517,0.002 -0.38521,0 -0.38521,0 -0.7782,0.002 -0.54058,0 -1.08117,0 -1.62174,-0.003 -0.82493,-0.003 -1.64964,-2e-5 -2.47456,0.003 -0.52687,0 -1.05375,-0.002 -1.58062,-0.002 -0.36788,0.002 -0.36788,0.002 -0.74319,0.003 -1.79548,-0.0119 -3.26173,-0.16809 -4.60546,-1.21144 -1.15679,-1.18781 -1.22712,-2.0819 -1.22712,-3.5934 -22.54207,0 -45.084149,0 -68.309318,0 0,0.59291 0,1.18582 0,1.7967 -0.582731,1.28448 -1.494356,1.98508 -2.99109,2.58276 -0.910197,0.25577 -1.734376,0.37689 -2.697642,0.38621 -0.189864,0.002 -0.379729,0.004 -0.575345,0.006 -0.304558,0.002 -0.304558,0.002 -0.61527,0.004 -0.2116,0.002 -0.423198,0.003 -0.641208,0.004 -0.447469,0.002 -0.894941,0.004 -1.342416,0.005 -0.455186,0.002 -0.910369,0.005 -1.365522,0.01 -0.660414,0.007 -1.320662,0.01 -1.981127,0.0113 -0.200969,0.003 -0.40194,0.006 -0.608999,0.009 -1.694593,-0.004 -3.017327,-0.35364 -4.437667,-1.08885 -1.340093,-1.1467 -1.440655,-2.23239 -1.383696,-3.76759 0.0095,-0.14803 0.01898,-0.29605 0.02876,-0.44854 -0.244655,-0.0303 -0.489311,-0.0606 -0.741381,-0.0919 -2.772532,-0.50213 -5.348874,-1.88259 -6.94617,-3.76889 -1.290846,-1.72601 -1.459943,-3.41852 -1.4436,-5.37841 -0.0014,-0.28249 -0.0032,-0.565 -0.0055,-0.84749 -0.0046,-0.76099 -0.0029,-1.52189 3.18e-4,-2.28288 0.0026,-0.79948 1.59e-4,-1.59895 -0.0014,-2.39843 -0.0018,-1.34154 4.77e-4,-2.68304 0.0055,-4.02457 0.0056,-1.54791 0.0038,-3.09574 -0.0018,-4.64365 -0.0046,-1.33311 -0.0053,-2.6662 -0.0026,-3.99932 0.0016,-0.79445 0.0018,-1.58886 -0.0016,-2.38331 -0.003,-0.74667 -9.54e-4,-1.49323 0.005,-2.23989 0.0014,-0.27297 0.0011,-0.54596 -0.0013,-0.81893 -0.01132,-1.50033 0.0065,-2.79398 1.158256,-4.03646 0.100351,-0.11271 0.200705,-0.22541 0.304097,-0.34152 0.773501,-0.46929 1.559113,-0.40295 2.492008,-0.39684 z m -0.546326,2.69834 c -0.06416,0.42535 -0.06416,0.42535 -0.05607,0.93033 -0.0021,0.19803 -0.0041,0.39607 -0.0062,0.6001 -1.36e-4,0.21848 -1.59e-4,0.43696 -3.18e-4,0.66206 -0.0016,0.22923 -0.0034,0.45846 -0.0052,0.69464 -0.0041,0.63051 -0.0063,1.26099 -0.0073,1.8915 -9.54e-4,0.39451 -0.0021,0.78901 -0.0035,1.18351 -0.005,1.37816 -0.0077,2.75631 -0.0084,4.13447 -9.54e-4,1.28112 -0.0068,2.56217 -0.01542,3.84327 -0.0071,1.1017 -0.01025,2.20339 -0.0104,3.30511 -1.59e-4,0.65711 -0.0018,1.31416 -0.0078,1.97126 -0.0064,0.73536 -0.0045,1.47057 -0.0021,2.20594 -0.003,0.21485 -0.0061,0.42969 -0.0092,0.65104 0.01984,2.01828 0.674878,3.70438 2.465369,5.16764 1.919375,1.31555 4.132279,2.07611 6.6653,2.05806 0.176641,0 0.353282,0.002 0.535278,0.002 0.589853,0.002 1.179613,9e-5 1.769469,-0.002 0.427982,0 0.855963,0.002 1.283945,0.002 1.17454,0.002 2.349049,0.002 3.523587,0 1.267281,-0.002 2.534559,0 3.801838,0.002 2.482004,0.002 4.963995,0.002 7.445998,0 2.017049,-0.002 4.034096,-0.002 6.051147,0 0.287,8e-5 0.573999,0 0.869696,0 0.583018,1.6e-4 1.166041,0 1.749061,0 5.312005,0.002 10.624005,-5e-5 15.936011,-0.003 4.848326,-0.002 9.696644,-0.002 14.544972,1.6e-4 5.448239,0.003 10.896479,0.004 16.344719,0.002 0.58088,-1.4e-4 1.16177,0 1.74265,0 0.28581,-6e-5 0.57162,-1.4e-4 0.8661,-1.6e-4 2.01479,0 4.02958,0 6.04437,0.002 2.45512,0.002 4.91023,0.002 7.36534,-0.002 1.25281,-0.002 2.50559,-0.002 3.7584,-1.6e-4 1.14673,0.002 2.29342,0 3.44014,-0.002 0.41494,0 0.82987,0 1.2448,0.002 0.56408,0.002 1.12804,-3e-5 1.69211,-0.002 0.161,0.002 0.32199,0.002 0.48787,0.003 2.03022,-0.0163 4.22757,-0.64908 5.74842,-1.73614 1.50256,-1.26884 2.3774,-2.58648 2.38091,-4.36572 9.6e-4,-0.19924 0.002,-0.39848 0.003,-0.60375 -9e-5,-0.21808 -1.6e-4,-0.43617 -1.6e-4,-0.66086 4.8e-4,-0.23005 0.001,-0.4601 0.002,-0.69712 0.002,-0.63072 0.002,-1.26144 0.002,-1.89216 1.6e-4,-0.52649 0.001,-1.05297 0.002,-1.57945 0.002,-1.24186 0.002,-2.48373 0.002,-3.72559 -1.2e-4,-1.2815 0.002,-2.56299 0.005,-3.84449 0.003,-1.10016 0.004,-2.20032 0.004,-3.30048 -6e-5,-0.65713 4.7e-4,-1.31425 0.003,-1.97138 0.002,-0.73245 0.001,-1.46489 1.6e-4,-2.19735 0.002,-0.32713 0.002,-0.32713 0.003,-0.66087 -9.5e-4,-0.19923 -0.002,-0.39846 -0.003,-0.60373 1.6e-4,-0.25981 1.6e-4,-0.25981 3.2e-4,-0.52486 -0.0226,-0.50257 -0.0226,-0.50257 -0.45994,-1.10179 -0.70054,-0.27974 -1.50479,-0.18574 -2.27564,-0.18435 -0.29524,-4.9e-4 -0.29524,-4.9e-4 -0.59645,-8.2e-4 -0.6671,-8.1e-4 -1.33419,-3.2e-4 -2.00129,4e-5 -0.48007,-3.2e-4 -0.96014,-6.5e-4 -1.44021,-0.001 -1.3251,-9.8e-4 -2.6502,-9.8e-4 -3.9753,-8.2e-4 -1.42677,4e-5 -2.85353,-8.1e-4 -4.2803,-0.002 -2.79737,-0.001 -5.59474,-0.002 -8.39211,-0.002 -2.27246,-8e-5 -4.54491,-3.3e-4 -6.81736,-9.8e-4 -0.65331,-1.5e-4 -1.30662,-3.3e-4 -1.95993,-4.9e-4 -0.2436,-6e-5 -0.2436,-6e-5 -0.49212,-1.1e-4 -4.56984,-9.8e-4 -9.13968,-0.002 -13.70952,-0.002 -0.1724,0 -0.3448,0 -0.52243,0 -0.87387,2e-5 -1.74775,3e-5 -2.621629,5e-5 -0.173565,0 -0.347133,1e-5 -0.525957,1e-5 -0.350995,1e-5 -0.701987,1e-5 -1.052982,2e-5 -5.463173,1e-4 -10.926347,-0.001 -16.389522,-0.003 -6.132668,-0.002 -12.265335,-0.004 -18.398,-0.004 -0.653313,1e-5 -1.306625,2e-5 -1.959936,2e-5 -0.160871,1e-5 -0.321744,1e-5 -0.487489,1e-5 -2.594176,0 -5.188351,-9.8e-4 -7.782527,-0.002 -2.604865,-0.001 -5.209729,-0.001 -7.814597,-4.9e-4 -1.412496,4.9e-4 -2.824987,4.9e-4 -4.237481,-8.2e-4 -1.291018,-0.001 -2.582018,-9.8e-4 -3.873036,3.3e-4 -0.469038,1.6e-4 -0.938076,-6e-5 -1.407111,-9.8e-4 -0.633613,-0.001 -1.267171,-3.3e-4 -1.900781,0.001 -0.185507,-8.1e-4 -0.371015,-0.002 -0.562143,-0.002 -0.955349,-0.0326 -0.955349,-0.0326 -1.713496,0.36978 z"
       style="fill:#041827;stroke-width:0.999999"
       id="path257" /><path
       d="m 127.4876,138.57609 c 2.39551,1.57495 3.65663,3.81559 4.01528,6.24316 0.21499,3.0475 -1.14588,5.7441 -3.65417,8.02392 -1.99945,1.53515 -4.91582,2.43489 -7.65828,2.49088 -3.12718,-0.0627 -5.77089,-0.7955 -8.07849,-2.52151 -2.77085,-2.34536 -3.63732,-4.92562 -3.5719,-8.07815 0.17249,-2.22534 1.66166,-4.47638 3.73807,-5.9586 4.62654,-2.73958 10.51269,-3.01608 15.20949,-0.1997 z"
       style="fill:#071b2c;stroke-width:0.999999"
       id="path261" /><path
       d="m 63.193562,138.28578 c 2.398245,1.40649 3.903003,3.21822 4.499418,5.55345 0.402157,2.97061 -0.318523,5.75428 -2.56927,8.17704 -1.894958,1.80979 -4.205126,2.7587 -7.043122,3.25653 -3.443056,0.22847 -6.412577,-0.36171 -9.101891,-2.13422 -2.699109,-2.0389 -3.912703,-4.56304 -4.051233,-7.49244 0.09275,-2.68856 1.37699,-4.83906 3.745254,-6.70701 0.113103,-0.0939 0.226204,-0.18781 0.342729,-0.28457 3.929477,-3.00585 9.902216,-2.409 14.178115,-0.36878 z"
       style="fill:#061b2d;stroke-width:0.999999"
       id="path263" /><path
       d="m 33.00171,128.93216 c 0.278174,10e-4 0.278174,10e-4 0.561968,0.002 0.196765,-4.9e-4 0.393532,-9.8e-4 0.596262,-0.001 0.666902,-10e-4 1.33377,-5e-5 2.000672,0.001 0.479923,-3.2e-4 0.959846,-8.1e-4 1.439771,-0.001 1.324712,-10e-4 2.64941,-6.5e-4 3.974122,3.3e-4 1.426354,8.2e-4 2.852703,-3.3e-4 4.279056,-0.001 2.63476,-0.001 5.269512,-0.001 7.904273,-3.2e-4 2.433825,8.1e-4 4.867646,9.8e-4 7.301472,6.5e-4 0.161214,-2e-5 0.322427,-5e-5 0.488525,-7e-5 0.654362,-1.1e-4 1.308724,-1.7e-4 1.963086,-3.3e-4 6.143202,-9.8e-4 12.286403,-9e-5 18.429603,0.002 5.461806,0.001 10.923607,0.001 16.38541,-1.5e-4 6.1314,-0.002 12.26279,-0.002 18.39419,-0.001 0.65326,1.1e-4 1.30651,1.7e-4 1.95977,3.3e-4 0.24129,4e-5 0.24129,4e-5 0.48745,8e-5 2.43258,3.3e-4 4.86515,-6e-5 7.29772,-8.2e-4 2.76522,-9.8e-4 5.53042,-6.5e-4 8.29563,0.001 1.41211,8.1e-4 2.82421,10e-4 4.23632,1.1e-4 1.2909,-9.8e-4 2.58179,-4.9e-4 3.87269,0.001 0.46877,3.2e-4 0.93753,1.6e-4 1.4063,-6.6e-4 0.63373,-9.8e-4 1.26742,2e-5 1.90115,10e-4 0.18497,-8.1e-4 0.36994,-10e-4 0.56052,-0.002 1.26121,0.006 1.26121,0.006 1.94481,0.3701 0.0675,0.48511 0.13498,0.97022 0.20451,1.47003 -57.300064,0.0809 -57.300064,0.0809 -115.75771,0.16334 -2.425222,13.78264 -2.425222,13.78264 1.840669,25.64387 0.703844,0.53447 1.461694,1.0169 2.249711,1.47003 -1.803895,-0.20767 -3.408482,-1.22789 -4.529707,-2.34021 -1.334696,-1.53826 -1.549663,-3.1622 -1.523924,-4.98486 -9.54e-4,-0.23238 -0.0016,-0.46476 -0.0024,-0.70419 -0.0021,-0.63032 0.0022,-1.26052 0.0079,-1.89082 0.0049,-0.66166 0.0043,-1.32332 0.0044,-1.98499 0.0011,-1.10865 0.0057,-2.21725 0.01318,-3.32588 0.0086,-1.28219 0.01213,-2.56434 0.01281,-3.84655 9.54e-4,-1.3675 0.0046,-2.73499 0.0096,-4.10249 0.0013,-0.39375 0.0021,-0.78749 0.0027,-1.18124 0.0014,-0.7312 0.0064,-1.46237 0.01184,-2.19355 1.59e-4,-0.32772 1.59e-4,-0.32772 3.18e-4,-0.66206 0.0021,-0.19803 0.0041,-0.39606 0.0062,-0.6001 0.0011,-0.1728 0.0018,-0.3456 0.0029,-0.52363 0.114961,-0.87903 0.829875,-0.77223 1.766288,-0.7768 z"
       style="fill:#a5b4bf;stroke-width:0.999999"
       id="path265" /><path
       d="m 128.63962,136.48908 c 1.59342,0.99128 2.672,2.04349 3.68134,3.43007 0.13867,0.15412 0.27735,0.30825 0.42023,0.46704 0.44576,0.57476 0.6411,1.08324 0.84523,1.738 0.0662,0.20719 0.13235,0.41437 0.20053,0.62783 0.95976,3.3683 0.14397,6.32595 -1.67051,9.41738 -0.13498,0 -0.26996,0 -0.40903,0 -0.0759,0.17528 -0.0759,0.17528 -0.1534,0.35412 -0.284,0.51387 -0.63291,0.89346 -1.07372,1.33029 -0.21513,0.21634 -0.21513,0.21634 -0.4346,0.43706 -0.12655,0.10844 -0.25309,0.21686 -0.38347,0.32858 -0.13499,0 -0.26997,0 -0.40904,0 -0.20248,0.32341 -0.20248,0.32341 -0.40904,0.65335 -0.48174,0.32667 -0.48174,0.32667 -1.06094,0.65335 -0.28275,0.1617 -0.28275,0.1617 -0.57122,0.32667 -3.08907,1.63407 -6.71097,2.03913 -10.3346,1.51405 -3.79274,-0.69421 -6.47583,-2.59954 -8.72001,-5.10873 -0.34126,-0.44044 -0.60342,-0.8548 -0.83885,-1.33605 -0.0685,-0.13707 -0.13709,-0.27414 -0.20771,-0.41536 -0.1502,-0.3707 -0.1502,-0.3707 -0.1502,-0.86071 -0.13498,0 -0.26996,0 -0.40903,0 -1.02465,-3.44376 -1.09054,-6.96976 1.07372,-10.15877 2.05768,-2.63375 5.06936,-4.38891 8.79272,-5.22678 4.18489,-0.66794 8.73085,-0.18288 12.2216,1.82861 z m -16.97507,2.77672 c -1.90446,1.75538 -3.15644,3.81887 -3.11891,6.16596 0.002,0.1302 0.004,0.2604 0.006,0.39455 0.0672,2.64249 1.1394,4.91751 3.494,6.82672 0.14421,0.1099 0.28842,0.21981 0.437,0.33306 0.16886,0.1396 0.16886,0.1396 0.34113,0.28201 2.15293,1.65573 5.18179,2.10298 8.05693,2.06595 2.99516,-0.22782 5.84605,-1.39019 7.76692,-3.23165 1.61286,-1.70119 2.73451,-3.65899 2.85528,-5.81312 0.0169,-0.22571 0.0337,-0.45142 0.0511,-0.68397 -0.0595,-2.48709 -1.27109,-4.85081 -3.43688,-6.6362 -2.76868,-1.97451 -5.84427,-2.429 -9.43583,-2.33895 -2.6896,0.12676 -5.09909,1.16427 -7.01676,2.63564 z"
       style="fill:#061927;stroke-width:0.999999"
       id="path267" /><path
       d="m 61.761929,135.18238 c 0.357495,0.11623 0.357495,0.11623 0.722209,0.2348 2.259184,0.81584 4.090762,2.00113 5.413359,3.68528 0.09069,0.11075 0.181383,0.2215 0.274823,0.33561 1.621431,2.03865 2.297981,3.91534 2.268882,6.34078 -0.0021,0.18675 -0.004,0.37349 -0.006,0.5659 -0.08845,3.36366 -1.997518,6.41248 -4.991898,8.76471 -0.30371,0.0808 -0.30371,0.0808 -0.613557,0.16334 -0.06749,0.1617 -0.134981,0.32341 -0.204517,0.49001 -3.358918,1.88773 -6.883539,2.41755 -10.890635,1.909 -0.22845,-0.0288 -0.22845,-0.0288 -0.461513,-0.0581 -1.86737,-0.25958 -3.292126,-0.81459 -4.804849,-1.68751 -0.265746,-0.1516 -0.265746,-0.1516 -0.536862,-0.30626 -0.953544,-0.68138 -1.753081,-1.39138 -2.326402,-2.30713 -0.134983,0 -0.269965,0 -0.409037,0 -2.361462,-3.31994 -3.718391,-6.56045 -2.620399,-10.41272 0.11384,-0.2884 0.237391,-0.57448 0.370688,-0.85752 0.07197,-0.16296 0.143948,-0.32593 0.218102,-0.49383 0.553081,-1.1575 1.281486,-2.12638 2.236126,-3.09957 0.16728,-0.17402 0.16728,-0.17402 0.337936,-0.35156 0.89986,-0.881 1.941419,-1.49261 3.138887,-2.09849 0.140255,-0.0758 0.280508,-0.1516 0.425016,-0.2297 3.440008,-1.71969 8.774259,-1.81094 12.459675,-0.58699 z m -10.021427,2.12338 c -0.187972,0.0655 -0.375946,0.13096 -0.569618,0.19843 -2.688526,1.04187 -4.553257,2.88372 -5.597105,5.08768 -0.961082,2.38756 -0.860665,5.08253 0.547248,7.34122 1.719765,2.5035 3.814592,4.26749 7.319539,5.17637 2.98412,0.53116 5.996964,0.20906 8.657701,-0.98895 3.005584,-1.58563 4.609824,-3.6378 5.50923,-6.40012 0.486044,-2.56485 0.167562,-5.11068 -1.691277,-7.29082 -2.029766,-2.03083 -4.581721,-3.36994 -7.835632,-3.77716 -2.206934,-0.16659 -4.306026,-0.0988 -6.340086,0.65335 z"
       style="fill:#071926;stroke-width:0.999999"
       id="path269" /><path
       d="m 63.193562,138.28578 c 2.398245,1.40649 3.903003,3.21822 4.499418,5.55345 0.402157,2.97061 -0.318523,5.75428 -2.56927,8.17704 -1.894958,1.80979 -4.205126,2.7587 -7.043122,3.25653 -3.443056,0.22847 -6.412577,-0.36171 -9.101891,-2.13422 -2.699109,-2.0389 -3.912703,-4.56304 -4.051233,-7.49244 0.09275,-2.68856 1.37699,-4.83906 3.745254,-6.70701 0.113103,-0.0939 0.226204,-0.18781 0.342729,-0.28457 3.929477,-3.00585 9.902216,-2.409 14.178115,-0.36878 z m -13.779463,2.71547 c -1.551224,1.69006 -2.017005,3.37951 -1.763975,5.45137 0.414756,2.13662 1.654926,3.91155 3.820349,5.23507 2.245281,1.19958 4.647217,1.43702 7.302764,1.02851 2.416402,-0.57574 4.211694,-1.90246 5.49405,-3.60936 1.177099,-2.07465 1.366866,-4.34209 0.379479,-6.48051 -1.137029,-2.06323 -3.28088,-3.23603 -5.812014,-4.07513 -3.525369,-0.4772 -7.02909,0.25088 -9.420653,2.45005 z"
       style="fill:#edf5f9;stroke-width:0.999999"
       id="path271" /><path
       d="m 127.4876,138.57609 c 2.39551,1.57495 3.65663,3.81559 4.01528,6.24316 0.21499,3.0475 -1.14588,5.7441 -3.65417,8.02392 -1.99945,1.53515 -4.91582,2.43489 -7.65828,2.49088 -3.12718,-0.0627 -5.77089,-0.7955 -8.07849,-2.52151 -2.77085,-2.34536 -3.63732,-4.92562 -3.5719,-8.07815 0.17249,-2.22534 1.66166,-4.47638 3.73807,-5.9586 4.62654,-2.73958 10.51269,-3.01608 15.20949,-0.1997 z m -14.90272,2.80735 c -1.44664,1.56754 -1.73708,3.33186 -1.53389,5.23251 0.52246,2.08864 1.69235,3.82012 3.88586,5.06344 2.31657,1.08041 4.44241,1.41474 7.12781,1.06808 2.39776,-0.51674 4.48332,-1.7427 5.72972,-3.46326 1.13655,-1.87172 1.48624,-3.96568 0.81968,-5.99624 -0.92631,-2.04127 -2.5469,-3.42065 -4.99394,-4.34757 -4.15066,-1.35968 -8.23991,-0.23901 -11.03524,2.44304 z"
       style="fill:#edf4f9;stroke-width:0.999999"
       id="path273" /><path
       d="m 83.077438,140.50614 c 1.722354,0.69647 2.5087,1.80354 3.303458,3.15954 0.427344,1.67234 0.0739,3.09736 -1.04816,4.5326 -1.139452,1.27713 -2.411836,1.98863 -4.346026,2.33775 -1.892459,0.18212 -3.300781,0.0117 -4.908454,-0.81668 0,-0.1078 0,-0.2156 0,-0.32667 -0.269966,-0.0539 -0.53993,-0.1078 -0.818077,-0.16334 -0.31956,-0.38792 -0.31956,-0.38792 -0.613557,-0.81668 -0.202472,-0.16171 -0.404947,-0.32341 -0.613556,-0.49001 -0.885724,-1.33616 -0.882003,-2.94767 -0.479342,-4.40627 0.692907,-1.54088 2.180121,-2.74689 4.018479,-3.45112 1.852842,-0.49111 3.766242,-0.16515 5.505235,0.44088 z"
       style="fill:#071a27;stroke-width:0.999999"
       id="path275" /><path
       d="m 53.172136,141.38918 c 1.022594,0.89446 1.022594,0.89446 1.022594,1.30669 0.134983,0 0.269964,0 0.409038,0 0.28872,0.26081 0.563243,0.53169 0.830857,0.80648 0.755891,0.75581 1.549925,1.44021 2.41668,2.11444 0.530889,0.42321 1.014858,0.8719 1.502734,1.32648 0.633748,0.56968 1.316466,1.10048 1.998854,1.63272 -0.992745,1.00556 -1.873264,1.63988 -3.476822,1.96004 -1.892777,0.12449 -3.567505,0.14766 -5.112974,-0.81668 -1.609759,-1.22301 -2.435653,-2.72527 -2.582051,-4.49176 0.06659,-1.31244 0.895332,-2.53098 2.019623,-3.4709 0.562428,-0.36751 0.562428,-0.36751 0.971467,-0.36751 z"
       style="fill:#32b8fa;stroke-width:0.999999"
       id="path277" /><path
       d="m 31.288608,130.93563 c 0.607422,0 1.214844,0 1.840672,0 1.59e-4,0.11619 4.77e-4,0.23239 9.54e-4,0.3521 0.0076,2.83313 0.01968,5.66622 0.0367,8.49932 0.0081,1.3701 0.01475,2.74017 0.01781,4.11028 0.0027,1.19481 0.0082,2.38958 0.0171,3.58437 0.0046,0.63208 0.0078,1.26411 0.0076,1.8962 3.18e-4,0.70731 0.006,1.41448 0.01272,2.12177 -0.0011,0.20736 -0.0021,0.41473 -0.0031,0.62837 0.02399,1.64324 0.423506,3.14902 1.750918,4.45145 0.703844,0.53447 1.461693,1.0169 2.249707,1.47003 -1.80413,-0.20768 -3.407386,-1.22793 -4.529678,-2.33965 -1.292801,-1.49178 -1.549985,-3.07073 -1.517461,-4.84066 -1.5e-4,-0.21698 -1.59e-4,-0.43395 -3.18e-4,-0.6575 4.77e-4,-0.70971 0.0086,-1.41924 0.01669,-2.12892 0.0025,-0.495 0.0034,-0.99 0.0044,-1.48501 0.0032,-1.165 0.01153,-2.32994 0.02183,-3.49492 0.01148,-1.32764 0.01706,-2.65529 0.02219,-3.98296 0.01071,-2.72812 0.02867,-5.45619 0.05152,-8.18427 z"
       style="fill:#92a4ae;stroke-width:0.999999"
       id="path279" /><path
       d="m 99.597931,141.87919 c 0.101238,0.24255 0.101238,0.24255 0.20452,0.49001 0.134983,0 0.269969,0 0.409039,0 0.84834,1.02353 1.16049,1.71027 1.02259,2.94006 -0.0675,0.2156 -0.13498,0.43121 -0.20452,0.65335 -0.13498,0 -0.26996,0 -0.40903,0 0,0.1617 0,0.3234 0,0.49001 -0.13498,0 -0.26997,0 -0.40904,0 0,0.1617 0,0.3234 0,0.49001 -0.13498,0 -0.269967,0 -0.409039,0 0,0.1078 0,0.2156 0,0.32667 -1.462272,0.66809 -3.022116,0.70574 -4.649612,0.37708 -1.037689,-0.33233 -1.66645,-0.77255 -2.304032,-1.52044 -0.374753,-0.89787 -0.445289,-1.95456 -0.01199,-2.84627 0.643954,-0.85607 1.348453,-1.39469 2.491776,-1.7782 1.39947,-0.1983 2.970319,-0.1137 4.269332,0.37772 z"
       style="fill:#061b29;stroke-width:0.999999"
       id="path281" /><path
       d="m 112.27811,150.53603 c 0.72438,-0.0502 1.11182,-0.0603 1.72962,0.26287 0.23846,0.17308 0.23846,0.17308 0.48174,0.34965 2.1266,1.44515 4.27012,1.63188 6.99199,1.51086 1.79549,-0.23179 3.21633,-1.00466 4.70393,-1.7967 0,0.1078 0,0.2156 0,0.32667 1.01237,0 2.02474,0 3.06779,0 -1.27051,2.11758 -3.85657,3.14783 -6.53183,3.90987 -2.98173,0.62852 -6.14529,0.0908 -8.77434,-1.1057 -1.34598,-0.73747 -2.57131,-1.63216 -3.30506,-2.80417 0.33746,0 0.67492,0 1.0226,0 0,-0.1078 0,-0.2156 0,-0.32667 0.20247,0 0.40495,0 0.61356,0 0,-0.1078 0,-0.21561 0,-0.32668 z"
       style="fill:#b4c9d9;stroke-width:0.999999"
       id="path283" /><path
       d="m 62.580006,150.69937 c 0.101236,0.1617 0.101236,0.1617 0.204519,0.32667 0.621728,0.11326 0.621728,0.11326 1.342156,0.18376 0.367378,0.0411 0.367378,0.0411 0.742181,0.0829 0.189552,0.0198 0.379108,0.0396 0.574408,0.06 -1.087441,1.73694 -2.99271,2.75358 -5.200052,3.50535 -3.040016,0.7897 -6.078498,0.60931 -8.94291,-0.4849 -1.681161,-0.72804 -3.191524,-1.63449 -4.059222,-3.02045 1.052665,-0.56047 2.253416,-0.46731 3.476822,-0.32668 0.584634,0.24424 1.052999,0.52783 1.567445,0.85625 1.646861,0.98974 3.830834,0.91287 5.795235,0.77712 1.803262,-0.2797 3.203157,-0.92479 4.499418,-1.96004 z"
       style="fill:#b3c7d5;stroke-width:0.999999"
       id="path285" /><path
       d="m 123.0521,141.11355 c 1.23341,0.7164 2.39455,1.5595 2.92877,2.72568 0,0.1078 0,0.2156 0,0.32667 -0.29382,0.004 -0.29382,0.004 -0.59358,0.007 -0.73343,0.01 -1.46674,0.0221 -2.20008,0.0356 -0.31614,0.005 -0.63231,0.01 -0.94849,0.0137 -2.69325,-0.0245 -2.69325,-0.0245 -5.06574,0.86027 -0.10097,0.0916 -0.20195,0.18318 -0.30598,0.27755 -0.67604,0.57935 -1.34847,1.0966 -2.13467,1.58232 -0.26996,0 -0.53993,0 -0.81807,0 -0.51616,-0.82445 -0.32212,-2.02653 -0.0791,-2.90178 0.57826,-1.29391 1.65605,-2.4213 3.198,-3.06001 1.95037,-0.62305 4.1628,-0.72834 6.01893,0.13271 z"
       style="fill:#34b8f9;stroke-width:0.999999"
       id="path287" /><path
       d="m 81.191228,142.04252 c 1.025347,0.32944 1.670297,0.81409 2.364751,1.49045 0.455457,0.98054 0.590518,1.99415 0.09906,2.98664 -0.615216,0.83185 -1.332453,1.369 -2.412683,1.78075 -1.366549,0.23087 -2.347725,0.0819 -3.502388,-0.51042 -1.03567,-0.57662 -1.553406,-1.17389 -1.866235,-2.15401 -0.132266,-0.95069 0.136893,-1.67108 0.818077,-2.45005 1.397011,-1.14801 2.531659,-1.33079 4.499416,-1.14336 z"
       style="fill:#f1f8f9;stroke-width:0.999999"
       id="path289" /><path
       d="m 126.79895,164.41966 c 1.80975,-0.004 3.6195,-0.007 5.42926,-0.008 0.84025,-0.002 1.68051,-0.002 2.52077,-0.004 0.81022,-0.002 1.62045,-0.003 2.43069,-0.003 0.461,0 0.92201,-0.002 1.38301,-0.003 0.27842,-2e-5 0.55684,-2e-5 0.84369,-3e-5 0.24661,0 0.49322,0 0.7473,-0.002 0.55257,0.0197 0.55257,0.0197 0.75709,0.183 0.0783,0.81262 0.0349,1.3171 -0.61356,1.96005 -0.8787,0.50382 -1.70235,0.67224 -2.77444,0.67966 -0.18367,0.002 -0.36734,0.003 -0.55657,0.005 -0.29561,0.002 -0.29561,0.002 -0.59719,0.002 -0.20427,0.002 -0.40853,0.002 -0.61899,0.003 -0.43201,0.002 -0.86402,0.003 -1.29603,0.003 -0.65847,0.002 -1.3168,0.007 -1.97524,0.0118 -0.42035,0.002 -0.84071,0.002 -1.26106,0.003 -0.19583,0.002 -0.39167,0.004 -0.59343,0.006 -1.36141,-0.004 -2.34157,-0.20893 -3.50574,-0.80493 -0.37798,-0.47091 -0.35342,-0.68911 -0.33953,-1.23969 0.003,-0.14802 0.006,-0.29601 0.009,-0.44851 0.004,-0.11329 0.007,-0.22658 0.0112,-0.3433 z"
       style="fill:#0568ab;stroke-width:0.999999"
       id="path291" /><path
       d="m 39.673886,164.41966 c 4.386932,0 8.773862,0 13.293731,0 0,1.55169 0,1.55169 -0.613558,2.12337 -1.636351,0.77855 -3.301485,0.68376 -5.140236,0.68362 -0.503578,0 -1.007062,0.003 -1.510622,0.006 -4.136775,0.0122 -4.136775,0.0122 -5.543583,-0.78191 -0.485732,-0.56147 -0.485732,-0.56147 -0.485732,-2.0315 z"
       style="fill:#056bb4;stroke-width:0.999999"
       id="path293" /><path
       d="m 125.98087,146.28928 c -0.24693,1.53823 -1.13086,2.54325 -2.63398,3.52131 -1.4294,0.77577 -3.04059,0.88153 -4.7287,0.72544 -1.2583,-0.24931 -2.18604,-0.53077 -3.06778,-1.30669 2.23974,-3.57749 6.04964,-3.20967 10.43046,-2.94006 z"
       style="fill:#10a0f4;stroke-width:0.999999"
       id="path295" /><path
       d="m 50.922427,147.10596 c 0.269964,0.0539 0.539928,0.10781 0.818075,0.16334 0.06749,0.1078 0.134983,0.2156 0.204521,0.32667 1.555267,0.53072 3.511985,0.54701 5.131346,0.18567 0.331527,-0.10949 0.659601,-0.22625 0.981053,-0.35347 0.514027,-0.18895 0.885269,-0.30536 1.4548,-0.32221 0.502509,0.30562 0.502509,0.30562 0.984248,0.72481 0.161607,0.13791 0.323217,0.27582 0.489726,0.41791 0.12101,0.10801 0.24202,0.21603 0.366697,0.32731 -0.992745,1.00556 -1.873264,1.63988 -3.476822,1.96004 -1.887515,0.12415 -3.574384,0.15125 -5.112974,-0.81668 -1.008776,-0.80431 -1.687087,-1.45906 -1.84067,-2.61339 z"
       style="fill:#0c9ff5;stroke-width:0.999999"
       id="path297" /><path
       d="m 81.446877,143.46151 c 0.805819,0.54118 1.117361,0.91349 1.291026,1.74566 -0.162581,0.83676 -0.597107,1.14043 -1.342156,1.73546 -0.709799,0.28343 -1.479419,0.2379 -2.249709,0.16333 -0.889617,-0.35524 -1.485234,-0.71862 -1.840669,-1.47003 0,-0.8697 0.01223,-1.2708 0.677469,-1.96004 1.065252,-0.63312 2.296982,-0.69833 3.464039,-0.21438 z"
       style="fill:#40b0f8;stroke-width:0.999999"
       id="path299" /><path
       d="m 55.421843,140.73583 c 1.875268,-0.0684 3.359088,-0.008 4.946801,0.8371 1.143652,0.93366 2.037445,1.89823 2.032407,3.23611 9.54e-4,0.20939 9.54e-4,0.20939 0.0016,0.42302 -0.0272,0.40387 -0.0272,0.40387 -0.231722,1.05722 -0.807893,-0.32261 -1.123937,-0.55864 -1.700064,-1.09231 -0.55103,-0.50202 -1.102243,-0.99316 -1.700063,-1.45983 -0.750964,-0.59005 -1.437376,-1.21892 -2.121884,-1.85795 -0.179536,-0.16676 -0.179536,-0.16676 -0.362701,-0.33688 -0.288692,-0.26845 -0.576634,-0.53741 -0.864413,-0.80648 z"
       style="fill:#34b1f3;stroke-width:0.999999"
       id="path301" /><path
       d="m 121.38099,140.79006 c 0.14839,0.111 0.14839,0.111 0.29978,0.22425 -0.35818,0.51045 -0.71609,0.88657 -1.32644,1.21494 -0.749,0.0281 -1.41746,-0.0359 -2.15622,-0.13526 -0.85727,-0.0207 -1.17059,0.16023 -1.82311,0.59086 -0.71138,0.61086 -1.21369,1.24447 -1.70543,1.97429 -0.25013,0 -0.50026,0 -0.75797,0 -0.17504,-1.07556 0.35609,-1.75044 1.13695,-2.58176 1.41875,-1.27531 4.31223,-2.30742 6.33244,-1.28732 z"
       style="fill:#ecf9fb;stroke-width:0.999999"
       id="path303" /><path
       d="m 97.348223,143.18588 c 0.723733,0.26973 0.98388,0.44363 1.431634,0.98002 0.115082,0.70902 0.106063,1.02528 -0.421821,1.61295 -0.718763,0.41526 -1.147865,0.51043 -2.032407,0.51043 -0.730926,-0.25944 -0.983919,-0.44368 -1.431632,-0.98002 -0.107727,-0.76203 -0.129205,-1.1566 0.42182,-1.7967 0.753907,-0.40994 1.136078,-0.42894 2.032406,-0.32668 z"
       style="fill:#f41b1b;stroke-width:0.999999;fill-opacity:1"
       id="path305"
       inkscape:highlight-color="#cf7297" /><path
       d="m 137.0249,164.41966 c 0.60931,-0.004 1.21856,-0.008 1.82788,-0.0101 0.17387,-0.002 0.34774,-0.003 0.52688,-0.004 0.44223,-0.002 0.88448,0.006 1.32658,0.0144 0.20452,0.16334 0.20452,0.16334 0.25565,0.69418 -0.0546,0.65405 -0.1555,0.92439 -0.66469,1.4292 -1.09135,0.62576 -1.90961,0.65334 -3.2723,0.65334 0,-0.91632 0,-1.83263 0,-2.77672 z"
       style="fill:#0664a7;stroke-width:0.999999"
       id="path307" /><path
       d="m 140.18216,145.53385 c 0.94475,0.13237 1.33318,0.33671 1.95571,0.91877 0.14279,0.72984 0.11566,1.13303 -0.31956,1.78649 -0.6565,0.44364 -1.07535,0.50022 -1.93015,0.50022 -0.65459,-0.21386 -0.96205,-0.43038 -1.40607,-0.86773 -0.29807,-0.56869 -0.26914,-0.8354 -0.0256,-1.41898 0.53851,-0.58187 0.82813,-0.78845 1.72563,-0.91877 z"
       style="fill:#f4f7f7;stroke-width:0.999999"
       id="path309" /><path
       d="m 49.081756,164.41966 c 1.282333,0 2.564669,0 3.885861,0 0,1.55169 0,1.55169 -0.613558,2.12337 -1.194389,0.56828 -2.066668,0.65335 -3.47682,0.65335 0.06749,-0.91632 0.134981,-1.83264 0.204517,-2.77672 z"
       style="fill:#0663a5;stroke-width:0.999999"
       id="path311" /><path
       d="m 130.68481,165.72635 c 2.09223,0 4.18446,0 6.34009,0 0,0.48511 0,0.97022 0,1.47003 -2.09223,0 -4.18446,0 -6.34009,0 0,-0.48511 0,-0.97022 0,-1.47003 z"
       style="fill:#34ccfb;stroke-width:0.999999"
       id="path313" /><path
       d="m 140.91076,141.38918 c 0.55218,0.29399 0.9289,0.50369 1.22711,0.98002 0.0994,0.70124 0.0946,1.03242 -0.40904,1.62316 -0.81404,0.44696 -1.27974,0.44581 -2.24971,0.33688 -0.77738,-0.33024 -0.97384,-0.53654 -1.25267,-1.20461 0.0335,-0.77566 0.36536,-1.03949 1.04815,-1.57212 0.58355,-0.23301 0.98876,-0.21402 1.63616,-0.16333 z"
       style="fill:#f6f8f9;stroke-width:0.999999"
       id="path315" /><path
       d="m 42.946187,165.72635 c 2.024738,0 4.049477,0 6.135569,0 0,1.30669 0,1.30669 -0.204517,1.47003 -0.438815,0.0144 -0.878215,0.0175 -1.317391,0.016 -0.266933,0 -0.533867,-0.002 -0.808888,-0.002 -0.281171,-0.002 -0.56234,-0.003 -0.852031,-0.004 -0.281959,-0.002 -0.56392,-0.002 -0.854424,-0.002 -0.699448,-0.002 -1.398879,-0.005 -2.098318,-0.008 0,-0.48511 0,-0.97022 0,-1.47003 z"
       style="fill:#33c2f6;stroke-width:0.999999"
       id="path317" /><path
       d="m 130.68481,164.41966 c 2.09223,0 4.18446,0 6.34009,0 0,0.4312 0,0.86241 0,1.30669 -2.09223,0 -4.18446,0 -6.34009,0 0,-0.43121 0,-0.86242 0,-1.30669 z"
       style="fill:#0f94e9;stroke-width:0.999999"
       id="path319" /><path
       d="m 43.150708,164.41966 c 1.957246,0 3.914492,0 5.931048,0 0,0.4312 0,0.86241 0,1.30669 -1.957245,0 -3.914492,0 -5.931048,0 0,-0.43121 0,-0.86242 0,-1.30669 z"
       style="fill:#108de7;stroke-width:0.999999"
       id="path321" /><path
       d="m 119.61812,146.36997 c 0.24633,0.002 0.49267,0.003 0.74647,0.005 0.39941,0.001 0.39941,0.001 0.80689,0.003 0.41919,0.004 0.41919,0.004 0.84684,0.008 0.28104,0.001 0.56207,0.003 0.85163,0.004 0.69614,0.004 1.39222,0.009 2.08833,0.0147 -1.20969,0.94538 -2.56982,1.32149 -4.329,1.36793 -0.49158,0.003 -0.98266,10e-4 -1.47423,-0.002 -0.25507,-9.8e-4 -0.25507,-9.8e-4 -0.51529,-0.002 -0.41623,-0.002 -0.83246,-0.004 -1.24868,-0.007 1.56309,-1.35201 1.56309,-1.35201 2.22704,-1.39046 z"
       style="fill:#31b8fa;stroke-width:0.999999"
       id="path323" /><path
       d="m 53.172136,141.38918 c 1.022594,0.89446 1.022594,0.89446 1.022594,1.30669 0.134983,0 0.269964,0 0.409038,0 0.202474,0.24256 0.202474,0.24256 0.409036,0.49001 -0.06749,0.21561 -0.134982,0.43121 -0.204517,0.65335 -0.549644,0.1225 -0.549644,0.1225 -1.227113,0.16334 -0.587993,-0.31647 -0.587993,-0.31647 -1.022595,-0.65335 -0.45814,0.53663 -0.862537,1.05103 -1.227116,1.63337 -0.269964,-0.0539 -0.539928,-0.10781 -0.818074,-0.16334 -0.159394,-0.99292 0.340391,-1.65615 1.022594,-2.45005 1.026359,-0.98002 1.026359,-0.98002 1.636153,-0.98002 z"
       style="fill:#ebf8fb;stroke-width:0.999999"
       id="path325" /><path
       d="m 32.515723,128.93475 c 0.818075,0.0408 0.818075,0.0408 1.227113,0.36751 0.05614,0.54701 0.01765,1.0837 0,1.63337 -0.809894,0 -1.61979,0 -2.454228,0 -0.03994,-1.24417 -0.03994,-1.24417 0,-1.63337 0.40904,-0.32667 0.40904,-0.32667 1.227115,-0.36751 z"
       style="fill:#eaf1f4;stroke-width:0.999999"
       id="path327" /><path
       d="m 127.00347,165.88969 c 1.21484,0 2.42968,0 3.68134,0 0,0.43121 0,0.86241 0,1.30669 -1.19565,0.0503 -2.00561,-0.0409 -3.06779,-0.49001 -0.61355,-0.49001 -0.61355,-0.49001 -0.61355,-0.81668 z"
       style="fill:#1889cb;stroke-width:0.999999"
       id="path329" /><path
       d="m 137.0249,165.88969 c 1.21484,0 2.42968,0 3.68134,0 -0.43259,0.69096 -0.60343,0.81263 -1.43164,1.14335 -0.79203,0.15815 -1.43901,0.17579 -2.2497,0.16334 0,-0.43121 0,-0.86242 0,-1.30669 z"
       style="fill:#1688cd;stroke-width:0.999999"
       id="path331" /><path
       d="m 49.081756,165.88969 c 1.214843,0 2.429686,0 3.681341,0 -0.468263,0.74795 -0.703177,0.8304 -1.636151,1.14335 -0.792033,0.15815 -1.439018,0.17579 -2.249707,0.16334 0.06749,-0.43121 0.134981,-0.86242 0.204517,-1.30669 z"
       style="fill:#1488c9;stroke-width:0.999999"
       id="path333" /><path
       d="m 116.00235,143.02869 c 0.0708,0.1083 0.14167,0.21659 0.21465,0.32817 -0.1936,0.33071 -0.40709,0.65471 -0.63053,0.97424 -0.51922,0.70591 -0.51922,0.70591 -0.65735,1.487 0.50518,-0.14475 0.50518,-0.14475 0.64394,-0.65633 0.28333,-0.0541 0.56667,-0.1083 0.85858,-0.16409 0.14167,0.1083 0.28334,0.21659 0.4293,0.32817 -0.30165,0.22074 -0.60632,0.43906 -0.91225,0.65633 -0.16934,0.12183 -0.33868,0.24366 -0.51314,0.36918 -0.50643,0.28715 -0.50643,0.28715 -1.36503,0.28715 -0.30954,-0.47324 -0.23481,-0.88887 -0.22806,-1.41521 0.002,-0.19502 0.004,-0.39003 0.006,-0.59096 0.002,-0.15017 0.005,-0.30034 0.008,-0.45507 0.0708,0.16244 0.14167,0.32488 0.21465,0.49225 0.86084,-0.0894 0.86084,-0.0894 1.17721,-0.50315 0.13447,-0.20273 0.13447,-0.20273 0.27166,-0.40956 0.0919,-0.13558 0.18372,-0.27116 0.27837,-0.41085 0.10127,-0.15704 0.10127,-0.15704 0.20459,-0.31727 z"
       style="fill:#40b2e8;stroke-width:0.999999"
       id="path335" /><path
       d="m 44.991377,165.88969 c 1.282335,0 2.564668,0 3.885862,0 0,0.3773 0,0.75461 0,1.14335 -1.889755,0 -3.779513,0 -5.726531,0 0,-0.0539 0,-0.1078 0,-0.16333 1.14735,0 2.294701,0 3.47682,0 0,-0.26951 0,-0.53901 0,-0.81669 -0.539928,0 -1.079858,0 -1.636151,0 0,-0.0539 0,-0.1078 0,-0.16333 z"
       style="fill:#3ccefe;stroke-width:0.999999"
       id="path337" /><path
       d="m 39.878405,165.72635 c 1.012368,0 2.024735,0 3.067782,0 0,0.43121 0,0.86242 0,1.30669 -1.393874,0.11718 -1.393874,0.11718 -2.063563,-0.20672 -0.390663,-0.26287 -0.390663,-0.26287 -1.004219,-0.7733 0,-0.1078 0,-0.2156 0,-0.32667 z"
       style="fill:#0b8cd3;stroke-width:0.999999"
       id="path339" /><path
       d="m 120.84793,144.134 c 0.44983,0.002 0.44983,0.002 0.90875,0.003 0.31303,0.003 0.62607,0.005 0.93911,0.008 0.31863,0.002 0.63725,0.003 0.95588,0.004 0.77644,0.004 1.5528,0.009 2.3292,0.016 0,0.1078 0,0.21561 0,0.32667 -0.21148,0.002 -0.42297,0.005 -0.64087,0.007 -0.78716,0.01 -1.57418,0.0221 -2.36125,0.0357 -0.34018,0.005 -0.68038,0.01 -1.0206,0.0137 -0.49001,0.006 -0.97981,0.014 -1.46973,0.0232 -0.29453,0.004 -0.58906,0.009 -0.89252,0.013 -0.78732,0.0719 -1.14476,0.22518 -1.79578,0.56064 -0.20248,-0.0539 -0.40495,-0.10781 -0.61356,-0.16334 1.05627,-0.84358 2.21949,-0.85755 3.66137,-0.84859 z"
       style="fill:#002d4e;stroke-width:0.999999"
       id="path341" /><path
       d="m 33.742836,154.94613 c 0.05484,0.0928 0.109675,0.18571 0.166172,0.28138 0.804007,1.2652 1.907447,1.98839 3.310652,2.82201 -1.990819,-0.22672 -3.527454,-1.37877 -4.703937,-2.61338 0.766946,-0.49001 0.766946,-0.49001 1.227113,-0.49001 z"
       style="fill:#798b98;stroke-width:0.999999"
       id="path343" /><path
       d="m 119.02723,146.12823 c 2.36219,0 4.72439,0 7.15816,0 0,0.48476 0,0.96951 0,1.46895 -0.13498,0 -0.26996,0 -0.40904,0 0.0422,0.15485 0.0844,0.3097 0.12783,0.46925 0.0253,0.16831 0.0506,0.33663 0.0767,0.51005 -0.54925,0.43832 -1.09953,0.49952 -1.84067,0.65286 0.1479,-0.17452 0.1479,-0.17452 0.29879,-0.35257 0.12919,-0.15633 0.25837,-0.31265 0.39146,-0.47371 0.12813,-0.15338 0.25626,-0.30676 0.38827,-0.46478 0.44102,-0.58462 0.44102,-0.58462 0.76215,-1.64683 -2.2947,0 -4.5894,0 -6.95364,0 0,-0.0539 0,-0.10772 0,-0.16322 z"
       style="fill:#043659;stroke-width:0.999999"
       id="path345" /></g><g
     inkscape:groupmode="layer"
     id="layer4"
     inkscape:label="Top"><path
       style="display:inline;fill:#333333;fill-opacity:1;fill-rule:evenodd;stroke:none;stroke-width:1"
       d="m 20.765212,6.9688031 c -1.040295,0.062028 -1.93646,0.56255 -2.328773,1.2803653 -0.392316,0.7178149 -0.213692,1.5301715 0.47438,2.1126036 2.835534,2.461334 5.729316,4.504612 7.762579,6.433835 2.03326,1.929223 3.191278,3.606239 3.191278,5.665616 v 83.511817 0.16006 c -0.702848,6.82755 0.08468,11.9648 3.751914,15.58844 3.697612,3.65366 10.010873,5.10059 18.198933,5.02544 12.362894,0.0377 64.416227,0.12804 75.383257,0.12804 0.0575,9.1e-4 0.11501,9.1e-4 0.1725,0 7.62805,-0.37197 13.69304,-1.98787 17.6383,-5.50558 3.94527,-3.51772 5.47693,-8.52379 5.47693,-15.23634 1e-4,-0.0106 1e-4,-0.0213 0,-0.0319 l -0.47438,-82.583563 c 0,-3.634053 0.75096,-5.103429 2.24252,-6.625891 1.49156,-1.52246 4.15779,-3.179193 7.71945,-6.177762 0.70322,-0.600073 0.86558,-1.44957 0.43127,-2.1766207 -0.43435,-0.7270509 -1.38687,-1.200275 -2.45816,-1.216347 L 21.023965,6.9688031 c -0.08622,-0.00301 -0.172548,-0.00301 -0.258753,0 z m 6.42569,4.0971689 124.459978,0.320091 c -1.271,0.954161 -2.82214,2.067833 -3.83816,3.104887 -2.11924,2.163157 -3.32065,4.896953 -3.32065,9.026574 l 0.0861,16.292648 c -9.4814,0.142529 -16.77031,0.157811 -26.30652,0 0,10e-7 -1.77991,0.619653 -1.81126,1.824521 -0.0358,1.374174 1.81126,2.272648 1.81126,2.272648 0,2e-6 1.00046,2e-6 26.30652,0 l 0.0861,14.02 c -9.43747,0.141223 -16.71422,0.15731 -26.22026,0 0,-10e-7 -1.77991,0.619653 -1.81127,1.82452 -0.0358,1.374176 1.81127,2.272648 1.81127,2.272648 0,-1e-6 1.08159,10e-7 26.2634,0 l 0.0861,15.49242 c -9.2635,0.136048 -16.48988,0.155315 -25.87525,0 0,0 -1.77991,0.101156 -1.81127,1.792511 -0.0255,1.374306 1.81127,2.304658 1.81127,2.304658 0,0 1.71612,10e-7 25.91838,0 l 0.0861,16.836802 c -9.32833,0.13798 -16.57407,0.156064 -26.00463,0 0,0 -1.77992,0.101156 -1.81127,1.79251 -0.0255,1.3743 1.81127,2.30466 1.81127,2.30466 0,0 1.4812,0 26.04775,0 v 3.58503 c 0,6.23387 -1.46083,10.18428 -4.18317,12.61158 -2.72231,2.42732 -6.94181,3.70084 -13.757,4.03316 -11.08963,-3.9e-4 -62.947653,-0.0904 -75.253877,-0.12804 -0.01443,-8e-5 -0.02875,-8e-5 -0.04312,0 -7.329629,0.0673 -11.317094,-1.06728 -13.670762,-3.39296 -2.353667,-2.3257 -3.363069,-6.47268 -2.673778,-12.9637 0.0027,-0.0533 0.0027,-0.10672 0,-0.16004 V 22.461223 c 0,-3.239304 -1.947858,-5.90973 -4.355669,-8.194338 -1.172974,-1.112958 -2.521697,-2.153755 -3.838163,-3.200913 z"
       id="path3169" /></g></svg>
