<?xml version="1.0" encoding="UTF-8" standalone="no"?>
<svg
   id="svg"
   version="1.1"
   style="display:block"
   viewBox="0 0 1024 1500"
   sodipodi:docname="hotplate.svg"
   inkscape:version="1.2.2 (b0a8486541, 2022-12-01)"
   xml:space="preserve"
   width="1024"
   height="1500"
   inkscape:export-filename="../hotplate.png"
   inkscape:export-xdpi="107.46"
   inkscape:export-ydpi="107.46"
   xmlns:inkscape="http://www.inkscape.org/namespaces/inkscape"
   xmlns:sodipodi="http://sodipodi.sourceforge.net/DTD/sodipodi-0.dtd"
   xmlns:xlink="http://www.w3.org/1999/xlink"
   xmlns="http://www.w3.org/2000/svg"
   xmlns:svg="http://www.w3.org/2000/svg"><defs
     id="defs350"><linearGradient
       inkscape:collect="always"
       id="linearGradient3203"><stop
         style="stop-color:#ffffff;stop-opacity:1;"
         offset="0"
         id="stop3205" /><stop
         style="stop-color:#ffffff;stop-opacity:0;"
         offset="1"
         id="stop3207" /></linearGradient><linearGradient
       inkscape:collect="always"
       id="linearGradient3193"><stop
         style="stop-color:#00c0bf;stop-opacity:1;"
         offset="0"
         id="stop3195" /><stop
         style="stop-color:#00c0bf;stop-opacity:0;"
         offset="1"
         id="stop3197" /></linearGradient><inkscape:perspective
       sodipodi:type="inkscape:persp3d"
       inkscape:vp_x="-50 : 1076 : 1"
       inkscape:vp_y="0 : 1000 : 0"
       inkscape:vp_z="700 : 1076 : 1"
       inkscape:persp3d-origin="300 : 876 : 1"
       id="perspective3637" /><inkscape:perspective
       sodipodi:type="inkscape:persp3d"
       inkscape:vp_x="-50 : 1076 : 1"
       inkscape:vp_y="0 : 1000 : 0"
       inkscape:vp_z="700 : 1076 : 1"
       inkscape:persp3d-origin="300 : 876 : 1"
       id="perspective14" /><linearGradient
       inkscape:collect="always"
       xlink:href="#linearGradient3193"
       id="linearGradient3199"
       x1="110.75042"
       y1="65.505646"
       x2="217.94905"
       y2="65.505646"
       gradientUnits="userSpaceOnUse"
       gradientTransform="translate(-100)" /><linearGradient
       inkscape:collect="always"
       xlink:href="#linearGradient3203"
       id="linearGradient3209"
       x1="16.522675"
       y1="65.66478"
       x2="47.28083"
       y2="65.66478"
       gradientUnits="userSpaceOnUse"
       gradientTransform="matrix(0.20396397,0,0,0.14439927,-108.59972,67.351909)" /><linearGradient
       inkscape:collect="always"
       xlink:href="#linearGradient3203"
       id="linearGradient3213"
       gradientUnits="userSpaceOnUse"
       x1="15.784125"
       y1="65.664772"
       x2="43.245827"
       y2="65.66478"
       gradientTransform="matrix(-0.10107951,0,0,0.14439927,-89.216458,67.249019)" /><linearGradient
       inkscape:collect="always"
       xlink:href="#linearGradient3193"
       id="linearGradient3607"
       gradientUnits="userSpaceOnUse"
       gradientTransform="matrix(0.14439927,0,0,0.14439927,-121.76465,67.750059)"
       x1="110.75042"
       y1="65.505646"
       x2="217.94905"
       y2="65.505646" /></defs><sodipodi:namedview
     id="namedview348"
     pagecolor="#ffffff"
     bordercolor="#666666"
     borderopacity="1.0"
     inkscape:showpageshadow="2"
     inkscape:pageopacity="0.0"
     inkscape:pagecheckerboard="0"
     inkscape:deskcolor="#d1d1d1"
     showgrid="false"
     inkscape:zoom="0.70917838"
     inkscape:cx="-910.20823"
     inkscape:cy="755.8042"
     inkscape:window-width="3440"
     inkscape:window-height="1371"
     inkscape:window-x="0"
     inkscape:window-y="32"
     inkscape:window-maximized="1"
     inkscape:current-layer="svg" /><path
     d="m 222.96192,845.27418 c 0.99697,-0.008 1.99394,-0.0152 3.02112,-0.0231 3.36762,-0.0208 6.73458,-0.0128 10.10224,-0.005 2.42798,-0.009 4.85595,-0.0195 7.28391,-0.0317 6.69302,-0.0285 13.38586,-0.0317 20.07893,-0.0308 7.21012,-0.003 14.42017,-0.0294 21.63025,-0.0524 14.95331,-0.0434 29.90657,-0.0605 44.85994,-0.0701 0.813,-5.3e-4 1.62599,-10e-4 2.46363,-0.002 0.8146,-5.2e-4 1.62921,-10e-4 2.46849,-0.002 9.0208,-0.006 18.04158,-0.0192 27.06236,-0.0324 27.23729,-0.0393 54.47457,-0.0721 81.71189,-0.0777 1.3072,-2.8e-4 1.3072,-2.8e-4 2.6408,-5.7e-4 3.53178,-7.6e-4 7.06356,-10e-4 10.59535,-0.002 2.65833,-5.4e-4 5.31667,-10e-4 7.97501,-0.002 0.87841,-1.8e-4 1.75683,-3.5e-4 2.66186,-5.3e-4 27.60568,-0.006 55.21107,-0.05 82.81665,-0.12252 31.00001,-0.0814 61.99983,-0.12884 92.99995,-0.12944 3.30426,-2e-4 6.60851,-5.3e-4 9.91276,-9.6e-4 0.81362,-9e-5 1.62724,-1.8e-4 2.46551,-2.7e-4 13.10545,-0.002 26.21062,-0.0371 39.31598,-0.0834 13.16668,-0.0456 26.3329,-0.0533 39.49965,-0.0249 7.13627,0.0144 14.27157,0.0124 21.40773,-0.0328 6.52846,-0.041 13.0552,-0.0362 19.58364,0.006 2.36609,0.007 4.7323,-0.003 7.09822,-0.0314 17.63789,-0.19832 17.63789,-0.19832 22.57661,3.36893 1.91512,2.59821 3.0529,4.85996 4.09625,7.90261 0.46886,1.04666 0.93772,2.09331 1.42079,3.17168 0.70005,3.41839 0.83737,6.59029 0.84664,10.08154 0.009,1.45642 0.0171,2.91283 0.0258,4.41338 -6.9e-4,1.60422 -0.002,3.20844 -0.003,4.81265 0.006,1.69731 0.0128,3.39461 0.0203,5.09191 0.0177,4.60355 0.0224,9.20704 0.0236,13.81062 10e-4,2.87962 0.006,5.75922 0.011,8.63883 0.0185,10.05622 0.0267,20.11238 0.0251,30.1686 -10e-4,9.35672 0.0199,18.7132 0.0515,28.06985 0.0262,8.0461 0.0369,16.09212 0.0356,24.13826 -5.1e-4,4.79973 0.005,9.59926 0.0263,14.39895 0.0195,4.5186 0.0195,9.0368 0.005,13.5555 -0.002,1.6515 0.003,3.303 0.0147,4.9544 0.0808,11.7439 -1.25092,21.1763 -7.62874,31.1938 -0.74637,1.1911 -0.74637,1.1911 -1.50781,2.4063 -1.11282,1.7042 -2.23817,3.4002 -3.36719,5.0937 -0.66,0 -1.32,0 -2,0 -0.33,0.99 -0.66,1.98 -1,3 -7.44659,5.6238 -17.31948,13 -27,13 0.0464,1.0622 0.0928,2.1244 0.14063,3.2188 0.37017,14.4899 0.37017,14.4899 -4.14063,20.7812 -5.92842,6.2042 -12.88118,8.1096 -21.21899,8.3882 -2.35531,0.02 -4.71081,0.022 -7.06617,0.01 -1.88349,0 -1.88349,0 -3.80503,0.01 -2.6432,0 -5.28642,-0 -7.92958,-0.016 -4.03347,-0.016 -8.06594,-10e-5 -12.09937,0.019 -2.57617,-0 -5.15235,-0.01 -7.72852,-0.012 -1.79873,0.01 -1.79873,0.01 -3.6338,0.018 -8.77908,-0.073 -15.94832,-1.0291 -22.51854,-7.4168 -5.65613,-7.2722 -6,-12.7461 -6,-22 -110.22,0 -220.44,0 -334,0 0,3.63 0,7.26 0,11 -2.84927,7.864 -7.30669,12.1533 -14.625,15.8125 -4.45043,1.5659 -8.48027,2.3074 -13.19019,2.3645 -0.92834,0.013 -1.85668,0.026 -2.81315,0.039 -1.48915,0.011 -1.48915,0.011 -3.00838,0.022 -1.03462,0.01 -2.06924,0.016 -3.13521,0.024 -2.1879,0.014 -4.37583,0.024 -6.56376,0.032 -2.22565,0.011 -4.45128,0.032 -6.67676,0.061 -3.22911,0.043 -6.45741,0.059 -9.68677,0.069 -0.98264,0.017 -1.96529,0.035 -2.97771,0.053 -8.28575,-0.026 -14.75329,-2.1651 -21.69807,-6.6663 -6.55242,-7.0205 -7.04412,-13.6674 -6.76562,-23.0664 0.0464,-0.9063 0.0928,-1.8125 0.14062,-2.7461 -1.19625,-0.1857 -2.3925,-0.3713 -3.625,-0.5625 -13.55636,-3.0742 -26.15344,-11.5258 -33.96346,-23.0743 -6.31162,-10.5672 -7.13842,-20.9293 -7.05851,-32.9284 -0.007,-1.7295 -0.0157,-3.4591 -0.0266,-5.1886 -0.0226,-4.659 -0.014,-9.3175 0.002,-13.9765 0.0127,-4.89468 8.9e-4,-9.78932 -0.007,-14.68401 -0.009,-8.21331 0.003,-16.42641 0.0267,-24.63969 0.0272,-9.47682 0.0184,-18.9531 -0.009,-28.42991 -0.0227,-8.16176 -0.0259,-16.32335 -0.0128,-24.48513 0.008,-4.86388 0.009,-9.72751 -0.008,-14.59137 -0.0145,-4.57136 -0.004,-9.14203 0.0245,-13.71332 0.007,-1.67124 0.005,-3.34255 -0.006,-5.01377 -0.0553,-9.1855 0.0316,-17.10564 5.66332,-24.71255 0.49067,-0.68999 0.98135,-1.37998 1.48689,-2.09088 3.78205,-2.87314 7.62332,-2.46698 12.18473,-2.42956 z"
     style="fill:#172b34"
     id="path255" /><path
     d="m 222.96192,845.27418 c 0.99697,-0.008 1.99394,-0.0152 3.02112,-0.0231 3.36762,-0.0208 6.73458,-0.0128 10.10224,-0.005 2.42798,-0.009 4.85595,-0.0195 7.28391,-0.0317 6.69302,-0.0285 13.38586,-0.0317 20.07893,-0.0308 7.21012,-0.003 14.42017,-0.0294 21.63025,-0.0524 14.95331,-0.0434 29.90657,-0.0605 44.85994,-0.0701 0.813,-5.3e-4 1.62599,-10e-4 2.46363,-0.002 0.8146,-5.2e-4 1.62921,-10e-4 2.46849,-0.002 9.0208,-0.006 18.04158,-0.0192 27.06236,-0.0324 27.23729,-0.0393 54.47457,-0.0721 81.71189,-0.0777 1.3072,-2.8e-4 1.3072,-2.8e-4 2.6408,-5.7e-4 3.53178,-7.6e-4 7.06356,-10e-4 10.59535,-0.002 2.65833,-5.4e-4 5.31667,-10e-4 7.97501,-0.002 0.87841,-1.8e-4 1.75683,-3.5e-4 2.66186,-5.3e-4 27.60568,-0.006 55.21107,-0.05 82.81665,-0.12252 31.00001,-0.0814 61.99983,-0.12884 92.99995,-0.12944 3.30426,-2e-4 6.60851,-5.3e-4 9.91276,-9.6e-4 0.81362,-9e-5 1.62724,-1.8e-4 2.46551,-2.7e-4 13.10545,-0.002 26.21062,-0.0371 39.31598,-0.0834 13.16668,-0.0456 26.3329,-0.0533 39.49965,-0.0249 7.13627,0.0144 14.27157,0.0124 21.40773,-0.0328 6.52846,-0.041 13.0552,-0.0362 19.58364,0.006 2.36609,0.007 4.7323,-0.003 7.09822,-0.0314 17.63789,-0.19832 17.63789,-0.19832 22.57661,3.36893 1.91512,2.59821 3.0529,4.85996 4.09625,7.90261 0.46886,1.04666 0.93772,2.09331 1.42079,3.17168 0.70005,3.41839 0.83737,6.59029 0.84664,10.08154 0.009,1.45642 0.0171,2.91283 0.0258,4.41338 -6.9e-4,1.60422 -0.002,3.20844 -0.003,4.81265 0.006,1.69731 0.0128,3.39461 0.0203,5.09191 0.0177,4.60355 0.0224,9.20704 0.0236,13.81062 10e-4,2.87962 0.006,5.75922 0.011,8.63883 0.0185,10.05622 0.0267,20.11238 0.0251,30.1686 -10e-4,9.35672 0.0199,18.7132 0.0515,28.06985 0.0262,8.0461 0.0369,16.09212 0.0356,24.13826 -5.1e-4,4.79973 0.005,9.59926 0.0263,14.39895 0.0195,4.5186 0.0195,9.0368 0.005,13.5555 -0.002,1.6515 0.003,3.303 0.0147,4.9544 0.0808,11.7439 -1.25092,21.1763 -7.62874,31.1938 -0.74637,1.1911 -0.74637,1.1911 -1.50781,2.4063 -1.11282,1.7042 -2.23817,3.4002 -3.36719,5.0937 -0.66,0 -1.32,0 -2,0 -0.33,0.99 -0.66,1.98 -1,3 -7.44659,5.6238 -17.31948,13 -27,13 0.0464,1.0622 0.0928,2.1244 0.14063,3.2188 0.37017,14.4899 0.37017,14.4899 -4.14063,20.7812 -5.92842,6.2042 -12.88118,8.1096 -21.21899,8.3882 -2.35531,0.02 -4.71081,0.022 -7.06617,0.01 -1.88349,0 -1.88349,0 -3.80503,0.01 -2.6432,0 -5.28642,-0 -7.92958,-0.016 -4.03347,-0.016 -8.06594,-10e-5 -12.09937,0.019 -2.57617,-0 -5.15235,-0.01 -7.72852,-0.012 -1.79873,0.01 -1.79873,0.01 -3.6338,0.018 -8.77908,-0.073 -15.94832,-1.0291 -22.51854,-7.4168 -5.65613,-7.2722 -6,-12.7461 -6,-22 -110.22,0 -220.44,0 -334,0 0,3.63 0,7.26 0,11 -2.84927,7.864 -7.30669,12.1533 -14.625,15.8125 -4.45043,1.5659 -8.48027,2.3074 -13.19019,2.3645 -0.92834,0.013 -1.85668,0.026 -2.81315,0.039 -1.48915,0.011 -1.48915,0.011 -3.00838,0.022 -1.03462,0.01 -2.06924,0.016 -3.13521,0.024 -2.1879,0.014 -4.37583,0.024 -6.56376,0.032 -2.22565,0.011 -4.45128,0.032 -6.67676,0.061 -3.22911,0.043 -6.45741,0.059 -9.68677,0.069 -0.98264,0.017 -1.96529,0.035 -2.97771,0.053 -8.28575,-0.026 -14.75329,-2.1651 -21.69807,-6.6663 -6.55242,-7.0205 -7.04412,-13.6674 -6.76562,-23.0664 0.0464,-0.9063 0.0928,-1.8125 0.14062,-2.7461 -1.19625,-0.1857 -2.3925,-0.3713 -3.625,-0.5625 -13.55636,-3.0742 -26.15344,-11.5258 -33.96346,-23.0743 -6.31162,-10.5672 -7.13842,-20.9293 -7.05851,-32.9284 -0.007,-1.7295 -0.0157,-3.4591 -0.0266,-5.1886 -0.0226,-4.659 -0.014,-9.3175 0.002,-13.9765 0.0127,-4.89468 8.9e-4,-9.78932 -0.007,-14.68401 -0.009,-8.21331 0.003,-16.42641 0.0267,-24.63969 0.0272,-9.47682 0.0184,-18.9531 -0.009,-28.42991 -0.0227,-8.16176 -0.0259,-16.32335 -0.0128,-24.48513 0.008,-4.86388 0.009,-9.72751 -0.008,-14.59137 -0.0145,-4.57136 -0.004,-9.14203 0.0245,-13.71332 0.007,-1.67124 0.005,-3.34255 -0.006,-5.01377 -0.0553,-9.1855 0.0316,-17.10564 5.66332,-24.71255 0.49067,-0.68999 0.98135,-1.37998 1.48689,-2.09088 3.78205,-2.87314 7.62332,-2.46698 12.18473,-2.42956 z m -2.67127,16.52012 c -0.31373,2.6041 -0.31373,2.6041 -0.27415,5.69576 -0.01,1.21243 -0.0199,2.42486 -0.0302,3.67403 -6.7e-4,1.33759 -0.001,2.67518 -0.002,4.05331 -0.008,1.40343 -0.0166,2.80686 -0.0252,4.25282 -0.02,3.8602 -0.0308,7.72018 -0.0358,11.58041 -0.004,2.41528 -0.01,4.83053 -0.017,7.2458 -0.0245,8.43753 -0.0375,16.875 -0.0411,25.31257 -0.004,7.84341 -0.0334,15.68643 -0.0754,23.52973 -0.0348,6.74499 -0.0501,13.48986 -0.0508,20.23495 -7.9e-4,4.02305 -0.009,8.0457 -0.038,12.06866 -0.0313,4.50212 -0.0221,9.00332 -0.01,13.50553 -0.0148,1.31533 -0.0297,2.63065 -0.045,3.98584 0.097,12.35659 3.29983,22.67939 12.05448,31.63799 9.38483,8.0542 20.20488,12.7106 32.59014,12.6001 0.86369,0 1.72738,0.01 2.61725,0.013 2.88411,0.011 5.76775,6e-4 8.65186,-0.01 2.09263,0 4.18526,0.01 6.27788,0.014 5.74294,0.013 11.48573,0.01 17.22866,-0 6.19641,-0.01 12.39278,0 18.58918,0.012 12.13581,0.013 24.27156,0.01 36.40737,0 9.86241,-0.01 19.72481,-0.01 29.58723,-0 1.40329,5e-4 2.80658,0 4.25239,0 2.85069,10e-4 5.70139,0 8.55208,0 25.97317,0.01 51.94632,-3e-4 77.91948,-0.016 23.70601,-0.014 47.41197,-0.013 71.11798,10e-4 26.6393,0.016 53.27857,0.022 79.91787,0.013 2.84025,-9e-4 5.6805,-0 8.52074,-0 1.39749,-4e-4 2.79497,-9e-4 4.2348,-10e-4 9.85138,-0 19.70274,0 29.55411,0.01 12.00436,0.01 24.00866,0.01 36.01301,-0.01 6.12562,-0.01 12.25114,-0.011 18.37675,-10e-4 5.60696,0.01 11.21374,0 16.82068,-0.012 2.02881,-0 4.05764,-0 6.08644,0.01 2.75811,0.01 5.51557,-2e-4 8.27364,-0.014 0.78719,0.01 1.57438,0.014 2.38542,0.021 9.9268,-0.1001 20.67082,-3.9739 28.10707,-10.6292 7.34676,-7.7683 11.62431,-15.8353 11.64152,-26.7284 0.004,-1.2198 0.009,-2.4396 0.0129,-3.6963 -4.6e-4,-1.3352 -9.1e-4,-2.6704 -10e-4,-4.04605 0.003,-1.40842 0.007,-2.81685 0.0102,-4.26796 0.008,-3.86149 0.0112,-7.72293 0.0118,-11.58443 9.5e-4,-3.2233 0.005,-6.44659 0.008,-9.66989 0.008,-7.60309 0.0106,-15.20617 0.01,-22.80926 -6e-4,-7.84576 0.01,-15.69146 0.0257,-23.5372 0.0131,-6.73555 0.0184,-13.47108 0.0178,-20.20663 -2.6e-4,-4.02316 0.003,-8.04625 0.0132,-12.06939 0.0115,-4.48432 0.007,-8.96855 8.9e-4,-13.45289 0.008,-2.00279 0.008,-2.00279 0.017,-4.04604 -0.004,-1.21977 -0.008,-2.43954 -0.0127,-3.69627 8.2e-4,-1.5906 8.2e-4,-1.5906 0.002,-3.21333 -0.1107,-3.07689 -0.1107,-3.07689 -2.24889,-6.74554 -3.4253,-1.71265 -7.35773,-1.13717 -11.12679,-1.12863 -1.44359,-0.003 -1.44359,-0.003 -2.91635,-0.005 -3.26179,-0.005 -6.52355,-0.002 -9.78535,2.3e-4 -2.34731,-0.002 -4.69463,-0.004 -7.04194,-0.007 -6.47912,-0.006 -12.95822,-0.006 -19.43734,-0.005 -6.97622,2.1e-4 -13.95242,-0.005 -20.92863,-0.0101 -13.67781,-0.008 -27.35561,-0.0111 -41.03342,-0.0116 -11.11121,-4.5e-4 -22.22241,-0.002 -33.33362,-0.006 -3.19438,-8.9e-4 -6.38876,-0.002 -9.58315,-0.003 -1.19107,-3.3e-4 -1.19107,-3.3e-4 -2.40621,-6.7e-4 -22.34434,-0.006 -44.68867,-0.0101 -67.033,-0.01 -0.84297,2e-5 -1.68593,4e-5 -2.55444,5e-5 -4.27284,8e-5 -8.54568,1.8e-4 -12.81852,2.9e-4 -0.84865,2e-5 -1.69731,4e-5 -2.57168,6e-5 -1.71619,4e-5 -3.43238,8e-5 -5.14857,1.2e-4 -26.71232,6.1e-4 -53.42463,-0.007 -80.13695,-0.0206 -29.98582,-0.0153 -59.97163,-0.024 -89.95745,-0.023 -3.19438,8e-5 -6.38877,1.2e-4 -9.58315,1.6e-4 -0.78658,10e-6 -1.57317,2e-5 -2.38359,3e-5 -12.68428,3e-5 -25.36856,-0.006 -38.05284,-0.015 -12.73655,-0.009 -25.47309,-0.009 -38.20965,-0.003 -6.90643,0.003 -13.81283,0.003 -20.71926,-0.005 -6.31246,-0.008 -12.62484,-0.006 -18.9373,0.002 -2.29337,0.001 -4.58674,-3.4e-4 -6.8801,-0.006 -3.09806,-0.007 -6.19586,-0.002 -9.29391,0.007 -0.90704,-0.005 -1.81409,-0.01 -2.74862,-0.0151 -4.67119,-0.19943 -4.67119,-0.19943 -8.37817,2.26395 z"
     style="fill:#041827"
     id="path257" /><path
     d="m 690.65784,918.57164 c 11.71286,9.64241 17.87915,23.36032 19.63281,38.22266 1.05115,18.65778 -5.60282,35.16722 -17.86718,49.125 -9.77637,9.3987 -24.03603,14.9072 -37.44532,15.25 -15.29041,-0.3842 -28.21692,-4.8703 -39.5,-15.4375 -13.54811,-14.35902 -17.78471,-30.15626 -17.46484,-49.45704 0.84335,-13.62427 8.1247,-27.40584 18.27734,-36.48046 22.6216,-16.77257 51.40208,-18.46544 74.36719,-1.22266 z"
     style="fill:#071b2c"
     id="path261" /><path
     d="m 376.29065,916.7943 c 11.72627,8.61098 19.08382,19.703 22,34 1.96636,18.18701 -1.55742,35.22956 -12.5625,50.0625 -9.26544,11.0801 -20.56106,16.8896 -34.4375,19.9375 -16.83491,1.3988 -31.35445,-2.2145 -44.50391,-13.0664 -13.19736,-12.48279 -19.13125,-27.93639 -19.80859,-45.8711 0.45352,-16.46023 6.73282,-29.62628 18.3125,-41.0625 0.55301,-0.57492 1.10602,-1.14984 1.67578,-1.74219 19.21327,-18.40278 48.41711,-14.74872 69.32422,-2.25781 z"
     style="fill:#061b2d"
     id="path263" /><path
     d="m 228.66689,859.52843 c 1.36014,0.007 1.36014,0.007 2.74776,0.0142 0.96209,-0.003 1.92419,-0.006 2.91544,-0.009 3.26083,-0.007 6.52149,-3.3e-4 9.78232,0.007 2.3466,-0.002 4.6932,-0.005 7.0398,-0.009 6.47721,-0.008 12.95435,-0.004 19.43156,0.002 6.97419,0.005 13.94836,-0.002 20.92255,-0.008 12.88271,-0.008 25.7654,-0.008 38.64812,-0.002 11.90024,0.005 23.80047,0.006 35.70071,0.004 0.78826,-1.5e-4 1.57652,-3.1e-4 2.38866,-4.6e-4 3.19952,-6.3e-4 6.39904,-10e-4 9.59855,-0.002 30.03733,-0.006 60.07465,-5.7e-4 90.11197,0.0102 26.70562,0.009 53.41122,0.009 80.11684,-9.2e-4 29.9796,-0.0107 59.9592,-0.015 89.9388,-0.009 3.19412,6.4e-4 6.38824,10e-4 9.58236,0.002 1.17978,2.4e-4 1.17978,2.4e-4 2.38339,4.8e-4 11.89413,0.002 23.78826,-3.9e-4 35.68239,-0.005 13.52057,-0.006 27.04111,-0.004 40.56167,0.007 6.90454,0.005 13.80903,0.007 20.71356,7e-4 6.3119,-0.006 12.62372,-0.003 18.93561,0.008 2.29204,0.002 4.58408,10e-4 6.87611,-0.004 3.09868,-0.006 6.19709,9e-5 9.29575,0.009 0.90442,-0.005 1.80884,-0.009 2.74067,-0.0142 6.16672,0.0376 6.16672,0.0376 9.50917,2.26587 0.33,2.97 0.66,5.94 1,9 -280.17,0.495 -280.17,0.495 -566,1 -11.85818,84.38177 -11.85818,84.38177 9,157 3.44146,3.2722 7.14698,6.2258 11,9 -8.82018,-1.2714 -16.66584,-7.5175 -22.14809,-14.3275 -6.52603,-9.4177 -7.57712,-19.36 -7.45127,-30.51893 -0.004,-1.42271 -0.008,-2.84542 -0.012,-4.31124 -0.01,-3.85903 0.011,-7.71731 0.0385,-11.57623 0.024,-4.05091 0.0209,-8.10181 0.0213,-12.15277 0.005,-6.7875 0.0281,-13.57471 0.0645,-20.36211 0.0419,-7.84998 0.0593,-15.69972 0.0626,-23.54981 0.004,-8.37229 0.0224,-16.74449 0.0471,-25.11675 0.006,-2.41064 0.01,-4.82129 0.013,-7.23194 0.007,-4.47663 0.0313,-8.95307 0.0579,-13.42962 10e-4,-2.00639 10e-4,-2.00639 0.002,-4.05332 0.01,-1.21243 0.02,-2.42485 0.0302,-3.67402 0.005,-1.05793 0.009,-2.11586 0.0141,-3.20584 0.56211,-5.38172 4.05769,-4.72781 8.63631,-4.75579 z"
     style="fill:#a5b4bf"
     id="path265" /><path
     d="m 696.29065,905.7943 c 7.79107,6.06894 13.06479,12.51093 18,21 0.67805,0.94359 1.35609,1.88719 2.05469,2.85937 2.17958,3.51885 3.13471,6.63194 4.13281,10.64063 0.32355,1.26844 0.64711,2.53687 0.98047,3.84375 4.69278,20.6218 0.70395,38.72948 -8.16797,57.65625 -0.66,0 -1.32,0 -2,0 -0.37125,1.0731 -0.37125,1.0731 -0.75,2.168 -1.38864,3.1461 -3.09464,5.4701 -5.25,8.1445 -1.05188,1.3245 -1.05188,1.3245 -2.125,2.6758 -0.61875,0.6639 -1.2375,1.3277 -1.875,2.0117 -0.66,0 -1.32,0 -2,0 -0.99,1.98 -0.99,1.98 -2,4 -2.35547,2 -2.35547,2 -5.1875,4 -1.38252,0.99 -1.38252,0.99 -2.79297,2 -15.10408,10.0043 -32.81344,12.4842 -50.53125,9.2695 -18.54472,-4.2502 -31.66376,-15.9152 -42.63672,-31.2773 -1.66857,-2.6965 -2.95043,-5.23336 -4.10156,-8.1797 -0.33516,-0.83918 -0.67031,-1.67836 -1.01563,-2.54297 -0.73437,-2.26953 -0.73437,-2.26953 -0.73437,-5.26953 -0.66,0 -1.32,0 -2,0 -5.01002,-21.08383 -5.33219,-42.67117 5.25,-62.19531 10.06106,-16.12465 24.78676,-26.8703 42.99219,-32 20.46212,-4.08935 42.68972,-1.11964 59.75781,11.19531 z m -83,17 c -9.3119,10.74701 -15.43348,23.38035 -15.25,37.75 0.01,0.79712 0.0193,1.59425 0.0293,2.41553 0.32849,16.17817 5.57111,30.10661 17.08398,41.79537 0.70512,0.6729 1.41024,1.3458 2.13672,2.0391 0.82565,0.8547 0.82565,0.8547 1.66797,1.7266 10.52683,10.1369 25.33647,12.8751 39.39453,12.6484 14.64494,-1.3948 28.5844,-8.5112 37.97657,-19.7852 7.88609,-10.41526 13.37041,-22.4015 13.96093,-35.5898 0.0825,-1.38188 0.165,-2.76375 0.25,-4.1875 -0.29079,-15.22677 -6.21502,-29.69821 -16.80469,-40.62891 -13.5375,-12.0886 -28.57569,-14.87117 -46.13672,-14.31982 -13.15086,0.77603 -24.93208,7.12803 -34.30859,16.13623 z"
     style="fill:#061927"
     id="path267" /><path
     d="m 369.29065,897.7943 c 1.74797,0.71156 1.74797,0.71156 3.53125,1.4375 11.04634,4.99487 20.00188,12.25159 26.46875,22.5625 0.44344,0.67805 0.88687,1.35609 1.34375,2.05469 7.92802,12.48127 11.23603,23.97099 11.09375,38.82031 -0.01,1.14332 -0.0195,2.28664 -0.0295,3.4646 -0.43246,20.59344 -9.76692,39.2593 -24.408,53.6604 -1.485,0.495 -1.485,0.495 -3,1 -0.33,0.99 -0.66,1.98 -1,3 -16.4235,11.5573 -33.65722,14.801 -53.25,11.6875 -1.11701,-0.1762 -1.11701,-0.1762 -2.25659,-0.356 -9.13055,-1.5892 -16.09692,-4.9872 -23.49341,-10.3315 -1.29938,-0.9281 -1.29938,-0.9281 -2.625,-1.875 -4.66238,-4.1716 -8.57173,-8.5185 -11.375,-14.125 -0.66,0 -1.32,0 -2,0 -11.54642,-20.32572 -18.18115,-40.16518 -12.8125,-63.75 0.55663,-1.76569 1.16073,-3.51717 1.8125,-5.25 0.35191,-0.99773 0.70383,-1.99547 1.06641,-3.02344 2.7043,-7.08654 6.26585,-13.01839 10.93359,-18.97656 0.81791,-1.06541 0.81791,-1.06541 1.65234,-2.15234 4.39989,-5.39375 9.49262,-9.13826 15.34766,-12.84766 0.68578,-0.46406 1.37156,-0.92813 2.07812,-1.40625 16.82001,-10.52855 42.90195,-11.08719 60.92188,-3.59375 z m -49,13 c -0.9191,0.4009 -1.8382,0.8018 -2.78516,1.21484 -13.14561,6.37868 -22.26326,17.65506 -27.36718,31.14844 -4.69923,14.61741 -4.20824,31.1169 2.67578,44.94531 8.40884,15.32721 18.65154,26.12691 35.78906,31.69141 14.59092,3.2519 29.32229,1.2799 42.33203,-6.0547 14.69587,-9.7077 22.53984,-22.27179 26.9375,-39.18358 2.37653,-15.70285 0.8193,-31.28923 -8.26953,-44.63672 -9.92459,-12.4334 -22.40244,-20.63189 -38.3125,-23.125 -10.79086,-1.01991 -21.05442,-0.6047 -31,4 z"
     style="fill:#071926"
     id="path269" /><path
     d="m 376.29065,916.7943 c 11.72627,8.61098 19.08382,19.703 22,34 1.96636,18.18701 -1.55742,35.22956 -12.5625,50.0625 -9.26544,11.0801 -20.56106,16.8896 -34.4375,19.9375 -16.83491,1.3988 -31.35445,-2.2145 -44.50391,-13.0664 -13.19736,-12.48279 -19.13125,-27.93639 -19.80859,-45.8711 0.45352,-16.46023 6.73282,-29.62628 18.3125,-41.0625 0.55301,-0.57492 1.10602,-1.14984 1.67578,-1.74219 19.21327,-18.40278 48.41711,-14.74872 69.32422,-2.25781 z m -67.375,16.625 c -7.58475,10.3471 -9.86219,20.69043 -8.625,33.375 2.02796,13.08109 8.0918,23.9478 18.67969,32.05078 10.97835,7.34422 22.72267,8.79792 35.70703,6.29692 11.81504,-3.5249 20.59317,-11.64751 26.86328,-22.0977 5.75545,-12.70169 6.68332,-26.58366 1.85547,-39.67578 -5.55953,-12.63173 -16.04194,-19.812 -28.41797,-24.94922 -17.23738,-2.92159 -34.3689,1.53597 -46.0625,15 z"
     style="fill:#edf5f9"
     id="path271" /><path
     d="m 690.65784,918.57164 c 11.71286,9.64241 17.87915,23.36032 19.63281,38.22266 1.05115,18.65778 -5.60282,35.16722 -17.86718,49.125 -9.77637,9.3987 -24.03603,14.9072 -37.44532,15.25 -15.29041,-0.3842 -28.21692,-4.8703 -39.5,-15.4375 -13.54811,-14.35902 -17.78471,-30.15626 -17.46484,-49.45704 0.84335,-13.62427 8.1247,-27.40584 18.27734,-36.48046 22.6216,-16.77257 51.40208,-18.46544 74.36719,-1.22266 z m -72.86719,17.1875 c -7.07342,9.59701 -8.4935,20.39878 -7.5,32.03516 2.55457,12.78733 8.27476,23.38801 19,31 11.32691,6.6146 21.72125,8.6615 34.85157,6.5391 11.72391,-3.1636 21.92133,-10.66933 28.01562,-21.20317 5.55716,-11.45925 7.26701,-24.27915 4.00781,-36.71093 -4.52921,-12.49728 -12.45313,-20.94233 -24.41797,-26.61719 -20.29476,-8.3244 -40.28923,-1.46331 -53.95703,14.95703 z"
     style="fill:#edf4f9"
     id="path273" /><path
     d="m 473.51331,930.38805 c 8.42149,4.26405 12.26635,11.04186 16.15234,19.34375 2.08951,10.23856 0.36135,18.96304 -5.125,27.75 -5.57138,7.81901 -11.79273,12.17506 -21.25,14.3125 -9.25322,1.11497 -16.13924,0.0715 -24,-5 0,-0.66 0,-1.32 0,-2 -1.32,-0.33 -2.64,-0.66 -4,-1 -1.5625,-2.375 -1.5625,-2.375 -3,-5 -0.99,-0.99 -1.98,-1.98 -3,-3 -4.33077,-8.18036 -4.31257,-18.04655 -2.34375,-26.97656 3.38798,-9.43376 10.65975,-16.81738 19.64844,-21.12891 9.05952,-3.00671 18.41513,-1.01111 26.91797,2.69922 z"
     style="fill:#071a27"
     id="path275" /><path
     d="m 327.29065,935.7943 c 5,5.47619 5,5.47619 5,8 0.66,0 1.32,0 2,0 1.41171,1.59675 2.75399,3.25514 4.0625,4.9375 3.69594,4.62734 7.57839,8.81747 11.81641,12.94531 2.59579,2.59102 4.96217,5.33803 7.34765,8.1211 3.09873,3.48777 6.43689,6.73753 9.77344,9.99609 -4.85404,6.15634 -9.15936,10.03984 -17,12 -9.25477,0.76216 -17.4434,0.90401 -25,-5 -7.87095,-7.48767 -11.90918,-16.68496 -12.625,-27.5 0.32559,-8.03517 4.37775,-15.49549 9.875,-21.25 2.75,-2.25 2.75,-2.25 4.75,-2.25 z"
     style="fill:#32b8fa"
     id="path277" /><path
     d="m 220.29065,871.7943 c 2.97,0 5.94,0 9,0 0.001,0.71138 0.003,1.42277 0.004,2.15571 0.0371,17.34532 0.0962,34.6904 0.17946,52.03556 0.0397,8.38815 0.0721,16.77621 0.0871,25.16444 0.013,7.31501 0.0401,14.62981 0.0836,21.9447 0.0225,3.86977 0.0383,7.73929 0.0373,11.60913 0.002,4.33035 0.0295,8.65991 0.0622,12.99012 -0.005,1.26955 -0.0101,2.53914 -0.0153,3.84714 0.11732,10.0604 2.07074,19.2793 8.56115,27.2532 3.44146,3.2722 7.14698,6.2258 11,9 -8.82134,-1.2715 -16.6605,-7.5178 -22.14797,-14.3241 -6.32118,-9.1332 -7.57868,-18.8 -7.41966,-29.63611 -7.3e-4,-1.32838 -0.001,-2.65676 -0.002,-4.0254 0.003,-4.34507 0.0422,-8.68904 0.0816,-13.03392 0.0121,-3.03057 0.0167,-6.06113 0.0214,-9.09172 0.0155,-7.13253 0.0564,-14.26467 0.10674,-21.39703 0.0561,-8.12827 0.0834,-16.25655 0.10848,-24.38496 0.0524,-16.70246 0.14016,-33.40459 0.2519,-50.10676 z"
     style="fill:#92a4ae"
     id="path279" /><path
     d="m 554.29065,938.7943 c 0.495,1.485 0.495,1.485 1,3 0.66,0 1.32,0 2,0 4.14798,6.26641 5.67425,10.47085 5,18 -0.33,1.32 -0.66,2.64 -1,4 -0.66,0 -1.32,0 -2,0 0,0.99 0,1.98 0,3 -0.66,0 -1.32,0 -2,0 0,0.99 0,1.98 0,3 -0.66,0 -1.32,0 -2,0 0,0.66 0,1.32 0,2 -7.14981,4.09026 -14.7767,4.32075 -22.73438,2.30859 -5.07381,-2.03463 -8.14815,-4.72981 -11.26562,-9.30859 -1.83236,-5.49707 -2.17726,-11.96647 -0.0586,-17.42578 3.14862,-5.24113 6.59329,-8.53879 12.18359,-10.88672 6.84275,-1.21404 14.52344,-0.69614 20.875,2.3125 z"
     style="fill:#061b29"
     id="path281" /><path
     d="m 616.29065,991.7943 c 3.54188,-0.30754 5.43629,-0.36923 8.45703,1.60937 1.16596,1.05961 1.16596,1.05961 2.35547,2.14063 10.39805,8.8477 20.87887,9.9909 34.1875,9.25 8.77912,-1.4191 15.72633,-6.15088 23,-11 0,0.66 0,1.32 0,2 4.95,0 9.9,0 15,0 -6.21216,12.9645 -18.85676,19.272 -31.9375,23.9375 -14.57924,3.848 -30.04757,0.556 -42.90234,-6.7695 -6.58123,-4.515 -12.57247,-9.9926 -16.16016,-17.168 1.65,0 3.3,0 5,0 0,-0.66 0,-1.32 0,-2 0.99,0 1.98,0 3,0 0,-0.66 0,-1.32 0,-2 z"
     style="fill:#b4c9d9"
     id="path283" /><path
     d="m 373.29065,992.7943 c 0.495,0.99 0.495,0.99 1,2 3.03996,0.69338 3.03996,0.69338 6.5625,1.125 1.79631,0.25137 1.79631,0.25137 3.62891,0.50781 0.92683,0.12117 1.85367,0.24235 2.80859,0.36719 -5.31707,10.6341 -14.63293,16.8583 -25.42578,21.4609 -14.86422,4.8348 -29.72096,3.7304 -43.72656,-2.9687 -8.22007,-4.4573 -15.60503,-10.0069 -19.84766,-18.4922 5.14703,-3.43135 11.01813,-2.86098 17,-2 2.85858,1.49526 5.14867,3.2315 7.66406,5.2422 8.05236,6.0595 18.73095,5.5889 28.33594,4.7578 8.81708,-1.7124 15.6619,-5.6619 22,-12 z"
     style="fill:#b3c7d5"
     id="path285" /><path
     d="m 668.97034,934.1068 c 6.0308,4.38603 11.70823,9.54779 14.32031,16.6875 0,0.66 0,1.32 0,2 -1.43666,0.0219 -1.43666,0.0219 -2.90234,0.0442 -3.5861,0.0614 -7.17166,0.13562 -10.75733,0.21826 -1.54579,0.0331 -3.09171,0.0612 -4.63769,0.084 -13.16869,-0.14972 -13.16869,-0.14972 -24.76904,5.26684 -0.49372,0.56074 -0.98743,1.12149 -1.4961,1.69922 -3.30552,3.54702 -6.59339,6.71376 -10.4375,9.6875 -1.32,0 -2.64,0 -4,0 -2.52377,-5.04755 -1.57499,-12.40704 -0.38672,-17.76563 2.82742,-7.92175 8.09729,-14.82399 15.63672,-18.73437 9.53635,-3.81454 20.3541,-4.45913 29.42969,0.8125 z"
     style="fill:#34b8f9"
     id="path287" /><path
     d="m 464.29065,939.7943 c 5.01346,2.01691 8.16695,4.98408 11.5625,9.125 2.22697,6.00314 2.88735,12.20879 0.48437,18.28516 -3.00812,5.09287 -6.51506,8.38148 -11.79687,10.90234 -6.68177,1.41345 -11.47925,0.50113 -17.125,-3.125 -5.06394,-3.53023 -7.59543,-7.1869 -9.125,-13.1875 -0.64672,-5.82044 0.66934,-10.23088 4,-15 6.83072,-7.02849 12.3786,-8.14751 22,-7 z"
     style="fill:#f1f8f9"
     id="path289" /><path
     d="m 687.29065,1076.7943 c 8.84882,-0.023 17.69764,-0.041 26.54648,-0.052 4.10846,-0.01 8.2169,-0.012 12.32535,-0.024 3.96164,-0.011 7.92326,-0.017 11.88492,-0.019 2.2541,-0 4.50819,-0.011 6.76228,-0.018 1.36133,-10e-5 2.72267,-10e-5 4.12526,-2e-4 1.20579,-0 2.41158,-0 3.65391,-0.01 2.7018,0.1204 2.7018,0.1204 3.7018,1.1204 0.3827,4.9751 0.17089,8.0637 -3,12 -4.29643,3.0846 -8.32366,4.1157 -13.56567,4.1611 -0.89806,0.01 -1.79612,0.019 -2.72139,0.029 -1.44539,0.01 -1.44539,0.01 -2.91997,0.013 -0.99876,0.01 -1.99751,0.011 -3.02654,0.017 -2.11232,0.01 -4.22465,0.016 -6.33699,0.02 -3.21958,0.01 -6.43852,0.041 -9.65796,0.072 -2.05533,0.01 -4.11067,0.012 -6.16601,0.016 -0.95752,0.012 -1.91504,0.025 -2.90157,0.037 -6.65664,-0.022 -11.44919,-1.2791 -17.1414,-4.928 -1.84812,-2.8831 -1.72806,-4.219 -1.66016,-7.5898 0.0141,-0.9062 0.0282,-1.8123 0.0427,-2.7459 0.0181,-0.6936 0.0362,-1.3872 0.0549,-2.1018 z"
     style="fill:#0568ab"
     id="path291" /><path
     d="m 261.29065,1076.7943 c 21.45,0 42.9,0 65,0 0,9.5 0,9.5 -3,13 -8.00098,4.7665 -16.14269,4.1862 -25.1333,4.1853 -2.46226,0 -4.92406,0.02 -7.38623,0.039 -20.22685,0.075 -20.22685,0.075 -27.10547,-4.7871 -2.375,-3.4375 -2.375,-3.4375 -2.375,-12.4375 z"
     style="fill:#056bb4"
     id="path293" /><path
     d="m 683.29065,965.7943 c -1.2074,9.41755 -5.52938,15.57061 -12.87891,21.55859 -6.98912,4.74952 -14.86703,5.39703 -23.12109,4.44141 -6.15249,-1.52638 -10.68869,-3.24957 -15,-8 10.95128,-21.90257 29.57984,-19.65063 51,-18 z"
     style="fill:#10a0f4"
     id="path295" /><path
     d="m 316.29065,970.7943 c 1.32,0.33 2.64,0.66 4,1 0.33,0.66 0.66,1.32 1,2 7.60452,3.24921 17.17194,3.34893 25.08984,1.13672 1.62101,-0.67034 3.22514,-1.38518 4.79688,-2.16406 2.51335,-1.15679 4.32855,-1.86952 7.11328,-1.97266 2.45703,1.87109 2.45703,1.87109 4.8125,4.4375 0.79019,0.84434 1.58039,1.68867 2.39453,2.55859 0.59168,0.66129 1.18336,1.32258 1.79297,2.00391 -4.85404,6.15634 -9.15936,10.03984 -17,12 -9.22904,0.76004 -17.47703,0.92599 -25,-5 -4.93244,-4.92424 -8.24905,-8.93282 -9,-16 z"
     style="fill:#0c9ff5"
     id="path297" /><path
     d="m 465.54065,948.4818 c 3.94007,3.31324 5.46336,5.59268 6.3125,10.6875 -0.79494,5.12292 -2.91957,6.98207 -6.5625,10.625 -3.47058,1.73529 -7.23365,1.45653 -11,1 -4.34981,-2.1749 -7.26209,-4.39966 -9,-9 0,-5.32461 0.0598,-7.78029 3.3125,-12 5.20858,-3.87615 11.23114,-4.27542 16.9375,-1.3125 z"
     style="fill:#40b0f8"
     id="path299" /><path
     d="m 338.29065,931.7943 c 9.16917,-0.4189 16.42434,-0.0504 24.1875,5.125 5.59191,5.71617 9.96213,11.62156 9.9375,19.8125 0.004,1.28197 0.004,1.28197 0.008,2.58984 -0.133,2.47266 -0.133,2.47266 -1.133,6.47266 -3.95021,-1.9751 -5.49552,-3.4202 -8.3125,-6.6875 -2.69428,-3.0735 -5.38945,-6.08043 -8.3125,-8.9375 -3.67186,-3.6125 -7.02809,-7.46263 -10.375,-11.375 -0.87785,-1.02094 -0.87785,-1.02094 -1.77344,-2.0625 -1.41156,-1.64351 -2.81946,-3.29017 -4.22656,-4.9375 z"
     style="fill:#34b1f3"
     id="path301" /><path
     d="m 660.79939,932.12633 c 0.72557,0.67958 0.72557,0.67958 1.46579,1.37289 -1.7513,3.12514 -3.50135,5.42786 -6.48567,7.43827 -3.66223,0.17178 -6.93066,-0.21961 -10.54284,-0.82809 -4.19166,-0.12705 -5.72363,0.98097 -8.91418,3.61745 -3.47827,3.73984 -5.93437,7.61904 -8.33872,12.0872 -1.22301,0 -2.44602,0 -3.70609,0 -0.8559,-6.58492 1.74107,-10.71672 5.55914,-15.80634 6.93701,-7.80788 21.08475,-14.12678 30.96257,-7.88138 z"
     style="fill:#ecf9fb;stroke-width:1"
     id="path303" /><path
     d="m 543.29065,946.7943 c 3.5387,1.65139 4.8107,2.71605 7,6 0.5627,4.34084 0.5186,6.27711 -2.0625,9.875 -3.51441,2.54234 -5.61251,3.125 -9.9375,3.125 -3.57388,-1.58839 -4.8109,-2.71634 -7,-6 -0.52673,-4.66536 -0.63175,-7.08109 2.0625,-11 3.68624,-2.50978 5.55488,-2.62609 9.9375,-2 z"
     style="fill:#1bb4f4"
     id="path305" /><path
     d="m 737.29065,1076.7943 c 2.97923,-0.027 5.95821,-0.047 8.9375,-0.062 0.85014,-0.01 1.70027,-0.017 2.57617,-0.025 2.16229,-0.01 4.32466,0.036 6.48633,0.088 1,1 1,1 1.25,4.25 -0.26695,4.0043 -0.76031,5.6594 -3.25,8.75 -5.33618,3.8311 -9.33709,4 -16,4 0,-5.61 0,-11.22 0,-17 z"
     style="fill:#0664a7"
     id="path307" /><path
     d="m 752.72815,961.1693 c 4.61937,0.81042 6.51865,2.06147 9.5625,5.625 0.69817,4.46831 0.56552,6.93682 -1.5625,10.9375 -3.20995,2.71611 -5.25794,3.0625 -9.4375,3.0625 -3.20062,-1.30934 -4.70398,-2.63491 -6.875,-5.3125 -1.45745,-3.4817 -1.31596,-5.11463 -0.125,-8.6875 2.63307,-3.56239 4.04919,-4.82713 8.4375,-5.625 z"
     style="fill:#f4f7f7"
     id="path309" /><path
     d="m 307.29065,1076.7943 c 6.27,0 12.54,0 19,0 0,9.5 0,9.5 -3,13 -5.84,3.4792 -10.10502,4 -17,4 0.33,-5.61 0.66,-11.22 1,-17 z"
     style="fill:#0663a5"
     id="path311" /><path
     d="m 706.29065,1084.7943 c 10.23,0 20.46,0 31,0 0,2.97 0,5.94 0,9 -10.23,0 -20.46,0 -31,0 0,-2.97 0,-5.94 0,-9 z"
     style="fill:#34ccfb"
     id="path313" /><path
     d="m 756.29065,935.7943 c 2.69991,1.79994 4.54189,3.08377 6,6 0.48603,4.29323 0.46242,6.32083 -2,9.9375 -3.98028,2.73644 -6.25732,2.72944 -11,2.0625 -3.80103,-2.02183 -4.76162,-3.28485 -6.125,-7.375 0.16375,-4.74887 1.78647,-6.36411 5.125,-9.625 2.85324,-1.42662 4.83455,-1.31034 8,-1 z"
     style="fill:#f6f8f9"
     id="path315" /><path
     d="m 277.29065,1084.7943 c 9.9,0 19.8,0 30,0 0,8 0,8 -1,9 -2.14559,0.088 -4.29404,0.107 -6.44141,0.098 -1.30517,-0 -2.61035,-0.01 -3.95507,-0.01 -1.37479,-0.01 -2.74958,-0.017 -4.16602,-0.025 -1.37865,-0.01 -2.7573,-0.01 -4.17773,-0.014 -3.41997,-0.012 -6.83985,-0.028 -10.25977,-0.049 0,-2.97 0,-5.94 0,-9 z"
     style="fill:#33c2f6"
     id="path317" /><path
     d="m 706.29065,1076.7943 c 10.23,0 20.46,0 31,0 0,2.64 0,5.28 0,8 -10.23,0 -20.46,0 -31,0 0,-2.64 0,-5.28 0,-8 z"
     style="fill:#0f94e9"
     id="path319" /><path
     d="m 278.29065,1076.7943 c 9.57,0 19.14,0 29,0 0,2.64 0,5.28 0,8 -9.57,0 -19.14,0 -29,0 0,-2.64 0,-5.28 0,-8 z"
     style="fill:#108de7"
     id="path321" /><path
     d="m 652.17981,966.28833 c 1.20447,0.01 2.40894,0.0193 3.6499,0.0293 1.95293,0.009 1.95293,0.009 3.94531,0.018 2.04961,0.0232 2.04961,0.0232 4.14063,0.0468 1.37414,0.008 2.74828,0.0167 4.16406,0.0252 3.40382,0.0218 6.80729,0.0522 10.21094,0.0901 -5.91479,5.78794 -12.56521,8.09061 -21.16675,8.37496 -2.40359,0.0188 -4.80472,0.009 -7.20825,-0.014 -1.24717,-0.006 -1.24717,-0.006 -2.51953,-0.0126 -2.03519,-0.0108 -4.07034,-0.0273 -6.10547,-0.045 7.64275,-8.27743 7.64275,-8.27743 10.88916,-8.51281 z"
     style="fill:#31b8fa;stroke-width:1"
     id="path323" /><path
     d="m 327.29065,935.7943 c 5,5.47619 5,5.47619 5,8 0.66,0 1.32,0 2,0 0.99,1.485 0.99,1.485 2,3 -0.33,1.32 -0.66,2.64 -1,4 -2.6875,0.75 -2.6875,0.75 -6,1 -2.875,-1.9375 -2.875,-1.9375 -5,-4 -2.24008,3.28545 -4.21739,6.43478 -6,10 -1.32,-0.33 -2.64,-0.66 -4,-1 -0.77936,-6.07899 1.66435,-10.13947 5,-15 5.0184,-6 5.0184,-6 8,-6 z"
     style="fill:#ebf8fb"
     id="path325" /><path
     d="m 226.29065,859.5443 c 4,0.25 4,0.25 6,2.25 0.27451,3.34897 0.0863,6.63477 0,10 -3.96,0 -7.92,0 -12,0 -0.19531,-7.61719 -0.19531,-7.61719 0,-10 2,-2 2,-2 6,-2.25 z"
     style="fill:#eaf1f4"
     id="path327" /><path
     d="m 688.29065,1085.7943 c 5.94,0 11.88,0 18,0 0,2.64 0,5.28 0,8 -5.84615,0.3077 -9.8065,-0.2505 -15,-3 -3,-3 -3,-3 -3,-5 z"
     style="fill:#1889cb"
     id="path329" /><path
     d="m 737.29065,1085.7943 c 5.94,0 11.88,0 18,0 -2.11513,4.2303 -2.95048,4.9752 -7,7 -3.87266,0.9682 -7.03611,1.0762 -11,1 0,-2.64 0,-5.28 0,-8 z"
     style="fill:#1688cd"
     id="path331" /><path
     d="m 307.29065,1085.7943 c 5.94,0 11.88,0 18,0 -2.28958,4.5792 -3.4382,5.084 -8,7 -3.87266,0.9682 -7.03611,1.0762 -11,1 0.33,-2.64 0.66,-5.28 1,-8 z"
     style="fill:#1488c9"
     id="path333" /><path
     d="m 634.50043,945.83195 c 0.34634,0.66301 0.69268,1.32602 1.04953,2.00913 -0.94659,2.02474 -1.99047,4.00834 -3.08299,5.96461 -2.53872,4.32182 -2.53872,4.32182 -3.21415,9.10388 2.47009,-0.88619 2.47009,-0.88619 3.14856,-4.01827 1.38538,-0.33151 2.77075,-0.66301 4.19809,-1.00456 0.69269,0.66301 1.38537,1.32602 2.09905,2.00913 -1.47493,1.35142 -2.96461,2.68809 -4.46047,4.01826 -0.82797,0.74589 -1.65596,1.49179 -2.50902,2.26027 -2.47621,1.758 -2.47621,1.758 -6.67431,1.758 -1.5135,-2.89733 -1.14811,-5.44195 -1.11511,-8.66438 0.0101,-1.19395 0.0189,-2.38789 0.0287,-3.61802 0.0122,-0.91941 0.0243,-1.83882 0.0369,-2.7861 0.34635,0.99453 0.6927,1.98904 1.04953,3.01371 4.20908,-0.54723 4.20908,-0.54723 5.75598,-3.08042 0.65751,-1.2412 0.65751,-1.2412 1.32829,-2.50749 0.44918,-0.83006 0.89833,-1.66012 1.36111,-2.51533 0.49516,-0.9615 0.49516,-0.9615 1.00033,-1.94242 z"
     style="fill:#40b2e8;stroke-width:0.999998"
     id="path335" /><path
     d="m 287.29065,1085.7943 c 6.27,0 12.54,0 19,0 0,2.31 0,4.62 0,7 -9.24,0 -18.48,0 -28,0 0,-0.33 0,-0.66 0,-1 5.61,0 11.22,0 17,0 0,-1.65 0,-3.3 0,-5 -2.64,0 -5.28,0 -8,0 0,-0.33 0,-0.66 0,-1 z"
     style="fill:#3ccefe"
     id="path337" /><path
     d="m 262.29065,1084.7943 c 4.95,0 9.9,0 15,0 0,2.64 0,5.28 0,8 -6.81539,0.7174 -6.81539,0.7174 -10.08984,-1.2656 -1.91016,-1.6094 -1.91016,-1.6094 -4.91016,-4.7344 0,-0.66 0,-1.32 0,-2 z"
     style="fill:#0b8cd3"
     id="path339" /><path
     d="m 658.19299,952.59899 c 2.19946,0.01 2.19946,0.01 4.44336,0.0195 1.5306,0.0167 3.0612,0.0336 4.5918,0.0508 1.55793,0.01 3.11588,0.0192 4.67382,0.0273 3.79639,0.0235 7.59245,0.0564 11.38868,0.0977 0,0.66 0,1.32 0,2 -1.03407,0.0146 -2.06814,0.0292 -3.13355,0.0442 -3.84885,0.0612 -7.69699,0.13535 -11.54541,0.21826 -1.66331,0.0332 -3.32674,0.0612 -4.99023,0.084 -2.39591,0.0337 -4.7908,0.086 -7.18628,0.14184 -1.44013,0.0262 -2.88025,0.0524 -4.36402,0.0793 -3.84958,0.44027 -5.59733,1.37863 -8.78051,3.43237 -0.99,-0.33 -1.98,-0.66 -3,-1 5.16465,-5.16465 10.85227,-5.25017 17.90234,-5.19531 z"
     style="fill:#002d4e"
     id="path341" /><path
     d="m 232.29065,1018.7943 c 0.26812,0.5685 0.53625,1.137 0.8125,1.7227 3.93121,7.746 9.3265,12.1736 16.1875,17.2773 -9.73415,-1.3881 -17.24756,-8.4413 -23,-16 3.75,-3 3.75,-3 6,-3 z"
     style="fill:#798b98"
     id="path343" /><path
     d="m 649.29065,964.80833 c 11.55,0 23.1,0 35,0 0,2.96781 0,5.93561 0,8.99335 -0.66,0 -1.32,0 -2,0 0.20625,0.94805 0.4125,1.8961 0.625,2.87288 0.12375,1.03049 0.2475,2.06098 0.375,3.12269 -2.68556,2.68358 -5.37621,3.05825 -9,3.99705 0.72316,-1.06849 0.72316,-1.06849 1.46094,-2.15856 0.63164,-0.95707 1.26328,-1.91413 1.91406,-2.9002 0.62648,-0.93903 1.25297,-1.87807 1.89844,-2.84555 2.15637,-3.57919 2.15637,-3.57919 3.72656,-10.0824 -11.22,0 -22.44,0 -34,0 0,-0.32975 0,-0.65951 0,-0.99926 z"
     style="fill:#043659;stroke-width:1"
     id="path345" /><g
     id="g722"
     transform="matrix(6.9252427,0,0,6.9252427,58.581944,-9.9803264)"
     style="stroke-width:0.144399"><g
       id="layer2"
       style="display:none;stroke-width:0.144399"><path
         sodipodi:nodetypes="ccccccccc"
         id="path3191"
         d="m 12.59673,12.204433 99.19863,0.343791 c -4.96536,5.632123 -7.71569,6.222709 -7.71569,13.802258 L 104.42346,107 c 0,12.63941 -4.43007,17.58396 -14.89608,18.27154 -7.93251,0 -45.70267,-0.0864 -54.65089,-0.12329 C 23.6319,125.28729 19.96863,120.08538 21,107 V 25.319111 c 0,-5.173017 -4.46927,-8.513925 -8.40327,-13.114678 z"
         style="display:inline;overflow:visible;visibility:visible;opacity:0.25;fill:url(#linearGradient3607);fill-opacity:1;fill-rule:nonzero;stroke:none;stroke-width:5.37165;marker:none;enable-background:accumulate" /></g><g
       inkscape:label="Warstwa 1"
       id="layer1"
       style="display:inline;stroke-width:0.144399"><path
         style="display:inline;overflow:visible;visibility:visible;fill:#00c0ff;fill-opacity:1;fill-rule:evenodd;stroke:#000000;stroke-width:0;stroke-linecap:round;stroke-linejoin:round;stroke-miterlimit:4;stroke-dashoffset:0;stroke-opacity:1;marker:none;enable-background:accumulate"
         d="M 24.846149,25.623311 104.76252,25.18553 105,98 c -1.06033,10.59611 1.76746,23.41624 -9,24 H 33 c -10.636521,0.12628 -8.288381,-9.97472 -7.916374,-25.31334 z"
         id="rect2388"
         sodipodi:nodetypes="ccccccc" /><path
         style="opacity:1;fill:#333333;fill-opacity:1;fill-rule:evenodd;stroke:none;stroke-width:0.144399"
         d="m 14.5625,6.96875 c -0.753829,0.060558 -1.403217,0.5492084 -1.6875,1.25 -0.284284,0.7007911 -0.154847,1.493882 0.34375,2.0625 2.054715,2.402962 4.151637,4.39778 5.625,6.28125 1.473363,1.88347 2.3125,3.520714 2.3125,5.53125 v 81.53125 0.15625 C 20.646944,110.44688 21.21761,115.4623 23.875,119 c 2.679401,3.56701 7.254182,4.97962 13.1875,4.90625 8.95853,0.0369 46.677961,0.125 54.625,0.125 0.04166,0.001 0.08334,0.001 0.125,0 5.527518,-0.36314 9.92239,-1.94072 12.78125,-5.375 2.85886,-3.43428 3.96875,-8.32163 3.96875,-14.875 8e-5,-0.0104 8e-5,-0.0208 0,-0.0312 l -0.34375,-80.625 c 0,-3.547867 0.54417,-4.982395 1.625,-6.46875 1.08083,-1.486355 3.01286,-3.103796 5.59375,-6.03125 0.50958,-0.585842 0.62722,-1.4151921 0.3125,-2.125 -0.31473,-0.7098081 -1.00496,-1.1718091 -1.78125,-1.1875 L 14.75,6.96875 c -0.06247,-0.00293 -0.125034,-0.00293 -0.1875,0 z m 4.65625,4 90.1875,0.3125 c -0.92102,0.931531 -2.04502,2.018792 -2.78125,3.03125 -1.53567,2.111856 -2.40625,4.780818 -2.40625,8.8125 l 0.0625,15.90625 c -6.870507,0.139149 -12.152277,0.154068 -19.0625,0 0,10e-7 -1.28978,0.604957 -1.3125,1.78125 -0.02591,1.341585 1.3125,2.21875 1.3125,2.21875 0,10e-7 0.724958,10e-7 19.0625,0 l 0.0625,13.6875 c -6.838677,0.137873 -12.111637,0.15358 -19,0 10e-7,-10e-7 -1.28978,0.604957 -1.3125,1.78125 -0.02591,1.341584 1.3125,2.21875 1.3125,2.21875 10e-7,-10e-7 0.783755,10e-7 19.03125,0 l 0.0625,15.125 c -6.712619,0.132821 -11.949078,0.151631 -18.75,0 0,0 -1.28978,0.09875 -1.3125,1.75 -0.01846,1.341711 1.3125,2.25 1.3125,2.25 0,0 1.243553,10e-7 18.78125,0 l 0.0625,16.4375 c -6.759595,0.134706 -12.010078,0.152361 -18.84375,0 0,2e-6 -1.28978,0.09875 -1.3125,1.75 -0.01846,1.341705 1.3125,2.25 1.3125,2.25 0,0 1.073326,0 18.875,0 v 3.5 c 0,6.08604 -1.05857,9.94276 -3.03125,12.3125 -1.972683,2.36974 -5.030255,3.61306 -9.96875,3.9375 -8.03588,-3.9e-4 -45.613785,-0.0883 -54.53125,-0.125 -0.01042,-8e-5 -0.02083,-8e-5 -0.03125,0 -5.311271,0.0657 -8.20071,-1.04197 -9.90625,-3.3125 -1.70554,-2.27053 -2.436981,-6.31916 -1.9375,-12.65625 0.002,-0.0521 0.002,-0.10419 0,-0.15625 v -81.6875 c 0,-3.162481 -1.411478,-5.769574 -3.15625,-8 -0.849974,-1.086563 -1.8273,-2.102677 -2.78125,-3.125 z"
         id="path3169" /><path
         style="opacity:0.805147;fill:url(#linearGradient3209);fill-opacity:1;fill-rule:evenodd;stroke:none;stroke-width:0.144399"
         d="m 22.560297,13.536178 c 3.600992,3.957947 5.394191,7.915894 5.03154,11.873841 l -0.670873,80.979601 c -1.086145,12.5497 7.207832,12.55029 22.474213,12.11131 -10.90898,-3.35964 -8.543038,-9.47233 -8.721336,-16.86085 L 40.002968,22.797774 c 0.01512,-5.136064 -7.731815,-8.320035 -17.442671,-9.261596 z"
         id="path3201"
         sodipodi:nodetypes="ccccccc" /><path
         sodipodi:nodetypes="ccccccc"
         id="path3211"
         d="m 106.62709,12.823746 c -1.78457,3.957947 -2.67323,7.915894 -2.49351,11.873841 l 0.33247,80.979593 c 0.18521,11.83727 -5.219651,13.02524 -11.137665,12.11131 4.93547,-1.45983 4.233718,-9.47233 4.322079,-16.86085 l 0.332467,-78.842298 c -0.0075,-5.136064 3.831699,-8.320035 8.644159,-9.261596 z"
         style="opacity:0.808824;fill:url(#linearGradient3213);fill-opacity:1;fill-rule:evenodd;stroke:none;stroke-width:0.144399" /></g></g></svg>
