<?xml version="1.0" encoding="UTF-8" standalone="no"?>
<!-- Created with Inkscape (http://www.inkscape.org/) -->

<svg
   height="128"
   width="128"
   id="svg3293"
   sodipodi:version="0.32"
   inkscape:version="1.2.2 (b0a8486541, 2022-12-01)"
   version="1.0"
   sodipodi:docname="inert-solvent-beaker.svg"
   inkscape:output_extension="org.inkscape.output.svg.inkscape"
   inkscape:export-filename="../inert-solvent-beaker.png"
   inkscape:export-xdpi="656.04327"
   inkscape:export-ydpi="656.04327"
   xmlns:inkscape="http://www.inkscape.org/namespaces/inkscape"
   xmlns:sodipodi="http://sodipodi.sourceforge.net/DTD/sodipodi-0.dtd"
   xmlns:xlink="http://www.w3.org/1999/xlink"
   xmlns="http://www.w3.org/2000/svg"
   xmlns:svg="http://www.w3.org/2000/svg"
   xmlns:rdf="http://www.w3.org/1999/02/22-rdf-syntax-ns#"
   xmlns:cc="http://creativecommons.org/ns#"
   xmlns:dc="http://purl.org/dc/elements/1.1/">
  <defs
     id="defs3295">
    <linearGradient
       inkscape:collect="always"
       id="linearGradient3203">
      <stop
         style="stop-color:#ffffff;stop-opacity:1;"
         offset="0"
         id="stop3205" />
      <stop
         style="stop-color:#ffffff;stop-opacity:0;"
         offset="1"
         id="stop3207" />
    </linearGradient>
    <linearGradient
       inkscape:collect="always"
       id="linearGradient3193">
      <stop
         style="stop-color:#00c0bf;stop-opacity:1;"
         offset="0"
         id="stop3195" />
      <stop
         style="stop-color:#00c0bf;stop-opacity:0;"
         offset="1"
         id="stop3197" />
    </linearGradient>
    <inkscape:perspective
       sodipodi:type="inkscape:persp3d"
       inkscape:vp_x="-50 : 600 : 1"
       inkscape:vp_y="0 : 1000 : 0"
       inkscape:vp_z="700 : 600 : 1"
       inkscape:persp3d-origin="300 : 400 : 1"
       id="perspective3637" />
    <inkscape:perspective
       sodipodi:type="inkscape:persp3d"
       inkscape:vp_x="-50 : 600 : 1"
       inkscape:vp_y="0 : 1000 : 0"
       inkscape:vp_z="700 : 600 : 1"
       inkscape:persp3d-origin="300 : 400 : 1"
       id="perspective14" />
    <linearGradient
       inkscape:collect="always"
       xlink:href="#linearGradient3193"
       id="linearGradient3199"
       x1="110.75042"
       y1="65.505647"
       x2="217.94905"
       y2="65.505647"
       gradientUnits="userSpaceOnUse"
       gradientTransform="translate(-100,0)" />
    <linearGradient
       inkscape:collect="always"
       xlink:href="#linearGradient3203"
       id="linearGradient3209"
       x1="16.522675"
       y1="65.66478"
       x2="47.28083"
       y2="65.66478"
       gradientUnits="userSpaceOnUse"
       gradientTransform="matrix(1.4125,0,0,1,-10.983302,0.4749536)" />
    <linearGradient
       inkscape:collect="always"
       xlink:href="#linearGradient3203"
       id="linearGradient3213"
       gradientUnits="userSpaceOnUse"
       x1="15.784125"
       y1="65.664772"
       x2="43.245826"
       y2="65.664777"
       gradientTransform="matrix(-0.7000001,0,0,1,123.25047,-0.2374769)" />
    <linearGradient
       inkscape:collect="always"
       xlink:href="#linearGradient3193"
       id="linearGradient3607"
       gradientUnits="userSpaceOnUse"
       gradientTransform="translate(-102.15369,3.23234)"
       x1="110.75042"
       y1="65.505647"
       x2="217.94905"
       y2="65.505647" />
  </defs>
  <sodipodi:namedview
     id="base"
     pagecolor="#ffffff"
     bordercolor="#666666"
     borderopacity="1.0"
     inkscape:pageopacity="0.0"
     inkscape:pageshadow="2"
     inkscape:cx="92.356801"
     inkscape:cy="55.246159"
     inkscape:zoom="5.9551651"
     inkscape:document-units="px"
     inkscape:current-layer="layer1"
     width="60px"
     height="60px"
     inkscape:grid-points="false"
     gridtolerance="50"
     showgrid="true"
     inkscape:grid-bbox="false"
     inkscape:window-width="3440"
     inkscape:window-height="1371"
     inkscape:window-x="0"
     inkscape:window-y="32"
     inkscape:snap-global="true"
     inkscape:window-maximized="1"
     inkscape:showpageshadow="2"
     inkscape:pagecheckerboard="0"
     inkscape:deskcolor="#d1d1d1">
    <inkscape:grid
       id="GridFromPre046Settings"
       type="xygrid"
       originx="0"
       originy="0"
       spacingx="3"
       spacingy="3"
       color="#0000ff"
       empcolor="#0000ff"
       opacity="0.2"
       empopacity="0.4"
       empspacing="5"
       visible="true"
       enabled="true" />
  </sodipodi:namedview>
  <metadata
     id="metadata3298">
    <rdf:RDF>
      <cc:Work
         rdf:about="">
        <dc:format>image/svg+xml</dc:format>
        <dc:type
           rdf:resource="http://purl.org/dc/dcmitype/StillImage" />
        <dc:title />
      </cc:Work>
    </rdf:RDF>
  </metadata>
  <g
     inkscape:groupmode="layer"
     id="layer2"
     style="display:none">
    <path
       sodipodi:nodetypes="ccccccccc"
       id="path3191"
       d="m 12.59673,12.204433 99.19863,0.343791 c -4.96536,5.632123 -7.71569,6.222709 -7.71569,13.802258 L 104.42346,107 c 0,12.63941 -4.43007,17.58396 -14.89608,18.27154 -7.93251,0 -45.70267,-0.0864 -54.65089,-0.12329 C 23.6319,125.28729 19.96863,120.08538 21,107 l 0,-81.680889 c 0,-5.173017 -4.46927,-8.513925 -8.40327,-13.114678 z"
       style="opacity:0.25;fill:url(#linearGradient3607);fill-opacity:1;fill-rule:nonzero;stroke:none;stroke-width:37.19999695;marker:none;visibility:visible;display:inline;overflow:visible;enable-background:accumulate" />
  </g>
  <g
     inkscape:groupmode="layer"
     inkscape:label="Warstwa 1"
     id="layer1"
     style="display:inline">
    <path
       style="fill:#ededed;fill-opacity:1;fill-rule:evenodd;stroke:#000000;stroke-width:0;stroke-linecap:round;stroke-linejoin:round;stroke-miterlimit:4;stroke-opacity:1;stroke-dashoffset:0;marker:none;visibility:visible;display:inline;overflow:visible;enable-background:accumulate"
       d="M 24.846149,25.623311 104.76252,25.18553 105,98 c -1.06033,10.59611 1.76746,23.41624 -9,24 l -63,0 c -10.636521,0.12628 -8.288381,-9.97472 -7.916374,-25.31334 L 24.846149,25.623311 z"
       id="rect2388"
       sodipodi:nodetypes="ccccccc" />
    <path
       style="opacity:1;fill:#333333;fill-opacity:1;fill-rule:evenodd;stroke:none"
       d="m 14.5625,6.96875 c -0.753829,0.060558 -1.403217,0.5492084 -1.6875,1.25 -0.284284,0.7007911 -0.154847,1.493882 0.34375,2.0625 2.054715,2.402962 4.151637,4.39778 5.625,6.28125 1.473363,1.88347 2.3125,3.520714 2.3125,5.53125 l 0,81.53125 0,0.15625 C 20.646944,110.44688 21.21761,115.4623 23.875,119 c 2.679401,3.56701 7.254182,4.97962 13.1875,4.90625 8.95853,0.0369 46.677961,0.125 54.625,0.125 0.04166,0.001 0.08334,0.001 0.125,0 5.527518,-0.36314 9.92239,-1.94072 12.78125,-5.375 2.85886,-3.43428 3.96875,-8.32163 3.96875,-14.875 8e-5,-0.0104 8e-5,-0.0208 0,-0.0312 l -0.34375,-80.625 c 0,-3.547867 0.54417,-4.982395 1.625,-6.46875 1.08083,-1.486355 3.01286,-3.103796 5.59375,-6.03125 0.50958,-0.585842 0.62722,-1.4151921 0.3125,-2.125 -0.31473,-0.7098081 -1.00496,-1.1718091 -1.78125,-1.1875 L 14.75,6.96875 c -0.06247,-0.00293 -0.125034,-0.00293 -0.1875,0 z m 4.65625,4 90.1875,0.3125 c -0.92102,0.931531 -2.04502,2.018792 -2.78125,3.03125 -1.53567,2.111856 -2.40625,4.780818 -2.40625,8.8125 l 0.0625,15.90625 c -6.870507,0.139149 -12.152277,0.154068 -19.0625,0 0,10e-7 -1.28978,0.604957 -1.3125,1.78125 -0.02591,1.341585 1.3125,2.21875 1.3125,2.21875 0,10e-7 0.724958,10e-7 19.0625,0 l 0.0625,13.6875 c -6.838677,0.137873 -12.111637,0.15358 -19,0 10e-7,-10e-7 -1.28978,0.604957 -1.3125,1.78125 -0.02591,1.341584 1.3125,2.21875 1.3125,2.21875 10e-7,-10e-7 0.783755,10e-7 19.03125,0 l 0.0625,15.125 c -6.712619,0.132821 -11.949078,0.151631 -18.75,0 0,0 -1.28978,0.09875 -1.3125,1.75 -0.01846,1.341711 1.3125,2.25 1.3125,2.25 0,0 1.243553,10e-7 18.78125,0 l 0.0625,16.4375 c -6.759595,0.134706 -12.010078,0.152361 -18.84375,0 0,2e-6 -1.28978,0.09875 -1.3125,1.75 -0.01846,1.341705 1.3125,2.25 1.3125,2.25 0,0 1.073326,0 18.875,0 l 0,3.5 c 0,6.08604 -1.05857,9.94276 -3.03125,12.3125 -1.972683,2.36974 -5.030255,3.61306 -9.96875,3.9375 -8.03588,-3.9e-4 -45.613785,-0.0883 -54.53125,-0.125 -0.01042,-8e-5 -0.02083,-8e-5 -0.03125,0 -5.311271,0.0657 -8.20071,-1.04197 -9.90625,-3.3125 -1.70554,-2.27053 -2.436981,-6.31916 -1.9375,-12.65625 0.002,-0.0521 0.002,-0.10419 0,-0.15625 l 0,-81.6875 c 0,-3.162481 -1.411478,-5.769574 -3.15625,-8 -0.849974,-1.086563 -1.8273,-2.102677 -2.78125,-3.125 z"
       id="path3169" />
    <path
       style="opacity:0.80514706;fill:url(#linearGradient3209);fill-opacity:1;fill-rule:evenodd;stroke:none"
       d="m 22.560297,13.536178 c 3.600992,3.957947 5.394191,7.915894 5.03154,11.873841 l -0.670873,80.979601 c -1.086145,12.5497 7.207832,12.55029 22.474213,12.11131 -10.90898,-3.35964 -8.543038,-9.47233 -8.721336,-16.86085 L 40.002968,22.797774 c 0.01512,-5.136064 -7.731815,-8.320035 -17.442671,-9.261596 z"
       id="path3201"
       sodipodi:nodetypes="ccccccc" />
    <path
       sodipodi:nodetypes="ccccccc"
       id="path3211"
       d="m 106.62709,12.823746 c -1.78457,3.957947 -2.67323,7.915894 -2.49351,11.873841 l 0.33247,80.979593 c 0.18521,11.83727 -5.219651,13.02524 -11.137665,12.11131 4.93547,-1.45983 4.233718,-9.47233 4.322079,-16.86085 l 0.332467,-78.842298 c -0.0075,-5.136064 3.831699,-8.320035 8.644159,-9.261596 z"
       style="opacity:0.80882353;fill:url(#linearGradient3213);fill-opacity:1;fill-rule:evenodd;stroke:none" />
  </g>
</svg>
