<?xml version="1.0" encoding="UTF-8" standalone="no"?>
<!-- Created with Inkscape (http://www.inkscape.org/) -->

<svg
   version="1.0"
   width="500"
   height="500"
   viewBox="0 0 1 1"
   id="svg23264"
   inkscape:version="1.2.2 (b0a8486541, 2022-12-01)"
   sodipodi:docname="uv-light.svg"
   xml:space="preserve"
   xmlns:inkscape="http://www.inkscape.org/namespaces/inkscape"
   xmlns:sodipodi="http://sodipodi.sourceforge.net/DTD/sodipodi-0.dtd"
   xmlns="http://www.w3.org/2000/svg"
   xmlns:svg="http://www.w3.org/2000/svg"
   xmlns:rdf="http://www.w3.org/1999/02/22-rdf-syntax-ns#"
   xmlns:cc="http://creativecommons.org/ns#"
   xmlns:dc="http://purl.org/dc/elements/1.1/"><metadata
     id="metadata3527"><rdf:RDF><cc:Work
         rdf:about=""><dc:format>image/svg+xml</dc:format><dc:type
           rdf:resource="http://purl.org/dc/dcmitype/StillImage" /><dc:title>SVG drawing</dc:title></cc:Work></rdf:RDF></metadata><sodipodi:namedview
     pagecolor="#ffffff"
     bordercolor="#666666"
     borderopacity="1"
     objecttolerance="10"
     gridtolerance="10"
     guidetolerance="10"
     inkscape:pageopacity="0"
     inkscape:pageshadow="2"
     inkscape:window-width="3440"
     inkscape:window-height="1371"
     id="namedview3525"
     showgrid="false"
     inkscape:zoom="0.71629917"
     inkscape:cx="348.31815"
     inkscape:cy="355.9965"
     inkscape:window-x="0"
     inkscape:window-y="32"
     inkscape:window-maximized="1"
     inkscape:current-layer="svg23264"
     inkscape:showpageshadow="2"
     inkscape:pagecheckerboard="0"
     inkscape:deskcolor="#d1d1d1" /><defs
     id="defs23331" /><title
     id="title23266">SVG drawing</title><desc
     id="desc23268">This was produced by version 4.1 of GNU libplot, a free library for exporting 2-D vector graphics.</desc><polygon
     points="182.85,519.35 210.04,519.35 210.04,546.5 182.85,546.5 "
     transform="matrix(0.03616491,0,0,-0.03621801,-6.6019395,19.802955)"
     style="font-style:normal;font-variant:normal;font-weight:normal;font-stretch:normal;letter-spacing:normal;word-spacing:normal;text-anchor:start;fill:#9400d3;fill-opacity:1;fill-rule:evenodd;stroke:#000000;stroke-width:0.460514;stroke-linecap:butt;stroke-linejoin:miter;stroke-miterlimit:10.433;stroke-dasharray:none;stroke-dashoffset:0;stroke-opacity:1"
     id="polygon23274" /><path
     style="fill:#feffa2;stroke-width:1;opacity:1;fill-opacity:1"
     d="m 0.4866212,0.91320536 c -0.006549,-0.001886 -0.009401,-0.003452 -0.0151879,-0.008331 -0.004917,-0.004149 -0.010666,-0.0129739 -0.0121653,-0.0186746 -6.2872e-4,-0.002393 -0.001461,-0.002821 -0.00661,-0.003378 -0.0113753,-0.001233 -0.0221764,-0.008388 -0.0281875,-0.0186699 l -0.0027,-0.004616 0.0788898,-5.2506e-4 c 0.0433895,-2.888e-4 0.0790712,-4.3859e-4 0.0792918,-3.329e-4 0.00136,6.4963e-4 -0.002912,0.008024 -0.007315,0.0126261 -0.006025,0.006309 -0.0146529,0.0105729 -0.0232756,0.011507 -0.004413,4.7882e-4 -0.005955,0.001082 -0.005955,0.002338 -2.31e-6,0.003308 -0.00665,0.0143563 -0.0110358,0.018334 C 0.5299227,0.905706 0.5259927,0.908425 0.5236557,0.909526 0.5133605,0.914357 0.4964496,0.916037 0.4866189,0.913207 Z M 0.4136478,0.83562396 c -0.005562,-0.003403 -0.007909,-0.008333 -0.007909,-0.0166349 l -2.32e-6,-0.006942 0.006025,-6.6222e-4 c 0.003315,-3.6421e-4 0.0461663,-6.6631e-4 0.0952294,-6.7134e-4 l 0.0892062,-9.12e-6 v 0.008453 c 0,0.009752 -0.001703,0.0137101 -0.007224,0.0167925 -0.003557,0.001984 -0.006388,0.002049 -0.0875468,0.002054 l -0.0838732,4.19e-6 z m 0.003154,-0.0458654 c -0.007698,-0.002314 -0.011064,-0.008023 -0.011064,-0.0187453 v -0.007204 L 0.5009672,0.76354753 0.5961966,0.7632858 v 0.00913 0.00913 l -0.004453,0.004077 -0.004453,0.004077 -0.0296796,1.05e-6 c -0.0163235,6.6e-7 -0.0539457,2.3536e-4 -0.0836042,5.2152e-4 -0.0321945,3.1066e-4 -0.0552464,1.2302e-4 -0.0572041,-4.6501e-4 z M 0.29217398,0.75530787 c -0.004756,-0.002186 -0.009199,-0.007874 -0.009199,-0.0117673 0,-0.001537 0.001713,-0.005366 0.003798,-0.008509 0.024132,-0.0363427 0.0341018,-0.0505324 0.0381391,-0.0542827 0.004131,-0.003837 0.005481,-0.004463 0.009602,-0.004463 0.006106,0 0.0110479,0.002336 0.0132685,0.006266 0.003365,0.005951 0.002348,0.009097 -0.008151,0.0252481 -0.005441,0.008369 -0.0132564,0.0204147 -0.0173723,0.0267679 -0.009461,0.0145987 -0.0122852,0.0180667 -0.0167587,0.0205631 -0.004474,0.002494 -0.008181,0.002543 -0.013325,1.7623e-4 z m 0.4037249,-5.6418e-4 c -0.005763,-0.003552 -0.0434822,-0.0606345 -0.0434822,-0.0658031 0,-0.003789 0.003214,-0.008927 0.006791,-0.0108628 0.001824,-9.8538e-4 0.005642,-0.001792 0.008494,-0.001792 0.006992,0 0.0103738,0.002779 0.0188605,0.0155053 0.003748,0.005623 0.0123053,0.0184475 0.0190136,0.0284996 0.00671,0.0100523 0.0125109,0.0198117 0.0128957,0.0216882 0.001058,0.005177 -0.002176,0.0104334 -0.00801,0.0130207 -0.006257,0.002772 -0.009753,0.00271 -0.0145643,-2.5582e-4 z M 0.40655294,0.74167663 c -2.6882e-4,-4.4353e-4 -6.0272e-4,-0.009496 -7.4197e-4,-0.020118 -1.9426e-4,-0.0148057 -7.5224e-4,-0.0210968 -0.002388,-0.0269627 -0.00664,-0.0237683 -0.0207043,-0.0425816 -0.0481532,-0.0644223 -0.0451265,-0.0359058 -0.0704253,-0.0703482 -0.084508,-0.11505208 -0.0066,-0.0209316 -0.008856,-0.0366102 -0.008877,-0.0614634 -1.864e-5,-0.0289662 0.003809,-0.0506233 0.0134459,-0.0761348 0.017864,-0.0472759 0.0560878,-0.0903458 0.10464352,-0.1179094 0.0172434,-0.009788 0.0328897,-0.0160207 0.0568696,-0.0226525 0.0231295,-0.006397 0.0325824,-0.007499 0.064119,-0.007479 0.0320142,1.985e-5 0.0400464,9.9631e-4 0.0651901,0.007925 0.0915861,0.0252372 0.15562499,0.0921275 0.17184557,0.17949707 0.005139,0.0276541 0.004877,0.0529078 -7.9819e-4,0.0792852 -0.007254,0.0337072 -0.0226832,0.065413 -0.0448706,0.0922157 -0.008524,0.0102927 -0.0312605,0.031364 -0.0480605,0.0445324 -0.0227728,0.0178506 -0.0382086,0.0391996 -0.0447588,0.0619073 -0.001824,0.006324 -0.002519,0.0127934 -0.003013,0.0280381 l -6.3738e-4,0.019817 -0.0273693,-3.895e-4 -0.0273693,-3.895e-4 -2.32e-6,-0.0373425 -2.31e-6,-0.0373425 0.009793,-0.0314413 c 0.00538,-0.0172927 0.0150076,-0.0474337 0.0213885,-0.0669801 0.0115738,-0.0354574 0.011596,-0.0355471 0.009703,-0.0391756 -0.00272,-0.005211 -0.008846,-0.00746 -0.0149622,-0.00549 -0.002469,7.9454e-4 -0.005421,0.002626 -0.006559,0.00407 -0.001139,0.001444 -0.00799,0.0212915 -0.0152081,0.0441057 -0.007224,0.0228141 -0.016789,0.0525654 -0.0212605,0.0661137 l -0.008131,0.0246333 v 0.0397188 0.0397188 l -0.0146287,-2.939e-4 -0.0146287,-2.9391e-4 -5.8448e-4,-0.0420053 -5.8449e-4,-0.0420053 -0.006509,-0.0183773 c -0.008534,-0.0240944 -0.0160232,-0.0467875 -0.0267013,-0.0808603 -0.004796,-0.0153056 -0.009652,-0.02901 -0.010797,-0.0304538 -0.003335,-0.004216 -0.007718,-0.005708 -0.0127355,-0.004334 -0.009118,0.0025 -0.0108252,0.008032 -0.006529,0.0211769 0.007426,0.0227421 0.0199043,0.0611359 0.0295134,0.0907959 l 0.0105471,0.0325542 -6.9995e-4,0.0367548 -7.0005e-4,0.0367548 -0.0268998,2.8136e-4 c -0.014795,1.5476e-4 -0.0271194,-8.15e-5 -0.0273885,-5.2507e-4 z m 0.10312987,-0.0269548 0.003899,-0.00357 v -0.0894185 c 0,-0.098148 3.073e-4,-0.0937867 -0.006851,-0.0971725 -0.004363,-0.002067 -0.007506,-0.002013 -0.011602,1.9862e-4 -0.007063,0.003819 -0.006791,-7.479e-5 -0.006791,0.0972676 v 0.0887654 l 0.003869,0.00375 c 0.003244,0.003153 0.004635,0.00375 0.008715,0.00375 0.00399,0 0.005552,-6.3486e-4 0.008756,-0.00357 z M 0.36328172,0.57501088 c 0,-2.5469e-4 -5.1627e-4,-7.5515e-4 -0.001149,-0.001112 -6.3103e-4,-3.5696e-4 -0.001149,-1.4857e-4 -0.001149,4.6309e-4 0,6.1166e-4 5.1627e-4,0.001112 0.001149,0.001112 6.3104e-4,0 0.001149,-2.084e-4 0.001149,-4.6309e-4 z m -0.0172101,-0.016339 c 0,-5.7758e-4 -5.468e-4,-0.00105 -0.001219,-0.00105 -6.6832e-4,0 -8.9602e-4,4.7256e-4 -5.06e-4,0.00105 3.9003e-4,5.7757e-4 9.3683e-4,0.00105 0.001219,0.00105 2.7828e-4,0 5.0599e-4,-4.7257e-4 5.06e-4,-0.00105 z m -0.004584,-0.00315 c 0,-5.7756e-4 -5.468e-4,-0.00105 -0.001219,-0.00105 -6.6832e-4,0 -8.9603e-4,4.7255e-4 -5.06e-4,0.00105 3.9003e-4,5.7759e-4 9.3683e-4,0.00105 0.001219,0.00105 2.7828e-4,0 5.0599e-4,-4.7256e-4 5.06e-4,-0.00105 z m 0.007456,0 c 3.9003e-4,-5.7756e-4 -1.2634e-4,-0.00105 -0.001149,-0.00105 -0.001018,0 -0.001542,4.7255e-4 -0.001149,0.00105 3.9003e-4,5.7759e-4 9.063e-4,0.00105 0.001149,0.00105 2.4101e-4,0 7.5728e-4,-4.7256e-4 0.001149,-0.00105 z m -0.009753,-0.002563 c 0,-2.547e-4 -5.1628e-4,-7.5515e-4 -0.001149,-0.001112 -6.3103e-4,-3.5697e-4 -0.001149,-1.4859e-4 -0.001149,4.6308e-4 0,6.1166e-4 5.1628e-4,0.001112 0.001149,0.001112 6.3103e-4,0 0.001149,-2.0839e-4 0.001149,-4.6308e-4 z m 0.00803,0 c 0,-2.547e-4 -5.1637e-4,-7.5515e-4 -0.001149,-0.001112 -6.3103e-4,-3.5697e-4 -0.001149,-1.4859e-4 -0.001149,4.6308e-4 0,6.1166e-4 5.1627e-4,0.001112 0.001149,0.001112 6.3104e-4,0 0.001149,-2.0839e-4 0.001149,-4.6308e-4 z m -0.003446,-0.004196 c 0,-3.3493e-4 -9.992e-4,-3.78e-5 -0.002217,6.6026e-4 -0.001219,6.9806e-4 -0.001965,0.001651 -0.001652,0.002117 5.5598e-4,8.2343e-4 0.003869,-0.001555 0.003869,-0.002777 z m -0.009531,-1.607e-5 c -0.00262,-0.002395 -0.003788,-0.00198 -0.00136,4.815e-4 0.001149,0.001159 0.002317,0.00189 0.00261,0.001625 2.8927e-4,-2.6482e-4 -2.7305e-4,-0.001212 -0.001249,-0.002106 z m 0.004947,1.194e-5 c 0,-2.547e-4 -5.1638e-4,-7.5515e-4 -0.001149,-0.001112 -6.3103e-4,-3.5696e-4 -0.001149,-1.4857e-4 -0.001149,4.6309e-4 0,6.1166e-4 5.1628e-4,0.001112 0.001149,0.001112 6.3103e-4,0 0.001149,-2.0839e-4 0.001149,-4.6309e-4 z m 0.007093,-0.001865 c -8.2328e-4,-7.5353e-4 -0.00136,-8.1553e-4 -0.00136,-1.5752e-4 0,0.001402 0.00136,0.002643 0.002126,0.001943 3.2605e-4,-2.9841e-4 -1.813e-5,-0.001102 -7.6372e-4,-0.001785 z m -0.004796,2.2753e-4 c 0,-5.7757e-4 -5.468e-4,-0.00105 -0.001219,-0.00105 -6.6832e-4,0 -8.9603e-4,4.7256e-4 -5.06e-4,0.00105 3.9003e-4,5.7758e-4 9.3683e-4,0.00105 0.001219,0.00105 2.7828e-4,0 5.0599e-4,-4.7256e-4 5.06e-4,-0.00105 z m -0.0110569,-0.00262 c -3.6181e-4,-8.6304e-4 -0.001118,-0.001308 -0.001683,-9.8816e-4 -0.001622,9.1638e-4 -0.001199,0.002557 6.5784e-4,0.002557 0.001028,0 0.001431,-6.1601e-4 0.001028,-0.001569 z m 0.02253,5.1904e-4 c 0,-5.7757e-4 -5.468e-4,-0.00105 -0.001219,-0.00105 -6.6832e-4,0 -8.9603e-4,4.7257e-4 -5.06e-4,0.00105 3.9003e-4,5.7757e-4 9.3683e-4,0.00105 0.001219,0.00105 2.7828e-4,0 5.0599e-4,-4.7256e-4 5.06e-4,-0.00105 z m -0.0238106,-0.00279 c 0.00266,-0.001533 0.005521,-0.003424 0.006368,-0.0042 0.001904,-0.001739 0.002821,-0.001769 0.004594,-1.5089e-4 9.5668e-4,8.7562e-4 0.00138,9.0234e-4 0.00138,8.748e-5 0,-6.4496e-4 -6.0252e-4,-0.001356 -0.00134,-0.001581 -8.1945e-4,-2.4998e-4 -3.0429e-4,-0.00129 0.00133,-0.002682 l 0.00267,-0.002274 -0.005219,-0.0102977 c -0.005864,-0.0115642 -0.0128675,-0.0309145 -0.0147285,-0.0406943 -6.7859e-4,-0.003567 -0.001844,-0.0118784 -0.0026,-0.0184703 l -0.00136,-0.0119857 -0.0123194,-2.9806e-4 -0.0123194,-2.9806e-4 v 0.00941 c 0,0.0156716 0.002982,0.0310432 0.009884,0.0510431 0.003204,0.00927 0.0163769,0.0351795 0.0178872,0.0351795 5.2484e-4,0 0.003123,-0.001254 0.005783,-0.00279 z m 0.008312,6.8278e-4 c -0.001149,-0.001159 -0.002307,-0.001899 -0.002589,-0.001645 -6.7134e-4,6.1442e-4 0.002307,0.00366 0.003637,0.00371 5.7108e-4,2.196e-5 1.0095e-4,-9.0807e-4 -0.001048,-0.002067 z m -0.00401,6.44e-6 c 0,-5.7758e-4 -2.2771e-4,-0.00105 -5.0599e-4,-0.00105 -2.7829e-4,0 -8.2509e-4,4.7255e-4 -0.001219,0.00105 -3.9003e-4,5.7757e-4 -1.6232e-4,0.00105 5.06e-4,0.00105 6.6821e-4,0 0.001219,-4.7255e-4 0.001219,-0.00105 z m 0.0103265,-0.002101 c 0,-5.7757e-4 -5.468e-4,-0.00105 -0.001219,-0.00105 -6.6831e-4,0 -8.9602e-4,4.7257e-4 -5.0599e-4,0.00105 3.9002e-4,5.7758e-4 9.3683e-4,0.00105 0.001219,0.00105 2.7829e-4,0 5.06e-4,-4.7256e-4 5.0599e-4,-0.00105 z m -0.004584,-0.00105 c 0,-5.7758e-4 -5.1638e-4,-0.00105 -0.001149,-0.00105 -6.3103e-4,0 -0.001149,4.7256e-4 -0.001149,0.00105 0,5.7757e-4 5.1628e-4,0.00105 0.001149,0.00105 6.3104e-4,0 0.001149,-4.7256e-4 0.001149,-0.00105 z m 0.0992455,-0.0488201 c 0.004635,-4.1283e-4 0.009924,-0.001959 0.0161653,-0.004724 0.0153663,-0.006806 0.0267154,-0.0197758 0.0301482,-0.0344566 8.6509e-4,-0.0037 0.0013,-0.0220707 0.0013,-0.0548156 v -0.0492507 l -0.0166378,-3.165e-4 -0.0166378,-3.1648e-4 2.21e-6,0.0432664 c 1.11e-6,0.0268236 -4.6559e-4,0.0452613 -0.001229,0.0485155 -0.002589,0.0110503 -0.0121491,0.0183648 -0.0240111,0.0183713 -0.007083,4.2e-6 -0.0123124,-0.002037 -0.0181018,-0.007065 -0.006811,-0.005919 -0.007144,-0.008583 -0.007144,-0.0581216 v -0.0444402 h -0.0173562 -0.0173562 l 7.0579e-4,0.0501439 c 7.5678e-4,0.0537723 9.3119e-4,0.0554222 0.007013,0.0663848 0.006348,0.0114416 0.0152595,0.0186429 0.0296434,0.0239607 0.00671,0.002482 0.0183829,0.00434 0.0237361,0.00378 0.001572,-1.6526e-4 0.005965,-5.7666e-4 0.009753,-9.16e-4 z m 0.16034862,-0.0254766 c 0.005401,-0.0142949 0.0152051,-0.0396951 0.0217915,-0.0564448 0.006589,-0.0167497 0.0144353,-0.036811 0.0174429,-0.0445808 0.003013,-0.007769 0.005723,-0.01474 0.006035,-0.0154896 4.5351e-4,-0.001082 -0.003204,-0.001362 -0.0177502,-0.001362 h -0.0183214 l -0.0132605,0.0359671 c -0.007295,0.019782 -0.0143748,0.0391517 -0.0157371,0.0430441 -0.00136,0.003892 -0.002902,0.007315 -0.003416,0.007605 -0.001118,6.3267e-4 -0.005068,-0.009172 -0.0215043,-0.0533304 l -0.0124272,-0.0333975 -0.0180454,-2.068e-4 c -0.009924,-1.1373e-4 -0.0180423,2.95e-5 -0.0180393,3.1827e-4 6.86e-6,7.529e-4 0.0191597,0.0510922 0.0267688,0.070359 0.003537,0.008953 0.009824,0.0252557 0.0139819,0.0362297 0.004151,0.0109739 0.009199,0.0238495 0.0112222,0.0286124 l 0.003668,0.00866 0.0138842,4.19e-6 0.0138842,4.21e-6 0.009814,-0.0259909 z m -0.2756629,-0.0438399 c 0,-0.008633 0.008222,-0.0318402 0.0170449,-0.0480921 0.006207,-0.011444 0.006559,-0.0124597 0.004615,-0.0134123 -0.001159,-5.669e-4 -0.005572,-0.00343 -0.009804,-0.006365 -0.008826,-0.006115 -0.007597,-0.006551 -0.0152796,0.005403 -0.007909,0.0123029 -0.0174922,0.0363807 -0.0207285,0.0520709 -0.002106,0.0102287 -0.002186,0.0101497 0.0109723,0.0120326 0.006307,9.0225e-4 0.0118459,0.001465 0.0123194,0.001251 4.7335e-4,-2.1435e-4 8.6055e-4,-0.001514 8.605e-4,-0.002888 z m 0.0477986,-0.0879519 c 0.007123,-0.006763 0.0188927,-0.0169122 0.0228323,-0.0196901 0.001229,-8.6635e-4 0.004373,-0.003111 0.006982,-0.004988 0.00261,-0.001877 0.00527,-0.003414 0.005894,-0.003414 6.3053e-4,0 0.001441,-7.0885e-4 0.001804,-0.001576 3.6322e-4,-8.6637e-4 0.001683,-0.001576 0.002922,-0.001576 0.002962,0 0.004101,-0.001799 0.002358,-0.003721 -7.6262e-4,-8.4106e-4 -9.3612e-4,-0.001537 -3.8559e-4,-0.001545 5.5053e-4,-8.39e-6 4.7275e-4,-3.6326e-4 -1.729e-4,-7.876e-4 -0.002307,-0.001518 -0.005219,-0.006627 -0.004433,-0.007788 4.8765e-4,-7.2221e-4 2.8292e-4,-8.9096e-4 -5.2595e-4,-4.3344e-4 -7.8489e-4,4.44e-4 -0.00132,8.223e-5 -0.00132,-8.8788e-4 0,-9.0044e-4 -5.1627e-4,-0.001637 -0.001149,-0.001637 -6.3103e-4,0 -0.001108,-8.2699e-4 -0.001058,-0.001837 5.411e-5,-0.001098 3.2353e-4,-0.001309 6.6933e-4,-5.2506e-4 3.1828e-4,7.2197e-4 0.001159,0.001313 0.001874,0.001313 7.339e-4,0 4.8957e-4,-7.3955e-4 -5.6252e-4,-0.001703 -0.001713,-0.001569 -0.002519,-0.00136 -0.0102952,0.002691 -0.0137431,0.007157 -0.0274197,0.0171175 -0.0398066,0.0289922 -0.006398,0.006134 -0.0116343,0.0115526 -0.0116343,0.0120412 0,0.001154 0.016256,0.0135173 0.017861,0.0135843 6.7325e-4,2.814e-5 0.004333,-0.002902 0.008141,-0.00651 z M 0.4742113,0.29489029 c -3.6624e-4,-8.3771e-4 -6.3808e-4,-5.8888e-4 -6.931e-4,6.3447e-4 -4.987e-5,0.001107 2.2136e-4,0.001727 6.0252e-4,0.001379 3.8126e-4,-3.4895e-4 4.2207e-4,-0.001254 9.058e-5,-0.002013 z m -0.0607125,-0.002953 c -7.8822e-4,-0.001155 -0.001824,-0.002101 -0.002307,-0.002101 -0.00127,0 -0.001068,9.3262e-4 5.6282e-4,0.00263 0.002156,0.002239 0.003375,0.001868 0.001743,-5.2929e-4 z m 0.0111174,-0.001123 c -0.001078,-0.001598 -0.002801,-0.00111 -0.002086,5.916e-4 3.6181e-4,8.6305e-4 0.001128,0.001303 0.001703,9.7759e-4 5.7512e-4,-3.254e-4 7.4872e-4,-0.001032 3.859e-4,-0.001569 z m 0.004846,-1.2434e-4 c -3.6624e-4,-8.3771e-4 -6.3818e-4,-5.8889e-4 -6.932e-4,6.3447e-4 -4.977e-5,0.001107 2.2136e-4,0.001727 6.0262e-4,0.001379 3.8126e-4,-3.4895e-4 4.2197e-4,-0.001254 9.058e-5,-0.002013 z m 0.005159,-3.066e-5 c -8.2337e-4,-7.5353e-4 -0.00136,-8.1552e-4 -0.00136,-1.5752e-4 0,5.9684e-4 3.4418e-4,0.0014 7.6484e-4,0.001786 4.2065e-4,3.8506e-4 0.001028,4.5595e-4 0.00136,1.5753e-4 3.2605e-4,-2.9841e-4 -1.813e-5,-0.001102 -7.6484e-4,-0.001786 z m 0.0382258,0.001277 c 3.9003e-4,-5.7757e-4 1.6232e-4,-0.00105 -5.059e-4,-0.00105 -6.6831e-4,0 -0.001219,4.7255e-4 -0.001219,0.00105 0,5.7758e-4 2.2761e-4,0.00105 5.0589e-4,0.00105 2.7829e-4,0 8.2509e-4,-4.7256e-4 0.001219,-0.00105 z m 0.0426621,-0.002298 c -3.6625e-4,-8.3772e-4 -6.3809e-4,-5.8888e-4 -6.931e-4,6.3447e-4 -4.988e-5,0.001107 2.2136e-4,0.001727 6.0252e-4,0.001379 3.8126e-4,-3.4895e-4 4.2206e-4,-0.001254 9.058e-5,-0.002013 z M 0.4411009,0.28940205 c 0.001723,-8.1579e-4 0.007506,-0.002488 0.0128504,-0.003718 0.00534,-0.001229 0.0117814,-0.002718 0.0143063,-0.003311 0.002519,-5.9165e-4 0.005733,-8.7698e-4 0.007134,-6.3408e-4 0.001401,2.429e-4 0.002297,7.214e-5 0.001995,-3.7945e-4 -5.0398e-4,-7.4649e-4 0.007164,-0.001986 0.014792,-0.00239 0.003013,-1.5951e-4 0.004101,-0.002062 0.001904,-0.003305 -0.001783,-0.001006 0.00134,-0.003438 0.003688,-0.002875 0.001118,2.6877e-4 0.002045,9.8489e-4 0.002045,0.001592 0,6.0647e-4 3.1708e-4,8.1252e-4 7.0449e-4,4.5789e-4 7.5204e-4,-6.8833e-4 -0.00401,-0.006766 -0.004856,-0.006189 -2.7416e-4,1.8772e-4 -0.001128,1.0689e-4 -0.001904,-1.7962e-4 -7.73e-4,-2.8652e-4 -3.6756e-4,-5.5823e-4 9.0096e-4,-6.0383e-4 0.00127,-4.558e-5 0.003758,0.001147 0.005521,0.002648 0.003829,0.003253 0.005219,0.002855 0.001793,-5.1464e-4 -0.003577,-0.003511 -0.002136,-0.00354 0.002136,-4.474e-5 0.00405,0.003312 0.004494,0.00412 0.002297,0.004145 -7.8882e-4,8.4e-6 -0.002166,4.3851e-4 -0.003053,9.5483e-4 -0.00136,7.9117e-4 -0.00131,0.001221 3.4146e-4,0.002735 0.001078,9.8754e-4 0.002327,0.001439 0.002771,0.001002 4.4322e-4,-4.366e-4 1.605e-4,-0.001005 -6.2832e-4,-0.001263 -0.002005,-6.5498e-4 -0.001793,-0.002394 2.8686e-4,-0.002394 9.465e-4,0 0.001723,4.7257e-4 0.001723,0.00105 0,5.7758e-4 6.1955e-4,0.00105 0.00138,0.00105 0.001058,0 0.001058,-2.8837e-4 2.73e-5,-0.001235 -9.46e-4,-8.6584e-4 -9.9164e-4,-0.00163 -1.5264e-4,-0.002555 8.8806e-4,-9.7937e-4 -2.2932e-4,-0.002555 -0.004333,-0.006109 -0.006448,-0.005587 -0.006146,-0.006522 3.7018e-4,-0.001151 0.002438,0.002007 0.004816,0.003663 0.00529,0.003676 0.001622,4.589e-5 8.6066e-4,-0.001611 -0.001431,-0.003125 -0.001259,-8.3258e-4 -0.002297,-0.001977 -0.002297,-0.002542 0,-5.6557e-4 6.1954e-4,-4.6125e-4 0.00138,2.3183e-4 0.001924,0.001761 0.003587,0.001573 0.002801,-3.1504e-4 -9.5708e-4,-0.002283 -1.612e-4,-0.001975 0.004433,0.00172 0.003758,0.003019 0.004222,0.003145 0.005532,0.001507 0.00131,-0.001636 0.001743,-0.001515 0.005118,0.00144 0.003214,0.002813 0.00398,0.003059 0.005985,0.001915 0.001259,-7.2146e-4 0.002297,-0.001671 0.002297,-0.002109 0,-0.001331 0.003214,-8.9041e-4 0.003748,5.1515e-4 3.602e-4,9.4258e-4 0.001199,7.4441e-4 0.002982,-7.0294e-4 0.002448,-0.001988 0.002509,-0.001988 0.004151,0 9.1638e-4,0.001109 0.001693,0.001543 0.001723,9.6547e-4 2.972e-5,-5.7757e-4 5.343e-4,-3.5498e-4 0.001118,4.9465e-4 5.87e-4,8.4963e-4 0.001471,0.001179 0.001955,7.3052e-4 8.2882e-4,-7.5868e-4 3.1275e-4,-0.001232 -0.004212,-0.003861 -0.001531,-8.8978e-4 -0.001531,-0.00113 0,-0.002169 0.001461,-9.9296e-4 0.001421,-0.00108 -2.8686e-4,-5.7723e-4 -0.001108,3.2514e-4 -0.002005,8.224e-5 -0.002005,-5.3985e-4 0,-6.9182e-4 -0.001149,-8.6658e-4 -0.002962,-4.5002e-4 -0.001924,4.4159e-4 -0.00271,2.9702e-4 -0.002227,-4.1121e-4 9.7803e-4,-0.001448 -7.144e-5,-0.001381 -0.002801,1.8068e-4 -0.001229,7.001e-4 -0.00262,9.1069e-4 -0.003103,4.6798e-4 -4.8373e-4,-4.4272e-4 -1.6987e-4,-0.001206 6.9733e-4,-0.001697 0.001139,-6.4407e-4 8.1048e-4,-8.9946e-4 -0.001179,-9.189e-4 -0.003083,-3.002e-5 -0.0107889,-8.844e-4 -0.0107889,-0.001196 0,-1.1023e-4 -0.001421,-2.9579e-4 -0.003154,-4.1232e-4 -0.001733,-1.1656e-4 -0.003154,1.5812e-4 -0.003154,6.1038e-4 0,4.5224e-4 -5.4681e-4,8.2227e-4 -0.001219,8.2227e-4 -6.6831e-4,0 -8.9592e-4,-4.7256e-4 -5.06e-4,-0.00105 0.001199,-0.001777 -7.9486e-4,-0.001161 -0.002549,7.8761e-4 -0.001572,0.00175 -0.001622,0.00175 -0.001018,0 7.3441e-4,-0.002138 0.001703,-0.002016 -0.0156212,-0.001983 -0.0142257,2.635e-5 -0.0291174,0.001933 -0.0433381,0.005547 -0.0125582,0.003192 -0.0228514,0.007174 -0.0241109,0.009328 -7.469e-4,0.001277 -0.001904,0.00169 -0.003587,0.001287 -0.001602,-3.8351e-4 -0.002217,-1.9601e-4 -0.001733,5.2624e-4 7.9638e-4,0.00118 0.003587,0.001161 0.004887,-3.213e-5 0.002045,-0.001873 0.006338,0.005875 0.005511,0.009938 -2.7386e-4,0.001336 -1.9094e-4,0.001837 1.8418e-4,0.001116 7.2524e-4,-0.001396 0.002952,-0.001856 0.002539,-5.2508e-4 -2.9199e-4,9.4334e-4 0.002368,0.005513 0.003204,0.005513 3.2464e-4,0 0.001995,-6.6748e-4 0.003728,-0.001483 z m 0.0875206,-0.0212455 c -0.00136,-0.001404 -0.00136,-0.001785 0,-0.002585 0.00135,-7.9417e-4 0.00133,-0.001092 -9.511e-5,-0.001933 -9.2826e-4,-5.4617e-4 -0.00135,-0.001306 -9.2998e-4,-0.001687 4.1673e-4,-3.8146e-4 0.002106,5.4411e-4 0.003758,0.002057 0.00266,0.002435 0.002811,0.00293 0.0013,0.004311 -0.002066,0.001889 -0.002045,0.001889 -0.00404,-1.6413e-4 z m 0.003315,-0.001424 c 0,-5.7757e-4 -5.1627e-4,-0.00105 -0.001149,-0.00105 -6.3103e-4,0 -0.001149,4.7257e-4 -0.001149,0.00105 0,5.7757e-4 5.1637e-4,0.00105 0.001149,0.00105 6.3104e-4,0 0.001149,-4.7257e-4 0.001149,-0.00105 z m 0.004947,-4.5311e-4 c -7.5083e-4,-7.8285e-4 -0.001058,-0.001706 -6.7919e-4,-0.00205 8.1673e-4,-7.4751e-4 0.003768,0.001314 0.003768,0.002633 0,0.001343 -0.001511,0.001058 -0.003083,-5.8262e-4 z m -0.0191295,-2.78e-4 c -0.001169,-0.001069 -8.4363e-4,-0.002607 4.0151e-4,-0.001903 6.2287e-4,3.5234e-4 0.002267,-3.2861e-4 0.003657,-0.001513 0.002589,-0.002206 0.005058,-0.002947 0.003849,-0.001153 -0.001229,0.001823 -0.007164,0.00525 -0.007909,0.004569 z m -0.0133169,-0.002944 c 0,-5.7757e-4 5.0056e-4,-0.001758 0.001108,-0.002626 6.1179e-4,-8.6635e-4 0.001108,-0.001103 0.001108,-5.2506e-4 0,5.7757e-4 -5.0045e-4,0.001758 -0.001108,0.002626 -6.1169e-4,8.6636e-4 -0.001108,0.001103 -0.001108,5.2506e-4 z m 0.0120121,-0.001576 c 0.003154,-0.00124 0.004967,-0.00124 0.002872,0 -9.465e-4,5.5988e-4 -0.002499,9.9201e-4 -0.003446,9.6024e-4 -0.001139,-3.8e-5 -9.3935e-4,-3.6514e-4 5.74e-4,-9.6024e-4 z m -0.0235215,-0.001048 c 0,-5.7756e-4 5.468e-4,-0.00105 0.001219,-0.00105 6.6831e-4,0 8.9602e-4,4.7257e-4 5.0599e-4,0.00105 -3.9002e-4,5.7758e-4 -9.3672e-4,0.00105 -0.001219,0.00105 -2.7829e-4,0 -5.059e-4,-4.7256e-4 -5.0599e-4,-0.00105 z m 0.008605,0 c -3.8992e-4,-5.7756e-4 -1.6232e-4,-0.00105 5.06e-4,-0.00105 6.6831e-4,0 0.001219,4.7257e-4 0.001219,0.00105 0,5.7758e-4 -2.277e-4,0.00105 -5.0589e-4,0.00105 -2.7829e-4,0 -8.2509e-4,-4.7256e-4 -0.001219,-0.00105 z m -0.0808878,0.0283536 c 0,-5.7759e-4 -5.468e-4,-0.00105 -0.001219,-0.00105 -6.6831e-4,0 -8.9602e-4,4.7255e-4 -5.0599e-4,0.00105 3.9002e-4,5.7756e-4 9.3683e-4,0.00105 0.001219,0.00105 2.7829e-4,0 5.06e-4,-4.7257e-4 5.0599e-4,-0.00105 z m 0.0349935,0 c -3.9003e-4,-5.7759e-4 -0.00132,-0.001043 -0.002076,-0.001034 -8.2106e-4,9.46e-6 -6.796e-4,4.224e-4 3.5446e-4,0.001034 0.002207,0.001305 0.0026,0.001305 0.001723,0 z m -0.0378631,-0.002101 c 3.8993e-4,-5.7756e-4 1.6232e-4,-0.00105 -5.0599e-4,-0.00105 -6.6832e-4,0 -0.001219,4.7256e-4 -0.001219,0.00105 0,5.7758e-4 2.2771e-4,0.00105 5.059e-4,0.00105 2.7828e-4,0 8.2509e-4,-4.7256e-4 0.001219,-0.00105 z m 0.0120474,0 c 0,-5.7756e-4 -2.2771e-4,-0.00105 -5.0599e-4,-0.00105 -2.7829e-4,0 -8.2509e-4,4.7256e-4 -0.001219,0.00105 -3.9003e-4,5.7758e-4 -1.6232e-4,0.00105 5.059e-4,0.00105 6.6831e-4,0 0.001219,-4.7256e-4 0.001219,-0.00105 z m 0.0338469,0 c 3.9002e-4,-5.7756e-4 1.6232e-4,-0.00105 -5.059e-4,-0.00105 -6.6831e-4,0 -0.001219,4.7256e-4 -0.001219,0.00105 0,5.7758e-4 2.276e-4,0.00105 5.0589e-4,0.00105 2.7829e-4,0 8.2509e-4,-4.7256e-4 0.001219,-0.00105 z m 0.11186611,5.8705e-4 c 0,-2.5469e-4 -5.1638e-4,-7.5516e-4 -0.001149,-0.001112 -6.3103e-4,-3.5697e-4 -0.001149,-1.4858e-4 -0.001149,4.6308e-4 0,6.1165e-4 5.1628e-4,0.001112 0.001149,0.001112 6.3103e-4,0 0.001149,-2.0838e-4 0.001149,-4.6308e-4 z m -0.16349634,-0.001637 c -3.9002e-4,-5.7759e-4 -0.001229,-0.00105 -0.001854,-0.00105 -6.3104e-4,0 -8.2822e-4,4.7255e-4 -4.3819e-4,0.00105 3.8992e-4,5.7757e-4 0.001229,0.00105 0.001854,0.00105 6.3103e-4,0 8.2821e-4,-4.7255e-4 4.3819e-4,-0.00105 z m 0.077446,0 c 0,-5.7759e-4 -2.2771e-4,-0.00105 -5.06e-4,-0.00105 -2.7829e-4,0 -8.2509e-4,4.7255e-4 -0.001219,0.00105 -3.9002e-4,5.7757e-4 -1.6231e-4,0.00105 5.06e-4,0.00105 6.6821e-4,0 0.001219,-4.7255e-4 0.001219,-0.00105 z m 0.003446,0 c 0,-5.7759e-4 -5.1638e-4,-0.00105 -0.001149,-0.00105 -6.3104e-4,0 -0.001149,4.7255e-4 -0.001149,0.00105 0,5.7757e-4 5.1628e-4,0.00105 0.001149,0.00105 6.3103e-4,0 0.001149,-4.7255e-4 0.001149,-0.00105 z m 0.0397935,-0.001247 c -3.6635e-4,-8.3772e-4 -6.3819e-4,-5.8889e-4 -6.932e-4,6.3447e-4 -4.977e-5,0.001107 2.2136e-4,0.001727 6.0262e-4,0.001379 3.8126e-4,-3.4895e-4 4.2197e-4,-0.001254 9.058e-5,-0.002013 z m -0.11092273,6.4695e-4 c 0,-7.8423e-4 -0.003083,-0.0036 -0.00394,-0.0036 -3.6595e-4,0 -2.046e-5,9.4513e-4 7.6766e-4,0.002101 0.00135,0.001971 0.003174,0.002836 0.003174,0.001501 z M 0.47113824,0.284586 c 0,-5.7758e-4 -2.2771e-4,-0.00105 -5.06e-4,-0.00105 -2.7829e-4,0 -8.2509e-4,4.7256e-4 -0.001219,0.00105 -3.9002e-4,5.7756e-4 -1.6231e-4,0.00105 5.06e-4,0.00105 6.6821e-4,0 0.001219,-4.7257e-4 0.001219,-0.00105 z m 0.0367154,-5.2508e-4 c -7.8559e-4,-8.6635e-4 -0.001985,-0.001576 -0.00266,-0.001576 -6.7446e-4,0 -2.2398e-4,6.9381e-4 0.001001,0.001542 0.002882,0.001993 0.003436,0.002004 0.001652,3.385e-5 z m 0.0493361,5.2508e-4 c 0,-5.7758e-4 -2.2771e-4,-0.00105 -5.06e-4,-0.00105 -2.7829e-4,0 -8.2509e-4,4.7256e-4 -0.001219,0.00105 -3.9002e-4,5.7756e-4 -1.6231e-4,0.00105 5.059e-4,0.00105 6.6831e-4,0 0.001219,-4.7257e-4 0.001219,-0.00105 z M 0.41491853,0.283537 c 0,-5.7758e-4 -5.468e-4,-0.00105 -0.001219,-0.00105 -6.6832e-4,0 -8.9592e-4,4.7255e-4 -5.06e-4,0.00105 3.9003e-4,5.7757e-4 9.3683e-4,0.00105 0.001219,0.00105 2.7828e-4,0 5.0599e-4,-4.7257e-4 5.06e-4,-0.00105 z m 0.0596616,0 c 0,-5.7758e-4 -5.1628e-4,-0.00105 -0.001149,-0.00105 -6.3103e-4,0 -0.001149,4.7255e-4 -0.001149,0.00105 0,5.7757e-4 5.1628e-4,0.00105 0.001149,0.00105 6.3103e-4,0 0.001149,-4.7257e-4 0.001149,-0.00105 z m 0.0202912,-0.001313 c 7.003e-5,-0.0013 -1.4086e-4,-0.001719 -4.6841e-4,-9.3132e-4 -4.9411e-4,0.001188 -7.5678e-4,0.001193 -0.001542,3.046e-5 -5.203e-4,-7.7059e-4 -0.00132,-0.001055 -0.001783,-6.3304e-4 -4.6146e-4,4.2241e-4 1.5577e-4,0.001458 0.00137,0.002299 0.001219,8.4202e-4 0.002227,0.001546 0.002257,0.001564 2.358e-5,1.837e-5 9.995e-5,-0.00103 1.6978e-4,-0.002329 z m 0.0166348,3.497e-5 c -8.2327e-4,-7.5354e-4 -0.00136,-8.1554e-4 -0.00136,-1.5752e-4 0,0.001402 0.00136,0.002643 0.002126,0.001943 3.2604e-4,-2.9841e-4 -1.814e-5,-0.001102 -7.6474e-4,-0.001785 z m 0.0192948,2.2756e-4 c 0,-5.7757e-4 -5.468e-4,-0.00105 -0.001219,-0.00105 -6.6831e-4,0 -8.9592e-4,4.7257e-4 -5.0599e-4,0.00105 3.9002e-4,5.7757e-4 9.3683e-4,0.00105 0.001219,0.00105 2.7829e-4,0 5.06e-4,-4.7256e-4 5.0599e-4,-0.00105 z m 0.0183577,-1.1514e-4 c 0.001471,-9.6836e-4 0.001441,-0.001051 -2.127e-4,-5.6799e-4 -0.001068,3.1083e-4 -0.002186,9.9e-7 -0.002489,-6.8854e-4 -3.065e-4,-6.8951e-4 -5.9798e-4,-4.2669e-4 -6.4776e-4,5.8407e-4 -1.0357e-4,0.002101 8.8182e-4,0.002299 0.003355,6.7246e-4 z m 0.026389,1.1514e-4 c 0,-5.7757e-4 -2.277e-4,-0.00105 -5.0599e-4,-0.00105 -2.7819e-4,0 -8.2499e-4,4.7257e-4 -0.001219,0.00105 -3.8992e-4,5.7757e-4 -1.6232e-4,0.00105 5.06e-4,0.00105 6.6831e-4,0 0.001219,-4.7256e-4 0.001219,-0.00105 z M 0.4114773,0.28143753 c 0,-5.7757e-4 -5.1628e-4,-0.00105 -0.001149,-0.00105 -6.3104e-4,0 -0.001149,4.7256e-4 -0.001149,0.00105 0,5.7758e-4 5.1638e-4,0.00105 0.001149,0.00105 6.3103e-4,0 0.001149,-4.7256e-4 0.001149,-0.00105 z m 0.0183577,0 c 0,-5.7757e-4 -5.468e-4,-0.00105 -0.001219,-0.00105 -6.6822e-4,0 -8.9592e-4,4.7256e-4 -5.059e-4,0.00105 3.8993e-4,5.7758e-4 9.3673e-4,0.00105 0.001219,0.00105 2.7829e-4,0 5.0589e-4,-4.7256e-4 5.059e-4,-0.00105 z m 0.11129231,5.8705e-4 c 0,-2.547e-4 -5.1628e-4,-7.5516e-4 -0.001149,-0.001112 -6.3103e-4,-3.5697e-4 -0.001149,-1.4857e-4 -0.001149,4.6309e-4 0,6.1165e-4 5.1628e-4,0.001112 0.001149,0.001112 6.3103e-4,0 0.001149,-2.0839e-4 0.001149,-4.6309e-4 z m -0.0252414,-0.001637 c 0,-5.7757e-4 -2.2771e-4,-0.00105 -5.06e-4,-0.00105 -2.7828e-4,0 -8.2499e-4,4.7255e-4 -0.001219,0.00105 -3.9003e-4,5.7758e-4 -1.6232e-4,0.00105 5.0599e-4,0.00105 6.6832e-4,0 0.001219,-4.7255e-4 0.001219,-0.00105 z m 0.0490248,4.1568e-4 c -3.8126e-4,-3.4895e-4 -0.00137,-3.8624e-4 -0.002196,-8.286e-5 -9.1527e-4,3.3522e-4 -6.4343e-4,5.8407e-4 6.932e-4,6.3445e-4 0.001209,4.558e-5 0.001884,-2.026e-4 0.001511,-5.5159e-4 z m 0.007768,-4.1568e-4 c 3.9003e-4,-5.7757e-4 1.6232e-4,-0.00105 -5.0599e-4,-0.00105 -6.6821e-4,0 -0.001219,4.7255e-4 -0.001219,0.00105 0,5.7758e-4 2.2771e-4,0.00105 5.06e-4,0.00105 2.7829e-4,0 8.2509e-4,-4.7255e-4 0.001219,-0.00105 z m 0.006307,5.8706e-4 c 0,-2.5471e-4 -5.1627e-4,-7.5515e-4 -0.001149,-0.001112 -6.3103e-4,-3.5696e-4 -0.001149,-1.4857e-4 -0.001149,4.6309e-4 0,6.1166e-4 5.1627e-4,0.001112 0.001149,0.001112 6.3104e-4,0 0.001149,-2.0838e-4 0.001149,-4.6309e-4 z m -0.16379044,-0.001284 c -7.9274e-4,-2.9252e-4 -0.001149,-9.6406e-4 -7.9285e-4,-0.001491 3.5678e-4,-5.2824e-4 1.0187e-4,-9.6045e-4 -5.6645e-4,-9.6045e-4 -0.00136,0 -0.001612,0.001384 -4.5017e-4,0.002451 4.2065e-4,3.8505e-4 0.00132,6.6278e-4 0.002005,6.1719e-4 6.8736e-4,-4.579e-5 5.9869e-4,-3.2066e-4 -1.9859e-4,-6.1582e-4 z m 0.007748,-3.5247e-4 c 0,-5.7758e-4 -5.1628e-4,-0.00105 -0.001149,-0.00105 -6.3103e-4,0 -0.001149,4.7255e-4 -0.001149,0.00105 0,5.7757e-4 5.1628e-4,0.00105 0.001149,0.00105 6.3104e-4,0 0.001149,-4.7256e-4 0.001149,-0.00105 z m 0.10096624,0 c 0,-5.7758e-4 -5.1628e-4,-0.00105 -0.001149,-0.00105 -6.3103e-4,0 -0.001149,4.7255e-4 -0.001149,0.00105 0,5.7757e-4 5.1628e-4,0.00105 0.001149,0.00105 6.3103e-4,0 0.001149,-4.7256e-4 0.001149,-0.00105 z m 0.0160625,-0.002353 c 0,-4.3865e-4 -5.1628e-4,-7.9753e-4 -0.001149,-7.9753e-4 -6.3104e-4,0 -0.001149,-4.7256e-4 -0.001149,-0.00105 0,-5.7757e-4 7.7441e-4,-0.00105 0.001723,-0.00105 9.466e-4,0 0.001723,4.5773e-4 0.001723,0.001017 0,5.5944e-4 7.7451e-4,7.4517e-4 0.001723,4.127e-4 9.466e-4,-3.3246e-4 0.001723,-0.001012 0.001723,-0.001509 0,-4.9766e-4 -7.7441e-4,-6.3284e-4 -0.001723,-3.0037e-4 -0.002358,8.273e-4 -0.002176,-6.6248e-4 2.8504e-4,-0.002306 0.001108,-7.3842e-4 0.001582,-0.001735 0.001058,-0.002214 -5.2383e-4,-4.7949e-4 -0.001612,-4.558e-5 -0.002418,9.6428e-4 -8.0675e-4,0.00101 -0.001834,0.001836 -0.002277,0.001836 -4.4877e-4,0 -0.001632,7.5174e-4 -0.00264,0.001671 -0.001552,0.001423 -0.001582,0.001824 -2.0484e-4,0.002705 0.001239,7.937e-4 0.00129,0.001159 1.8599e-4,0.001567 -7.8871e-4,2.9294e-4 -0.001431,9.6981e-4 -0.001431,0.001504 0,5.3433e-4 0.001038,3.8127e-4 0.002297,-3.4012e-4 0.001259,-7.2141e-4 0.002297,-0.001671 0.002297,-0.00211 z m 0.004584,0.002353 c 0,-5.7758e-4 -5.1628e-4,-0.00105 -0.001149,-0.00105 -6.3103e-4,0 -0.001149,4.7255e-4 -0.001149,0.00105 0,5.7757e-4 5.1628e-4,0.00105 0.001149,0.00105 6.3103e-4,0 0.001149,-4.7256e-4 0.001149,-0.00105 z m 0.0118912,-5.1904e-4 c -3.6181e-4,-8.6304e-4 -0.001179,-0.001276 -0.001804,-9.1886e-4 -7.069e-4,3.9986e-4 -5.5012e-4,9.9797e-4 4.0706e-4,0.001554 0.002086,0.001211 0.002156,0.00118 0.001401,-6.3514e-4 z m 0.00532,-7.3095e-4 c 0,-0.001381 -0.00261,-5.1598e-4 -0.003184,0.001053 -2.795e-4,7.6739e-4 2.4504e-4,0.001002 0.00136,6.0961e-4 9.993e-4,-3.5097e-4 0.001814,-0.0011 0.001814,-0.001663 z m 0.005733,0.00125 c 0,-5.7757e-4 -5.468e-4,-0.00105 -0.001219,-0.00105 -6.6832e-4,0 -8.9593e-4,4.7256e-4 -5.06e-4,0.00105 3.9003e-4,5.7758e-4 9.3683e-4,0.00105 0.001219,0.00105 2.7828e-4,0 5.0599e-4,-4.7255e-4 5.06e-4,-0.00105 z m -0.13940218,-0.00105 c 3.8993e-4,-5.7757e-4 -1.2635e-4,-0.00105 -0.001149,-0.00105 -0.001018,0 -0.001542,4.7256e-4 -0.001149,0.00105 3.9002e-4,5.7758e-4 9.063e-4,0.00105 0.001149,0.00105 2.4101e-4,0 7.5728e-4,-4.7256e-4 0.001149,-0.00105 z m 0.0728576,-2.2347e-4 c 0,-0.001095 -0.00133,-0.001021 -0.003426,1.9307e-4 -0.00134,7.7614e-4 -0.001159,9.4967e-4 8.6046e-4,8.1058e-4 0.001411,-9.735e-5 0.002569,-5.4899e-4 0.002569,-0.001004 z m 0.0114741,2.2347e-4 c 0,-5.7757e-4 -2.2771e-4,-0.00105 -5.06e-4,-0.00105 -2.7829e-4,0 -8.2509e-4,4.7256e-4 -0.001219,0.00105 -3.9003e-4,5.7758e-4 -1.6232e-4,0.00105 5.0599e-4,0.00105 6.6821e-4,0 0.001219,-4.7256e-4 0.001219,-0.00105 z m 0.018931,0 c 3.8992e-4,-5.7757e-4 1.9274e-4,-0.00105 -4.3829e-4,-0.00105 -6.3104e-4,0 -0.001461,4.7256e-4 -0.001854,0.00105 -3.9003e-4,5.7758e-4 -1.9285e-4,0.00105 4.3829e-4,0.00105 6.3103e-4,0 0.001461,-4.7256e-4 0.001854,-0.00105 z m 0.018931,0 c 0,-5.7757e-4 -2.2771e-4,-0.00105 -5.06e-4,-0.00105 -2.7829e-4,0 -8.2509e-4,4.7256e-4 -0.001219,0.00105 -3.9002e-4,5.7758e-4 -1.6231e-4,0.00105 5.06e-4,0.00105 6.6821e-4,0 0.001219,-4.7256e-4 0.001219,-0.00105 z m -0.13079733,-0.00105 c 0,-5.7757e-4 -5.1628e-4,-0.00105 -0.001149,-0.00105 -6.3103e-4,0 -0.001149,4.7257e-4 -0.001149,0.00105 0,5.7759e-4 5.1628e-4,0.00105 0.001149,0.00105 6.3103e-4,0 0.001149,-4.7255e-4 0.001149,-0.00105 z m 0.10085843,-0.001695 c -7.5154e-4,-8.2889e-4 -9.9255e-4,-0.001849 -5.3552e-4,-0.002268 4.5703e-4,-4.1832e-4 0.001481,5.828e-5 0.002287,0.00106 7.9949e-4,0.001001 0.001814,0.00149 0.002257,0.001088 4.3929e-4,-4.0209e-4 -3.7854e-4,-0.001544 -0.001814,-0.002537 -0.001441,-9.9336e-4 -0.002207,-0.00218 -0.001713,-0.002634 4.9814e-4,-4.5594e-4 0.00139,-1.3385e-4 0.001975,7.1579e-4 5.87e-4,8.4963e-4 0.001078,0.001166 0.001088,7.0308e-4 9.17e-6,-4.6293e-4 0.00131,4.3811e-4 0.002902,0.002002 0.001582,0.001564 0.003154,0.002596 0.003476,0.002294 3.3028e-4,-3.0231e-4 -0.001259,-0.00225 -0.003526,-0.00433 -0.003456,-0.003159 -0.004474,-0.003586 -0.006196,-0.002597 -0.001662,9.5239e-4 -0.002589,7.4096e-4 -0.004725,-0.001085 -0.001461,-0.001247 -0.003083,-0.002268 -0.003587,-0.002268 -0.001461,0 -0.001088,0.001858 5.0317e-4,0.002539 0.001149,4.9005e-4 0.001149,7.3509e-4 0,0.001225 -0.002348,0.001 -0.001673,0.002091 0.002579,0.004187 0.002207,0.001088 0.00402,0.002608 0.00402,0.003378 0,7.691e-4 5.4136e-4,0.001092 0.001199,7.1785e-4 8.1995e-4,-4.6386e-4 7.6786e-4,-0.00116 -1.6353e-4,-0.002188 z m -0.004987,-0.003113 c -0.001209,-8.0919e-4 -0.001824,-0.001817 -0.00136,-0.002239 4.6156e-4,-4.2241e-4 0.001199,-2.6187e-4 0.001632,3.5677e-4 4.39e-4,6.1863e-4 0.001552,0.001345 0.002458,0.001616 9.1546e-4,2.6965e-4 0.001169,7.7115e-4 5.61e-4,0.001115 -6.0685e-4,3.4331e-4 -0.002096,-3.779e-5 -0.003305,-8.4685e-4 z m 0.0119768,0.004808 c 0,-5.7757e-4 -5.1627e-4,-0.00105 -0.001149,-0.00105 -6.3103e-4,0 -0.001149,4.7257e-4 -0.001149,0.00105 0,5.7759e-4 5.1637e-4,0.00105 0.001149,0.00105 6.3104e-4,0 0.001149,-4.7255e-4 0.001149,-0.00105 z m 0.006882,-5.2506e-4 c 0,-8.6636e-4 -5.0006e-4,-0.001576 -0.001108,-0.001576 -6.1118e-4,0 -8.1411e-4,7.0885e-4 -4.5088e-4,0.001576 3.6322e-4,8.6636e-4 8.6328e-4,0.001576 0.001108,0.001576 2.4796e-4,0 4.5089e-4,-7.0885e-4 4.5088e-4,-0.001576 z m 0.0122579,-7.2197e-4 c -3.6624e-4,-8.3773e-4 -6.3808e-4,-5.889e-4 -6.932e-4,6.3446e-4 -4.977e-5,0.001107 2.2136e-4,0.001727 6.0262e-4,0.001379 3.8126e-4,-3.4895e-4 4.2207e-4,-0.001254 9.058e-5,-0.002013 z m 0.0244575,0.001247 c 0,-5.7757e-4 -2.2761e-4,-0.00105 -5.0589e-4,-0.00105 -2.7829e-4,0 -8.2509e-4,4.7257e-4 -0.001219,0.00105 -3.9003e-4,5.7757e-4 -1.6232e-4,0.00105 5.059e-4,0.00105 6.6831e-4,0 0.001219,-4.7256e-4 0.001219,-0.00105 z m -0.0539255,-4.631e-4 c 0,-0.001109 -0.002207,-0.001575 -0.002861,-6.0417e-4 -3.9637e-4,5.8699e-4 8.423e-5,0.001067 0.001068,0.001067 9.8388e-4,0 0.001793,-2.0837e-4 0.001793,-4.6283e-4 z m 0.0390096,-0.002949 c 0,-4.4354e-4 -0.001038,-2.162e-4 -0.002297,5.052e-4 -0.001259,7.2141e-4 -0.002297,0.001674 -0.002297,0.002117 0,4.4353e-4 0.001038,2.1619e-4 0.002297,-5.052e-4 0.001259,-7.2141e-4 0.002297,-0.001674 0.002297,-0.002117 z m 0.007406,-0.001292 c 0.001864,-0.001409 0.003144,-0.002786 0.002851,-0.003059 -6.5683e-4,-6.0125e-4 -0.009108,0.005952 -0.009108,0.007063 0,4.3088e-4 6.4544e-4,2.8295e-4 0.001431,-3.2873e-4 7.8882e-4,-6.1171e-4 0.002962,-0.002266 0.004826,-0.003675 z m 0.001773,0.003654 c 0,-5.7756e-4 -5.1627e-4,-0.00105 -0.001149,-0.00105 -6.3104e-4,0 -0.001149,4.7257e-4 -0.001149,0.00105 0,5.7759e-4 5.1637e-4,0.00105 0.001149,0.00105 6.3103e-4,0 0.001149,-4.7255e-4 0.001149,-0.00105 z m 0.007869,-0.001182 c -0.00129,-7.619e-4 -0.001259,-0.001096 1.6433e-4,-0.001953 9.466e-4,-5.6873e-4 0.001209,-0.001034 5.737e-4,-0.001034 -6.3103e-4,0 -0.001864,4.154e-4 -0.002741,9.2312e-4 -0.00136,7.8748e-4 -0.00136,0.001155 0,0.002499 8.7597e-4,8.6675e-4 0.002035,0.00133 0.002579,0.00103 5.4066e-4,-3.0037e-4 2.8252e-4,-9.5961e-4 -5.738e-4,-0.001465 z m -0.0749866,1.3125e-4 c -3.9002e-4,-5.7757e-4 -0.001199,-0.00105 -0.001793,-0.00105 -5.9375e-4,0 -0.001078,4.7256e-4 -0.001078,0.00105 0,5.7759e-4 8.0494e-4,0.00105 0.001793,0.00105 9.8388e-4,0 0.001471,-4.7255e-4 0.001078,-0.00105 z m 0.0702006,-3.971e-4 c -3.337e-4,-7.9596e-4 -2.75e-5,-0.001977 6.8041e-4,-0.002626 7.6493e-4,-7.0009e-4 8.2166e-4,-0.001179 1.3985e-4,-0.001179 -0.001904,0 -0.003758,0.002262 -0.003113,0.003803 3.337e-4,7.9597e-4 0.001118,0.001447 0.001753,0.001447 6.3104e-4,0 8.7426e-4,-6.5126e-4 5.3995e-4,-0.001446 z m -0.0550218,-2.3735e-4 c -3.8126e-4,-3.4895e-4 -0.00137,-3.8626e-4 -0.002196,-8.285e-5 -9.1527e-4,3.3522e-4 -6.4333e-4,5.8406e-4 6.932e-4,6.3444e-4 0.001209,4.558e-5 0.001884,-2.0259e-4 0.001511,-5.5159e-4 z m 0.0370258,-4.1568e-4 c 0,-5.7757e-4 -2.2761e-4,-0.00105 -5.059e-4,-0.00105 -2.7829e-4,0 -8.2509e-4,4.7256e-4 -0.001219,0.00105 -3.9003e-4,5.7758e-4 -1.6232e-4,0.00105 5.0589e-4,0.00105 6.6832e-4,0 0.001219,-4.7255e-4 0.001219,-0.00105 z m -0.0154076,-0.001501 c 0.002368,-0.002168 0.002015,-0.002932 -6.5562e-4,-0.001406 -0.001259,7.2139e-4 -0.002297,0.001671 -0.002297,0.002109 0,0.001225 0.001139,9.5271e-4 0.002953,-7.03e-4 z m 0.0131134,-1.303e-5 c 0,-2.5469e-4 -5.1628e-4,-7.5515e-4 -0.001149,-0.001112 -6.3103e-4,-3.5697e-4 -0.001149,-1.4857e-4 -0.001149,4.6308e-4 0,6.1166e-4 5.1638e-4,0.001112 0.001149,0.001112 6.3103e-4,0 0.001149,-2.084e-4 0.001149,-4.6308e-4 z m 0.005733,-5.8704e-4 c 0,-5.7758e-4 -5.1628e-4,-0.00105 -0.001149,-0.00105 -6.3104e-4,0 -0.001149,4.7256e-4 -0.001149,0.00105 0,5.7758e-4 5.1627e-4,0.00105 0.001149,0.00105 6.3103e-4,0 0.001149,-4.7256e-4 0.001149,-0.00105 z m 0.009139,-0.003576 c 1.985e-5,-5.227e-4 -9.997e-4,-9.241e-5 -0.002267,9.5618e-4 -0.00127,0.001048 -0.00265,0.001589 -0.003073,0.001202 -4.2327e-4,-3.8747e-4 2.2519e-4,-0.001393 0.001441,-0.002236 0.001864,-0.00129 0.001914,-0.001537 3.4358e-4,-0.001564 -0.003023,-5.398e-5 -0.004937,0.002718 -0.003123,0.004503 0.0013,0.001277 0.001874,0.001247 0.004081,-2.1311e-4 0.001411,-9.3411e-4 0.002579,-0.002126 0.002589,-0.002647 z m -0.008212,-0.001609 c 2.8685e-4,-7.876e-4 -1.4338e-4,-0.001182 -0.001004,-9.1886e-4 -8.2822e-4,2.5268e-4 -0.001733,0.00108 -0.002005,0.001837 -2.8686e-4,7.8761e-4 1.4347e-4,0.001182 0.001004,9.1887e-4 8.2821e-4,-2.527e-4 0.001733,-0.00108 0.002005,-0.001837 z m -0.004373,-0.001116 c 0,-5.7757e-4 -5.1627e-4,-0.00105 -0.001149,-0.00105 -6.3104e-4,0 -0.001149,4.7257e-4 -0.001149,0.00105 0,5.7758e-4 5.1637e-4,0.00105 0.001149,0.00105 6.3103e-4,0 0.001149,-4.7255e-4 0.001149,-0.00105 z M 0.17761981,0.69305666 c -0.002327,-0.001299 -0.004695,-0.003969 -0.006096,-0.006863 -0.004141,-0.008562 -0.002861,-0.0101097 0.0295003,-0.0357744 0.005733,-0.004544 0.0211124,-0.0167675 0.0341845,-0.027164 0.0130721,-0.0103963 0.0254217,-0.019748 0.0274449,-0.0207815 0.007003,-0.003576 0.0162832,5.23e-5 0.0196101,0.007663 0.004121,0.00943 0.002358,0.0124884 -0.0149421,0.0258354 -0.0254157,0.019613 -0.0459507,0.0356041 -0.0590288,0.0459675 -0.0173895,0.0137797 -0.0225502,0.0156502 -0.0306729,0.011117 z m 0.62771968,-0.002784 c -0.005713,-0.00423 -0.0503245,-0.0389298 -0.0754299,-0.0586743 -0.004443,-0.003497 -0.009068,-0.008009 -0.010263,-0.0100266 -0.003103,-0.005227 -0.001773,-0.0107012 0.003859,-0.0158562 0.003657,-0.003348 0.005128,-0.003989 0.009159,-0.003989 0.00264,0 0.005914,5.4808e-4 0.007285,0.001218 0.002751,0.001349 0.0663679,0.0500724 0.0799719,0.0612517 0.0104655,0.0086 0.0126036,0.011423 0.0126126,0.0166536 1.038e-5,0.005474 -0.003013,0.009766 -0.008645,0.0122609 -0.007456,0.003303 -0.0109804,0.002764 -0.0185496,-0.002838 z M 0.1364161,0.58756786 c -0.0104172,-0.004145 -0.0112071,-0.0196278 -0.001219,-0.023948 0.0114116,-0.004937 0.0815881,-0.0280521 0.0851629,-0.0280521 0.007637,0 0.0132726,0.006191 0.0132726,0.0145815 0,0.007392 -0.003305,0.009511 -0.0281099,0.0180443 -0.0426933,0.0146861 -0.0616827,0.0209305 -0.0635276,0.02089 -0.001028,-2.258e-5 -0.003537,-7.0472e-4 -0.005582,-0.001516 z m 0.71964873,8.0323e-4 c -0.003456,-7.6821e-4 -0.0787316,-0.0263485 -0.0820354,-0.0278772 -0.007365,-0.003405 -0.008564,-0.0146453 -0.002267,-0.0210949 0.002962,-0.003029 0.003788,-0.003296 0.009914,-0.003187 0.005481,9.768e-5 0.0130066,0.002241 0.0416827,0.011876 0.0409834,0.0137691 0.0462701,0.015854 0.0485522,0.0191476 0.003204,0.00462 0.003456,0.008955 8.2741e-4,0.01393 -0.003355,0.006333 -0.009209,0.008864 -0.0166811,0.007206 z M 0.1536249,0.48203023 0.09599255,0.48148595 0.09237541,0.47816972 c -0.0028312,-0.002596 -0.0037179,-0.004418 -0.0040907,-0.008401 -5.5597e-4,-0.006095 0.0011184,-0.009399 0.0064181,-0.0126676 l 0.0038791,-0.002394 0.05977946,4.19e-6 c 0.0682913,4.21e-6 0.0651276,-4.0348e-4 0.0690087,0.008898 0.001975,0.004723 0.001965,0.005037 -1.8519e-4,0.009785 -0.002368,0.00522 -0.009078,0.009854 -0.0136343,0.009405 -0.001259,-1.2433e-4 -0.0282298,-4.7098e-4 -0.0599276,-7.6907e-4 z m 0.62439635,-0.003507 c -0.007073,-0.006469 -0.006267,-0.0165423 0.001713,-0.0214626 l 0.003899,-0.002405 0.061723,2.887e-4 0.061723,2.8869e-4 0.003647,0.003341 c 0.003013,0.002754 0.003738,0.004366 0.004181,0.009182 5.1395e-4,0.005672 3.9627e-4,0.005964 -0.004071,0.0100482 l -0.004594,0.004207 H 0.8440375 0.78183083 Z M 0.18483866,0.39003976 c -0.0569653,-0.0178587 -0.0534036,-0.0164266 -0.0560787,-0.0225476 -0.002499,-0.005712 -0.001421,-0.0106259 0.003325,-0.0152332 0.005612,-0.005447 0.008554,-0.005046 0.0432646,0.005909 0.0165975,0.005238 0.0345653,0.0108973 0.0399295,0.012577 0.0123688,0.003872 0.0160645,0.007189 0.0160585,0.0144087 -5.74e-6,0.006265 -0.003295,0.0114107 -0.008584,0.0134358 -0.002176,8.316e-4 -0.004373,0.001512 -0.004887,0.001512 -5.1063e-4,0 -0.0153713,-0.004528 -0.0330237,-0.0100615 z m 0.59416345,0.008868 c -0.005834,-0.001478 -0.009562,-0.006397 -0.009562,-0.0126073 0,-0.006092 0.001068,-0.008327 0.005179,-0.0107888 0.001632,-9.8154e-4 0.0211476,-0.00745 0.0433583,-0.0143736 0.0435447,-0.0135746 0.0463548,-0.0140734 0.051989,-0.009229 0.00669,0.00575 0.006126,0.016932 -0.001058,0.0209327 -0.002015,0.001124 -0.009602,0.003891 -0.0168605,0.006149 -0.007254,0.002259 -0.0242953,0.007624 -0.037862,0.0119241 -0.027586,0.008742 -0.0300313,0.009298 -0.0351849,0.007993 z M 0.25343647,0.32580449 c -0.008111,-0.004048 -0.0809372,-0.0602558 -0.0827226,-0.0638413 -0.003426,-0.006885 -1.202e-4,-0.0165594 0.0067,-0.019594 0.005542,-0.002467 0.00932,-0.002312 0.0139628,5.6993e-4 0.006549,0.004067 0.0761473,0.0581452 0.0799921,0.0621533 0.007073,0.007374 0.002982,0.018748 -0.007718,0.0214682 -0.005562,0.001412 -0.005935,0.001386 -0.0102177,-7.562e-4 z m 0.48610693,8.1608e-4 c -0.007668,-0.002063 -0.0116353,-0.006606 -0.0116353,-0.0133301 0,-0.006406 -0.00135,-0.005132 0.0409603,-0.0386106 0.0381301,-0.0301699 0.0418731,-0.0328557 0.0470177,-0.033739 0.0110862,-0.001904 0.0212585,0.0103605 0.0165078,0.0199038 -7.1466e-4,0.001435 -0.0114277,0.0105297 -0.0238076,0.02021 -0.0123799,0.009679 -0.0276706,0.0216501 -0.0339809,0.0266006 -0.0242489,0.0190228 -0.0277673,0.0209265 -0.035062,0.0189653 z M 0.31328394,0.24824748 c -0.002479,-7.8868e-4 -0.004584,-0.001441 -0.004685,-0.00145 -1.0328e-4,-8.39e-6 -0.003708,-0.003914 -0.00801,-0.00868 -0.004302,-0.004765 -0.0118277,-0.0128494 -0.0167245,-0.0179654 -0.0101391,-0.010595 -0.0122922,-0.0152334 -0.009683,-0.0208512 0.002559,-0.005506 0.006821,-0.008418 0.0130509,-0.008925 0.007486,-6.0968e-4 0.009652,0.001015 0.0276162,0.0207011 0.0177089,0.0194107 0.0191295,0.0216097 0.0175124,0.0271082 -0.002368,0.00806 -0.0110267,0.0126263 -0.0190781,0.0100626 z m 0.36278075,-0.001558 c -0.00402,-0.002896 -0.006438,-0.007355 -0.006438,-0.0118722 0,-0.004032 0.002136,-0.006772 0.0219295,-0.0281201 0.0139628,-0.0150605 0.014796,-0.0157128 0.0208595,-0.0163383 0.005804,-5.9855e-4 0.0108071,0.001342 0.0144776,0.005612 0.003355,0.003907 0.003264,0.0115328 -1.855e-4,0.015753 -0.005995,0.007322 -0.030928,0.0329686 -0.0340081,0.0349759 -0.004524,0.002948 -0.012527,0.002943 -0.0166308,-1.026e-5 z M 0.49465255,0.20288169 c -0.001894,-0.001103 -0.004474,-0.003068 -0.005733,-0.004366 -0.002247,-0.002308 -0.002297,-0.003848 -0.002297,-0.0679648 V 0.06494743 l 0.004282,-0.0035942 c 0.003647,-0.0030629 0.005108,-0.0035942 0.009874,-0.0035942 0.006962,0 0.0126126,0.0032403 0.0146348,0.0084008 0.001088,0.0027777 0.001461,0.01848493 0.001531,0.06429948 7.697e-5,0.0534604 -1.3149e-4,0.0611245 -0.001763,0.0648593 -0.003436,0.007854 -0.013595,0.0115995 -0.020523,0.007563 z m -0.1404577,-0.004013 c -0.00131,-0.001527 -0.002388,-0.003101 -0.002388,-0.003499 0,-7.2256e-4 0.0149371,-0.008812 0.0185673,-0.0100554 0.00138,-4.7134e-4 0.002438,2.4077e-4 0.003708,0.002479 l 0.001773,0.003141 -0.008292,0.004663 c -0.004564,0.002565 -0.008897,0.004976 -0.009632,0.005355 -7.4025e-4,3.8156e-4 -0.002418,-5.5368e-4 -0.003728,-0.002084 z m 0.28236165,-0.002057 c -0.004615,-0.002438 -0.008685,-0.0047 -0.009048,-0.005027 -6.9158e-4,-6.3307e-4 0.001854,-0.006961 0.002791,-0.006961 3.0912e-4,0 0.004897,0.002394 0.0101854,0.005321 0.008161,0.00451 0.009461,0.005604 0.008544,0.007174 -0.002408,0.004113 -0.003839,0.004055 -0.0124756,-5.0711e-4 z m -0.22015448,-0.006696 c -0.004856,-0.002712 -0.005773,-0.004525 -0.0139839,-0.0277515 -0.007295,-0.0206301 -0.008191,-0.0259576 -0.00527,-0.031133 0.004151,-0.007354 0.0190378,-0.008431 0.0238368,-0.001725 0.002005,0.002807 0.0180232,0.0478323 0.0180172,0.0506564 -6.85e-6,0.003482 -0.004453,0.008917 -0.008584,0.0104988 -0.00538,0.002059 -0.009642,0.001892 -0.0140101,-5.4575e-4 z m 0.15328443,-3.4243e-4 c -0.002398,-0.001477 -0.004443,-0.003914 -0.00531,-0.00633 -0.0013,-0.003616 -0.001008,-0.005125 0.003678,-0.0188641 0.0101764,-0.02987 0.0117854,-0.033661 0.0156464,-0.0368424 0.003295,-0.002718 0.004252,-0.002959 0.009985,-0.002524 0.00532,4.0371e-4 0.006861,0.001014 0.009572,0.003785 0.00403,0.004131 0.005108,0.007903 0.003627,0.0127077 -0.004453,0.0144052 -0.01346,0.0400741 -0.0151285,0.043119 -0.003859,0.00704 -0.0147053,0.009475 -0.0220534,0.00495 z"
     id="path1743" /></svg>
