<svg id="svg" version="1.1" xmlns="http://www.w3.org/2000/svg" style="display: block;" viewBox="0 0 1024 1024"><path d="M0 0 C337.92 0 675.84 0 1024 0 C1024 337.92 1024 675.84 1024 1024 C686.08 1024 348.16 1024 0 1024 C0 686.08 0 348.16 0 0 Z " transform="translate(0,0)" style="fill: #FCFEFE;"/><path d="M0 0 C0.9969703 -0.00761134 1.9939406 -0.01522268 3.02112213 -0.02306467 C6.38874242 -0.04380958 9.75569553 -0.03586367 13.12336254 -0.02818489 C15.55134007 -0.03708362 17.97931178 -0.04770971 20.4072749 -0.05992234 C27.10029466 -0.08837571 33.7931291 -0.09160717 40.48620069 -0.09072852 C47.69632328 -0.09401673 54.90636858 -0.12013433 62.11645031 -0.14311409 C77.06976338 -0.18649208 92.02301766 -0.20363291 106.97638601 -0.2131841 C107.78938549 -0.21370645 108.60238497 -0.2142288 109.4400208 -0.21476698 C110.25462386 -0.21528753 111.06922692 -0.21580808 111.90851492 -0.2163444 C120.92930722 -0.22250511 129.95008776 -0.23551317 138.97087193 -0.24876976 C166.20816284 -0.28806842 193.44544105 -0.32087584 220.68276215 -0.32652283 C221.9899583 -0.32680501 221.9899583 -0.32680501 223.32356245 -0.32709289 C226.85534338 -0.32784987 230.38712432 -0.32857786 233.91890527 -0.32929885 C236.57724222 -0.32984229 239.23557918 -0.33039565 241.89391613 -0.33094978 C242.77233162 -0.33112583 243.65074711 -0.33130187 244.55578124 -0.33148325 C272.16145735 -0.33729526 299.76685348 -0.38149478 327.37243176 -0.45399666 C358.37244112 -0.53541103 389.37225971 -0.58283967 420.37238187 -0.58344185 C423.67663525 -0.5836355 426.98088859 -0.58396895 430.28514194 -0.58440208 C431.09875962 -0.58449031 431.91237729 -0.58457854 432.75065004 -0.58466944 C445.85609896 -0.58691116 458.9612679 -0.62175752 472.0666266 -0.66804072 C485.23331327 -0.7136786 498.39953449 -0.72135763 511.56628076 -0.69294213 C518.70254962 -0.67855637 525.83784638 -0.68052082 532.97400761 -0.72576332 C539.50247137 -0.76675773 546.02921007 -0.76192075 552.55765321 -0.72001363 C554.92373872 -0.71298782 557.28994637 -0.72299589 559.65587155 -0.75142251 C577.29375592 -0.94974318 577.29375592 -0.94974318 582.23248422 2.61751342 C584.14760352 5.21572371 585.28538052 7.47746693 586.32873058 10.52012444 C586.79758993 11.56677678 587.26644928 12.61342913 587.74951649 13.69179821 C588.44957006 17.11018857 588.58689353 20.28208842 588.59615612 23.77334404 C588.60468609 25.22975807 588.61321606 26.6861721 588.62200451 28.18671989 C588.62130555 29.79093753 588.62038252 31.39515509 588.61925793 32.99937248 C588.62524543 34.69667671 588.63205149 36.39397822 588.63961315 38.09127617 C588.65726078 42.69483303 588.6619681 47.2983155 588.66324472 51.90190291 C588.66466792 54.78152088 588.66894079 57.66112005 588.67423916 60.54073334 C588.69273746 70.59694554 588.70091028 80.65310477 588.69933605 90.70933342 C588.69813568 100.06604552 588.71921813 109.42252656 588.75082338 118.77918023 C588.77702795 126.8252774 588.78770155 134.87129932 588.78642523 142.91743881 C588.7859167 147.71717346 588.79153925 152.51670285 588.81278133 157.31639481 C588.83223351 161.83500787 588.83224076 166.3532214 588.81774807 170.87184906 C588.81566729 172.52333603 588.82031695 174.17484846 588.83246899 175.82629204 C588.91323603 187.57015595 587.58154628 197.00261288 581.20373058 207.02012444 C580.4573634 208.21121819 580.4573634 208.21121819 579.69591808 209.42637444 C578.58309639 211.13058137 577.45774559 212.82660192 576.32873058 214.52012444 C575.66873058 214.52012444 575.00873058 214.52012444 574.32873058 214.52012444 C573.99873058 215.51012444 573.66873058 216.50012444 573.32873058 217.52012444 C565.88213668 223.14390815 556.00925105 230.52012444 546.32873058 230.52012444 C546.37513683 231.58231194 546.42154308 232.64449944 546.46935558 233.73887444 C546.83953463 248.22873985 546.83953463 248.22873985 542.32873058 254.52012444 C536.4003087 260.72428687 529.44755304 262.62967464 521.10973644 262.90830803 C518.75442838 262.9279369 516.39893388 262.93050998 514.04357433 262.91856194 C512.1600803 262.9228672 512.1600803 262.9228672 510.23853588 262.92725945 C507.59533771 262.92929279 504.95212423 262.92381425 502.30895519 262.91123772 C498.27548989 262.89516134 494.24302455 262.91111948 490.20958996 262.93028069 C487.63341588 262.92829839 485.05724243 262.924455 482.48107433 262.91856194 C480.68234119 262.92767097 480.68234119 262.92767097 478.84727001 262.93696404 C470.06818935 262.86359635 462.89894921 261.90783699 456.32873058 255.52012444 C450.67259524 248.24795042 450.32873058 242.7740127 450.32873058 233.52012444 C340.10873058 233.52012444 229.88873058 233.52012444 116.32873058 233.52012444 C116.32873058 237.15012444 116.32873058 240.78012444 116.32873058 244.52012444 C113.47945762 252.38411782 109.02203934 256.67347006 101.70373058 260.33262444 C97.25329693 261.89851776 93.22346406 262.63998739 88.51354504 262.69712639 C87.58520351 262.70996162 86.65686199 262.72279686 85.70038891 262.73602104 C84.21124226 262.74710144 84.21124226 262.74710144 82.69201183 262.75840569 C81.65739315 262.76647743 80.62277447 262.77454918 79.5568037 262.78286552 C77.36889843 262.79667568 75.18097189 262.80741151 72.99303722 262.81529045 C70.76738657 262.82680048 68.5417633 262.84723664 66.31627941 262.87681389 C63.08716755 262.91970259 59.85887396 262.9356897 56.62951183 262.94590569 C55.64686855 262.96341377 54.66422527 262.98092186 53.65180492 262.99896049 C45.366048 262.97328474 38.89850837 260.8338693 31.95373058 256.33262444 C25.40131005 249.31217386 24.90961481 242.66528179 25.18810558 233.26621819 C25.23451183 232.36000725 25.28091808 231.45379631 25.32873058 230.52012444 C24.13248058 230.33449944 22.93623058 230.14887444 21.70373058 229.95762444 C8.14737218 226.88342663 -4.44970804 218.43183711 -12.25973415 206.8833952 C-18.57134742 196.31614161 -19.39814628 185.95402382 -19.31824207 173.95493889 C-19.32503245 172.22541704 -19.33394349 170.49590244 -19.34479237 168.76640129 C-19.36741857 164.10737397 -19.35882037 159.44890556 -19.34289694 154.78986955 C-19.33015693 149.8951866 -19.34199984 145.00054858 -19.34982777 140.10586357 C-19.35889829 131.89254554 -19.34700214 123.67945307 -19.32312489 115.46616936 C-19.29589141 105.98934845 -19.30475438 96.5130651 -19.33225691 87.03625709 C-19.35498871 78.87450082 -19.358129 70.7129058 -19.34506357 62.55112809 C-19.33729491 57.68724744 -19.33615654 52.82361908 -19.35274601 47.95975494 C-19.36725195 43.38839626 -19.35705797 38.81772741 -19.32827473 34.24644279 C-19.32169766 32.57519676 -19.32350335 30.90389205 -19.33458805 29.23266983 C-19.38986924 20.04716628 -19.30302724 12.12702666 -13.67126942 4.52012444 C-13.18059323 3.83013318 -12.68991705 3.14014192 -12.18437189 2.42924184 C-8.402678 -0.44358077 -4.56141459 -0.03742065 0 0 Z " transform="translate(223.67126941680908,493.4798755645752)" style="fill: #172B34;"/><path d="M0 0 C0.9969703 -0.00761134 1.9939406 -0.01522268 3.02112213 -0.02306467 C6.38874242 -0.04380958 9.75569553 -0.03586367 13.12336254 -0.02818489 C15.55134007 -0.03708362 17.97931178 -0.04770971 20.4072749 -0.05992234 C27.10029466 -0.08837571 33.7931291 -0.09160717 40.48620069 -0.09072852 C47.69632328 -0.09401673 54.90636858 -0.12013433 62.11645031 -0.14311409 C77.06976338 -0.18649208 92.02301766 -0.20363291 106.97638601 -0.2131841 C107.78938549 -0.21370645 108.60238497 -0.2142288 109.4400208 -0.21476698 C110.25462386 -0.21528753 111.06922692 -0.21580808 111.90851492 -0.2163444 C120.92930722 -0.22250511 129.95008776 -0.23551317 138.97087193 -0.24876976 C166.20816284 -0.28806842 193.44544105 -0.32087584 220.68276215 -0.32652283 C221.9899583 -0.32680501 221.9899583 -0.32680501 223.32356245 -0.32709289 C226.85534338 -0.32784987 230.38712432 -0.32857786 233.91890527 -0.32929885 C236.57724222 -0.32984229 239.23557918 -0.33039565 241.89391613 -0.33094978 C242.77233162 -0.33112583 243.65074711 -0.33130187 244.55578124 -0.33148325 C272.16145735 -0.33729526 299.76685348 -0.38149478 327.37243176 -0.45399666 C358.37244112 -0.53541103 389.37225971 -0.58283967 420.37238187 -0.58344185 C423.67663525 -0.5836355 426.98088859 -0.58396895 430.28514194 -0.58440208 C431.09875962 -0.58449031 431.91237729 -0.58457854 432.75065004 -0.58466944 C445.85609896 -0.58691116 458.9612679 -0.62175752 472.0666266 -0.66804072 C485.23331327 -0.7136786 498.39953449 -0.72135763 511.56628076 -0.69294213 C518.70254962 -0.67855637 525.83784638 -0.68052082 532.97400761 -0.72576332 C539.50247137 -0.76675773 546.02921007 -0.76192075 552.55765321 -0.72001363 C554.92373872 -0.71298782 557.28994637 -0.72299589 559.65587155 -0.75142251 C577.29375592 -0.94974318 577.29375592 -0.94974318 582.23248422 2.61751342 C584.14760352 5.21572371 585.28538052 7.47746693 586.32873058 10.52012444 C586.79758993 11.56677678 587.26644928 12.61342913 587.74951649 13.69179821 C588.44957006 17.11018857 588.58689353 20.28208842 588.59615612 23.77334404 C588.60468609 25.22975807 588.61321606 26.6861721 588.62200451 28.18671989 C588.62130555 29.79093753 588.62038252 31.39515509 588.61925793 32.99937248 C588.62524543 34.69667671 588.63205149 36.39397822 588.63961315 38.09127617 C588.65726078 42.69483303 588.6619681 47.2983155 588.66324472 51.90190291 C588.66466792 54.78152088 588.66894079 57.66112005 588.67423916 60.54073334 C588.69273746 70.59694554 588.70091028 80.65310477 588.69933605 90.70933342 C588.69813568 100.06604552 588.71921813 109.42252656 588.75082338 118.77918023 C588.77702795 126.8252774 588.78770155 134.87129932 588.78642523 142.91743881 C588.7859167 147.71717346 588.79153925 152.51670285 588.81278133 157.31639481 C588.83223351 161.83500787 588.83224076 166.3532214 588.81774807 170.87184906 C588.81566729 172.52333603 588.82031695 174.17484846 588.83246899 175.82629204 C588.91323603 187.57015595 587.58154628 197.00261288 581.20373058 207.02012444 C580.4573634 208.21121819 580.4573634 208.21121819 579.69591808 209.42637444 C578.58309639 211.13058137 577.45774559 212.82660192 576.32873058 214.52012444 C575.66873058 214.52012444 575.00873058 214.52012444 574.32873058 214.52012444 C573.99873058 215.51012444 573.66873058 216.50012444 573.32873058 217.52012444 C565.88213668 223.14390815 556.00925105 230.52012444 546.32873058 230.52012444 C546.37513683 231.58231194 546.42154308 232.64449944 546.46935558 233.73887444 C546.83953463 248.22873985 546.83953463 248.22873985 542.32873058 254.52012444 C536.4003087 260.72428687 529.44755304 262.62967464 521.10973644 262.90830803 C518.75442838 262.9279369 516.39893388 262.93050998 514.04357433 262.91856194 C512.1600803 262.9228672 512.1600803 262.9228672 510.23853588 262.92725945 C507.59533771 262.92929279 504.95212423 262.92381425 502.30895519 262.91123772 C498.27548989 262.89516134 494.24302455 262.91111948 490.20958996 262.93028069 C487.63341588 262.92829839 485.05724243 262.924455 482.48107433 262.91856194 C480.68234119 262.92767097 480.68234119 262.92767097 478.84727001 262.93696404 C470.06818935 262.86359635 462.89894921 261.90783699 456.32873058 255.52012444 C450.67259524 248.24795042 450.32873058 242.7740127 450.32873058 233.52012444 C340.10873058 233.52012444 229.88873058 233.52012444 116.32873058 233.52012444 C116.32873058 237.15012444 116.32873058 240.78012444 116.32873058 244.52012444 C113.47945762 252.38411782 109.02203934 256.67347006 101.70373058 260.33262444 C97.25329693 261.89851776 93.22346406 262.63998739 88.51354504 262.69712639 C87.58520351 262.70996162 86.65686199 262.72279686 85.70038891 262.73602104 C84.21124226 262.74710144 84.21124226 262.74710144 82.69201183 262.75840569 C81.65739315 262.76647743 80.62277447 262.77454918 79.5568037 262.78286552 C77.36889843 262.79667568 75.18097189 262.80741151 72.99303722 262.81529045 C70.76738657 262.82680048 68.5417633 262.84723664 66.31627941 262.87681389 C63.08716755 262.91970259 59.85887396 262.9356897 56.62951183 262.94590569 C55.64686855 262.96341377 54.66422527 262.98092186 53.65180492 262.99896049 C45.366048 262.97328474 38.89850837 260.8338693 31.95373058 256.33262444 C25.40131005 249.31217386 24.90961481 242.66528179 25.18810558 233.26621819 C25.23451183 232.36000725 25.28091808 231.45379631 25.32873058 230.52012444 C24.13248058 230.33449944 22.93623058 230.14887444 21.70373058 229.95762444 C8.14737218 226.88342663 -4.44970804 218.43183711 -12.25973415 206.8833952 C-18.57134742 196.31614161 -19.39814628 185.95402382 -19.31824207 173.95493889 C-19.32503245 172.22541704 -19.33394349 170.49590244 -19.34479237 168.76640129 C-19.36741857 164.10737397 -19.35882037 159.44890556 -19.34289694 154.78986955 C-19.33015693 149.8951866 -19.34199984 145.00054858 -19.34982777 140.10586357 C-19.35889829 131.89254554 -19.34700214 123.67945307 -19.32312489 115.46616936 C-19.29589141 105.98934845 -19.30475438 96.5130651 -19.33225691 87.03625709 C-19.35498871 78.87450082 -19.358129 70.7129058 -19.34506357 62.55112809 C-19.33729491 57.68724744 -19.33615654 52.82361908 -19.35274601 47.95975494 C-19.36725195 43.38839626 -19.35705797 38.81772741 -19.32827473 34.24644279 C-19.32169766 32.57519676 -19.32350335 30.90389205 -19.33458805 29.23266983 C-19.38986924 20.04716628 -19.30302724 12.12702666 -13.67126942 4.52012444 C-13.18059323 3.83013318 -12.68991705 3.14014192 -12.18437189 2.42924184 C-8.402678 -0.44358077 -4.56141459 -0.03742065 0 0 Z M-2.67126942 16.52012444 C-2.98500228 19.12422377 -2.98500228 19.12422377 -2.94542408 22.21587944 C-2.95539921 23.42830818 -2.96537434 24.64073692 -2.97565174 25.88990593 C-2.97631641 27.22749962 -2.97698109 28.56509331 -2.9776659 29.94322014 C-2.98598942 31.34665169 -2.99431293 32.75008324 -3.00288868 34.19604301 C-3.02291192 38.05623937 -3.03364127 41.9162195 -3.03871512 45.77644944 C-3.04235687 48.19172623 -3.04859641 50.60698225 -3.05571651 53.02225113 C-3.08024334 61.45978392 -3.09326686 69.8972551 -3.09680653 78.3348217 C-3.10042947 86.17823437 -3.13022673 94.02125273 -3.17221111 101.86454517 C-3.20703959 108.60954466 -3.22235724 115.35441452 -3.22305256 122.09950322 C-3.22384206 126.12255318 -3.23242608 130.14520302 -3.26105022 134.16815948 C-3.29236195 138.67027863 -3.28311153 143.17147792 -3.27063465 147.67368889 C-3.28546894 148.98901604 -3.30030323 150.30434319 -3.31558704 151.65952873 C-3.21856233 164.01609347 -0.01575872 174.33888747 8.73888683 183.29746819 C18.12372288 191.35172416 28.94377058 196.00815247 41.32902813 195.89764786 C42.19272182 195.90200818 43.05641551 195.9063685 43.94628173 195.91086096 C46.83039629 195.92177911 49.71402897 195.91141123 52.59813976 195.90107536 C54.69076929 195.90453328 56.783397 195.90929874 58.87602091 195.9152571 C64.61895881 195.92777828 70.36174711 195.92159153 76.10468554 195.91229844 C82.30108671 195.90551293 88.49746209 195.91598672 94.69385815 195.9242382 C106.82966619 195.93758301 118.9654186 195.93469445 131.10122883 195.92600028 C140.96364271 195.9192271 150.826041 195.91830544 160.68845654 195.92157173 C162.09174677 195.92203143 163.495037 195.92249113 164.94085118 195.92296476 C167.7915448 195.92392393 170.64223841 195.92489657 173.49293202 195.92588253 C199.46610262 195.93419468 225.43924693 195.92557241 251.41241115 195.90985474 C275.1184206 195.89561812 298.82438171 195.89689202 322.53039074 195.91123772 C349.16968529 195.92730465 375.80895855 195.93361462 402.44825888 195.92440093 C405.28850746 195.92344527 408.12875604 195.92250216 410.96900463 195.92157173 C412.36648724 195.92110891 413.76396985 195.92064608 415.20380041 195.92016923 C425.05517839 195.91757818 434.90653922 195.92195281 444.75791454 195.92901039 C456.76227193 195.93742128 468.76657047 195.93515385 480.77092111 195.91916816 C486.8965376 195.91127998 493.02205592 195.90820329 499.1476717 195.91811562 C504.75463373 195.9270515 510.36140657 195.92214769 515.96835142 195.90618296 C517.99716396 195.9028305 520.02599245 195.90453965 522.05479473 195.91181032 C524.81290123 195.92093677 527.57036023 195.91157188 530.32843304 195.89764786 C531.11562043 195.90467136 531.90280781 195.91169485 532.71384937 195.91893119 C542.64064798 195.81881092 553.3846725 191.94497893 560.82091808 185.28965569 C568.16767884 177.52135947 572.445228 169.45434796 572.46244335 158.56126213 C572.46670834 157.34149178 572.47097332 156.12172142 572.47536755 154.86498833 C572.47491436 153.52979652 572.47446117 152.19460472 572.47399426 150.81895256 C572.47735287 149.41052589 572.48071148 148.00209923 572.48417187 146.55099297 C572.49204735 142.68949768 572.49534958 138.82805616 572.49598765 134.96655655 C572.49693746 131.74325975 572.50061645 128.51996811 572.50415975 125.2966733 C572.51230058 117.69358273 572.51474426 110.09050401 572.51403332 102.48740959 C572.51343211 94.64164679 572.52399329 86.79595265 572.53977698 78.95020723 C572.55284488 72.21466005 572.55821755 65.47913534 572.55757791 58.74357557 C572.55732277 54.7204233 572.56018307 50.69733209 572.57075596 46.67419243 C572.5822195 42.18986629 572.57769471 37.70563473 572.57165051 33.22129631 C572.58007977 31.21850861 572.58007977 31.21850861 572.58867931 29.17526054 C572.58448483 27.95549019 572.58029034 26.73571983 572.57596874 25.47898674 C572.57678589 23.88839062 572.57678589 23.88839062 572.57761955 22.26566124 C572.46691771 19.18877102 572.46691771 19.18877102 570.32873058 15.52012444 C566.90342505 13.80747167 562.97100006 14.38294949 559.20193768 14.39148998 C557.75834799 14.38886043 557.75834799 14.38886043 556.28559488 14.38617775 C553.02379572 14.3814835 549.76204048 14.38399199 546.50023937 14.38641167 C544.15292687 14.38454542 541.80561467 14.38224547 539.45830297 14.37954634 C532.97918388 14.37339898 526.50007763 14.37356537 520.02095628 14.37474072 C513.04474419 14.37494399 506.06853631 14.36943311 499.09232616 14.36468315 C485.41452005 14.35636021 471.73671981 14.35361465 458.05891168 14.35307077 C446.94770425 14.35261183 435.83649823 14.35055663 424.72529125 14.34737015 C421.53090843 14.34647265 418.3365256 14.34558284 415.14214277 14.34469527 C413.95106534 14.3443637 413.95106534 14.3443637 412.73592574 14.34402543 C390.39159379 14.33786862 368.04726233 14.33392513 345.7029295 14.33436871 C344.85996448 14.33438428 344.01699946 14.33439986 343.14849005 14.33441591 C338.87565108 14.33449903 334.60281212 14.33459807 330.32997316 14.33470062 C329.48131757 14.33472057 328.63266197 14.33474051 327.75828954 14.33476106 C326.04210081 14.3348015 324.32591209 14.3348433 322.60972337 14.33488645 C295.89740132 14.33549947 269.18509196 14.32798895 242.47277355 14.31431389 C212.48695378 14.29896946 182.50114234 14.29034666 152.51531839 14.29127711 C149.32093557 14.29135175 146.12655274 14.29140045 142.93216991 14.29143143 C142.14558514 14.29144308 141.35900036 14.29145474 140.54857968 14.29146674 C127.86429627 14.29149758 115.18002382 14.28509887 102.49574368 14.27649916 C89.75918846 14.2680423 77.02265378 14.26718956 64.28609574 14.27360848 C57.37966075 14.27688934 50.47326572 14.2768744 43.56683445 14.26825523 C37.25437565 14.26045798 30.94198894 14.2617514 24.62953204 14.27053937 C22.33616597 14.27208944 20.04279471 14.2702024 17.74943477 14.26467929 C14.65137482 14.25770771 11.55357406 14.26284233 8.45552349 14.27123547 C7.54847666 14.26626729 6.64142982 14.26129911 5.70689672 14.25618038 C1.03571434 14.05674847 1.03571434 14.05674847 -2.67126942 16.52012444 Z " transform="translate(223.67126941680908,493.4798755645752)" style="fill: #041827;"/><path d="M0 0 C0.33 0 0.66 0 1 0 C1 4.62 1 9.24 1 14 C4.10535156 13.98259766 4.10535156 13.98259766 7.2734375 13.96484375 C9.97395744 13.95546694 12.67447834 13.94636663 15.375 13.9375 C16.74140625 13.92912109 18.1078125 13.92074219 19.515625 13.91210938 C21.46855469 13.90727539 21.46855469 13.90727539 23.4609375 13.90234375 C24.66540527 13.89710693 25.86987305 13.89187012 27.11083984 13.88647461 C30 14 30 14 32 15 C32 15.66 32 16.32 32 17 C32.86625 17.061875 33.7325 17.12375 34.625 17.1875 C39.93185638 18.46507654 43.01970739 21.52956108 46 26 C46.75028792 30.99028712 46.34591773 35.12079242 44.5 39.8125 C40.53442774 44.86860463 36.20367292 47.44908177 30 49 C26.81760432 49.09659793 23.65727971 49.13756569 20.47487354 49.13142776 C19.4936978 49.1334804 18.51252205 49.13553303 17.50161371 49.13764787 C14.18789709 49.14333774 10.87422177 49.14185817 7.5605011 49.14044189 C5.17107841 49.14302439 2.78165616 49.14603722 0.3922345 49.1494453 C-6.19426754 49.15753212 -12.78075869 49.1593058 -19.36726511 49.16004276 C-26.46286906 49.1618904 -33.55846732 49.16943625 -40.65406799 49.17617798 C-56.98856716 49.1904829 -73.3230635 49.19628936 -89.65756776 49.20086992 C-97.72786133 49.20320515 -105.79815418 49.20680771 -113.8684472 49.2105653 C-141.48897875 49.22340129 -169.1095099 49.23412053 -196.73004436 49.2375679 C-198.46419586 49.23778953 -200.19834736 49.23801132 -201.93249886 49.23823325 C-203.67086078 49.23845389 -205.4092227 49.23867438 -207.14758462 49.2388947 C-210.63509222 49.23933726 -214.12259982 49.23978437 -217.61010742 49.24023438 C-218.47480781 49.24034377 -219.33950819 49.24045316 -220.23041162 49.24056586 C-248.27183279 49.24419694 -276.31322812 49.26011866 -304.3546394 49.28342474 C-333.99535132 49.30801505 -363.63604847 49.32174037 -393.27677089 49.32293582 C-396.52994558 49.32310728 -399.78312026 49.32332271 -403.03629494 49.32357025 C-403.83732941 49.32362602 -404.63836388 49.32368179 -405.46367212 49.32373925 C-418.36033185 49.32489038 -431.25696508 49.33591766 -444.15361586 49.35045731 C-457.11409643 49.36481636 -470.07453063 49.36780992 -483.0350193 49.36001733 C-490.05779452 49.35610285 -497.08048047 49.35707938 -504.10324478 49.37107468 C-510.53012725 49.38376558 -516.95685294 49.38265839 -523.38373504 49.37048396 C-525.71081418 49.36851862 -528.03790425 49.37164382 -530.36496802 49.38032833 C-533.52539235 49.39137769 -536.68525917 49.38396249 -539.84566784 49.3719368 C-540.75140168 49.37953199 -541.65713553 49.38712718 -542.59031585 49.39495254 C-549.73207748 49.33619423 -556.20549712 48.30850238 -561.875 43.625 C-565.38892621 39.28426762 -567.88769305 35.7276544 -568 30 C-565.62996849 23.58116465 -563.09372122 20.45310869 -557 17 C-549.29513867 14.3456937 -541.57150993 14.77582266 -533.5 14.875 C-532.10523438 14.88402344 -530.71046875 14.89304687 -529.2734375 14.90234375 C-525.8487795 14.92580031 -522.42448061 14.95862616 -519 15 C-518.443125 16.08539062 -517.88625 17.17078125 -517.3125 18.2890625 C-515.03108756 21.95011287 -513.69002085 23.33873849 -510 25.375 C-508.7315625 26.09816406 -508.7315625 26.09816406 -507.4375 26.8359375 C-503.72438364 28.60918858 -500.34863355 29.12714433 -496.29833984 29.16113281 C-495.36992279 29.17074036 -494.44150574 29.1803479 -493.48495483 29.19024658 C-492.48702911 29.19449646 -491.48910339 29.19874634 -490.4609375 29.203125 C-489.42490387 29.20882507 -488.38887024 29.21452515 -487.32144165 29.22039795 C-485.12755349 29.22984112 -482.93365119 29.23637922 -480.73974609 29.24023438 C-477.40827118 29.24990344 -474.07742299 29.28091874 -470.74609375 29.3125 C-468.60937864 29.31903424 -466.47265914 29.32428305 -464.3359375 29.328125 C-463.35015717 29.3404718 -462.36437683 29.3528186 -461.34872437 29.36553955 C-452.48174411 29.33744936 -443.96883255 27.83437143 -437 22 C-431.05794737 14.9438125 -430.88469164 10.73160805 -430 1 C-319.78 1 -209.56 1 -96 1 C-95.34 5.29 -94.68 9.58 -94 14 C-91.55360928 20.52370859 -87.17230683 24.83471445 -81 28 C-77.51768469 28.87057883 -74.93674436 29.14173599 -71.39624023 29.17700195 C-70.27084335 29.18983719 -69.14544647 29.20267242 -67.98594666 29.21589661 C-66.7724202 29.22328354 -65.55889374 29.23067047 -64.30859375 29.23828125 C-63.05297134 29.246353 -61.79734894 29.25442474 -60.50367737 29.26274109 C-57.84320452 29.27657445 -55.18271398 29.28729995 -52.5222168 29.29516602 C-48.4773534 29.31233088 -44.43331759 29.35622056 -40.38867188 29.40039062 C-37.79948516 29.41052221 -35.21029151 29.41903685 -32.62109375 29.42578125 C-31.42173691 29.44328934 -30.22238007 29.46079742 -28.98667908 29.47883606 C-20.02769319 29.45599424 -11.6194214 28.47168992 -4.9375 22.0625 C-1.66181078 16.88479769 -0.71856189 12.81435371 -0.375 6.6875 C-0.30023437 5.43324219 -0.22546875 4.17898438 -0.1484375 2.88671875 C-0.09945312 1.93410156 -0.05046875 0.98148438 0 0 Z " transform="translate(770,726)" style="fill: #A1DEFC;"/><path d="M0 0 C11.71286009 9.64240503 17.87914506 23.3603247 19.6328125 38.22265625 C20.68395525 56.88044008 14.02999355 73.38988116 1.765625 87.34765625 C-8.01074028 96.74639369 -22.27039818 102.25488301 -35.6796875 102.59765625 C-50.97010304 102.21347495 -63.89660593 97.72734575 -75.1796875 87.16015625 C-88.72779851 72.80113641 -92.96440089 57.00390087 -92.64453125 37.703125 C-91.80118036 24.07885084 -84.5198286 10.29728316 -74.3671875 1.22265625 C-51.74558551 -15.54991288 -22.96511298 -17.24278285 0 0 Z " transform="translate(691.3671875,566.77734375)" style="fill: #071B2C;"/><path d="M0 0 C11.72626925 8.61097973 19.08382425 19.70299678 22 34 C23.96635516 52.18701058 20.44258085 69.22956494 9.4375 84.0625 C0.17205897 95.14264134 -11.12355902 100.95206996 -25 104 C-41.8349132 105.39884303 -56.35444713 101.78548747 -69.50390625 90.93359375 C-82.7012682 78.45080977 -88.63516282 62.99721043 -89.3125 45.0625 C-88.85897655 28.6022664 -82.57968235 15.43621725 -71 4 C-70.44699219 3.42507813 -69.89398438 2.85015625 -69.32421875 2.2578125 C-50.1109524 -16.14496867 -20.9071063 -12.49090458 0 0 Z " transform="translate(377,565)" style="fill: #061B2D;"/><path d="M0 0 C1.36014148 0.0070235 1.36014148 0.0070235 2.74776056 0.01418889 C3.70985409 0.011282 4.67194762 0.00837512 5.66319549 0.00538015 C8.92403313 -0.00198515 12.18468643 0.00505374 15.44552305 0.01190388 C17.79212348 0.00960203 20.13872319 0.00642736 22.48532137 0.00244939 C28.96252572 -0.00594511 35.43967159 -0.00175232 41.91687623 0.00442183 C48.89106454 0.00892641 55.86524242 0.0019725 62.83942869 -0.00353801 C75.7221441 -0.01193911 88.60483326 -0.01118037 101.48754854 -0.00571508 C113.3877883 -0.00069115 125.28802118 0.0006328 137.18826178 -0.00176036 C137.97652024 -0.00191313 138.76477871 -0.0020659 139.57692379 -0.0022233 C142.77644046 -0.00284594 145.97595713 -0.00348274 149.1754738 -0.00414283 C179.21280057 -0.01026605 209.25011538 -0.00470576 239.2874403 0.00605096 C265.99305946 0.01554182 292.69865955 0.01469429 319.40427855 0.00512898 C349.38388356 -0.00557301 379.363478 -0.00983093 409.34308466 -0.00364649 C412.53720457 -0.00300503 415.73132448 -0.00237935 418.92544439 -0.00176036 C420.10522042 -0.00152313 420.10522042 -0.00152313 421.30883031 -0.00128111 C433.20296351 0.00099694 445.09708908 -0.00167249 456.99122122 -0.00671947 C470.5117884 -0.01242785 484.03232812 -0.01083677 497.55289444 -0.00015798 C504.45742652 0.00511477 511.36191979 0.00712834 518.26645163 0.00054371 C524.57834859 -0.00538489 530.89017053 -0.00219208 537.20206062 0.00849882 C539.49409752 0.01074605 541.78614067 0.00956725 544.0781736 0.00474724 C547.17684788 -0.00127276 550.27526001 0.00484068 553.37392023 0.01418889 C554.27834005 0.00950655 555.18275987 0.00482422 556.11458635 0 C562.28130984 0.03757041 562.28130984 0.03757041 565.62376097 2.26587117 C565.95376097 5.23587117 566.28376097 8.20587117 566.62376097 11.26587117 C286.45376097 11.76087117 286.45376097 11.76087117 0.62376097 12.26587117 C-11.23441885 96.64763831 -11.23441885 96.64763831 9.62376097 169.26587117 C13.06522102 172.53807908 16.7707432 175.49169838 20.62376097 178.26587117 C11.80358513 176.99449447 3.95791713 170.74836139 -1.52433226 163.93834603 C-8.05036273 154.52067306 -9.10145442 144.57832033 -8.97560427 133.41943562 C-8.97954698 131.99672856 -8.9834897 130.5740215 -8.9875519 129.1082021 C-8.99742857 125.24917112 -8.97652886 121.39088836 -8.94907185 117.53196561 C-8.92506618 113.48105918 -8.92818556 109.43016308 -8.92776796 105.37919819 C-8.92315907 98.591702 -8.89963185 91.80448882 -8.86329958 85.01709187 C-8.82139174 77.16710456 -8.80397305 69.31737068 -8.80067983 61.46727794 C-8.79708601 53.09498706 -8.77824057 44.72278724 -8.75355956 36.35053432 C-8.74732821 33.93988504 -8.743694 31.52924268 -8.74052545 29.11858761 C-8.73354904 24.64196053 -8.70918522 20.16552272 -8.68263552 15.68896687 C-8.68163851 13.68257634 -8.68163851 13.68257634 -8.68062136 11.63565266 C-8.67064623 10.42322392 -8.6606711 9.21079518 -8.65039369 7.96162617 C-8.64574319 6.90370019 -8.64109268 5.84577422 -8.63630125 4.75578988 C-8.07420229 -0.62592506 -4.57862161 0.02798023 0 0 Z " transform="translate(229.37623903155327,507.7341288328171)" style="fill: #A5B4BF;"/><path d="M0 0 C7.79107048 6.06894305 13.06478579 12.51092925 18 21 C18.67804688 21.94359375 19.35609375 22.8871875 20.0546875 23.859375 C22.23426789 27.37821563 23.18940029 30.49130567 24.1875 34.5 C24.51105469 35.7684375 24.83460938 37.036875 25.16796875 38.34375 C29.8607492 58.96554577 25.8719214 77.07323435 17 96 C16.34 96 15.68 96 15 96 C14.62875 97.07314453 14.62875 97.07314453 14.25 98.16796875 C12.86136405 101.31409706 11.15536054 103.63810963 9 106.3125 C7.948125 107.63701172 7.948125 107.63701172 6.875 108.98828125 C6.25625 109.65214844 5.6375 110.31601562 5 111 C4.34 111 3.68 111 3 111 C2.01 112.98 2.01 112.98 1 115 C-1.35546875 117 -1.35546875 117 -4.1875 119 C-5.57001953 119.99 -5.57001953 119.99 -6.98046875 121 C-22.08454793 131.00425426 -39.79391151 133.48418755 -57.51171875 130.26953125 C-76.05644007 126.01933787 -89.17547472 114.35433539 -100.1484375 98.9921875 C-101.81700887 96.29571984 -103.09887335 93.75883607 -104.25 90.8125 C-104.58515625 89.97332031 -104.9203125 89.13414062 -105.265625 88.26953125 C-106 86 -106 86 -106 83 C-106.66 83 -107.32 83 -108 83 C-113.01001977 61.9161668 -113.33219344 40.32883439 -102.75 20.8046875 C-92.68893782 4.68003874 -77.96324375 -6.06560535 -59.7578125 -11.1953125 C-39.29568577 -15.28465819 -17.06808688 -12.31494876 0 0 Z M-83 17 C-92.31190428 27.74701388 -98.43348138 40.38034978 -98.25 54.75 C-98.24033203 55.54712402 -98.23066406 56.34424805 -98.22070312 57.16552734 C-97.89221237 73.34369698 -92.64959378 87.27214417 -81.13671875 98.9609375 C-80.43160156 99.63382813 -79.72648438 100.30671875 -79 101 C-78.17435547 101.85464844 -78.17435547 101.85464844 -77.33203125 102.7265625 C-66.80520674 112.86350462 -51.99556624 115.601743 -37.9375 115.375 C-23.29256 113.98024381 -9.35310257 106.86383251 0.0390625 95.58984375 C7.92515742 85.17454309 13.40947896 73.18830319 14 60 C14.0825 58.618125 14.165 57.23625 14.25 55.8125 C13.959211 40.58573038 8.03498319 26.11428774 -2.5546875 15.18359375 C-16.09219249 3.09499105 -31.13038442 0.3124192 -48.69140625 0.86376953 C-61.84226616 1.63980378 -73.62349336 7.99180131 -83 17 Z " transform="translate(697,554)" style="fill: #061927;"/><path d="M0 0 C1.74796875 0.7115625 1.74796875 0.7115625 3.53125 1.4375 C14.57758861 6.43236615 23.53313324 13.68909441 30 24 C30.4434375 24.67804687 30.886875 25.35609375 31.34375 26.0546875 C39.27176737 38.53595809 42.57978345 50.025681 42.4375 64.875 C42.42775146 66.01831787 42.41800293 67.16163574 42.40795898 68.33959961 C41.9755393 88.93303729 32.64107969 107.59893801 18 122 C16.515 122.495 16.515 122.495 15 123 C14.67 123.99 14.34 124.98 14 126 C-2.42349979 137.55727763 -19.6572196 140.80102702 -39.25 137.6875 C-40.36701294 137.51130127 -40.36701294 137.51130127 -41.5065918 137.33154297 C-50.63714041 135.74229776 -57.60351189 132.34428332 -65 127 C-66.299375 126.071875 -66.299375 126.071875 -67.625 125.125 C-72.28737745 120.95339912 -76.19673042 116.60653916 -79 111 C-79.66 111 -80.32 111 -81 111 C-92.54641741 90.67428047 -99.18114927 70.83481758 -93.8125 47.25 C-93.25586618 45.48430576 -92.65177515 43.73283193 -92 42 C-91.64808594 41.00226562 -91.29617188 40.00453125 -90.93359375 38.9765625 C-88.22928459 31.89002298 -84.66774068 25.95817438 -80 20 C-79.18208984 18.93458984 -79.18208984 18.93458984 -78.34765625 17.84765625 C-73.94777052 12.45391397 -68.85503921 8.70940372 -63 5 C-62.31421875 4.5359375 -61.6284375 4.071875 -60.921875 3.59375 C-44.10186779 -6.93480413 -18.01993292 -7.49343745 0 0 Z M-49 13 C-49.91910156 13.40089844 -50.83820313 13.80179688 -51.78515625 14.21484375 C-64.93076731 20.59351578 -74.0484171 31.86990432 -79.15234375 45.36328125 C-83.85156884 59.98068649 -83.36057708 76.4801785 -76.4765625 90.30859375 C-68.0677153 105.63583111 -57.82502228 116.43553011 -40.6875 122 C-26.09658035 125.25193517 -11.3652089 123.27984982 1.64453125 115.9453125 C16.34039745 106.23764317 24.18437477 93.67351178 28.58203125 76.76171875 C30.95855809 61.05887318 29.40133122 45.4724925 20.3125 32.125 C10.38791305 19.69159553 -2.08993526 11.49310631 -18 9 C-28.79085785 7.98009395 -39.05441888 8.39529699 -49 13 Z " transform="translate(370,546)" style="fill: #071926;"/><path d="M0 0 C11.72626925 8.61097973 19.08382425 19.70299678 22 34 C23.96635516 52.18701058 20.44258085 69.22956494 9.4375 84.0625 C0.17205897 95.14264134 -11.12355902 100.95206996 -25 104 C-41.8349132 105.39884303 -56.35444713 101.78548747 -69.50390625 90.93359375 C-82.7012682 78.45080977 -88.63516282 62.99721043 -89.3125 45.0625 C-88.85897655 28.6022664 -82.57968235 15.43621725 -71 4 C-70.44699219 3.42507813 -69.89398438 2.85015625 -69.32421875 2.2578125 C-50.1109524 -16.14496867 -20.9071063 -12.49090458 0 0 Z M-67.375 16.625 C-74.95975322 26.97210161 -77.23718697 37.31543472 -76 50 C-73.97204474 63.08108546 -67.90820267 73.94780408 -57.3203125 82.05078125 C-46.34195946 89.39502574 -34.59764187 90.84868073 -21.61328125 88.34765625 C-9.79823677 84.82280943 -1.02011093 76.70018488 5.25 66.25 C11.00545453 53.54830724 11.93331998 39.66633935 7.10546875 26.57421875 C1.54593701 13.94249115 -8.93647478 6.76221802 -21.3125 1.625 C-38.54988135 -1.29659006 -55.68139816 3.16096499 -67.375 16.625 Z " transform="translate(377,565)" style="fill: #EDF5F9;"/><path d="M0 0 C11.71286009 9.64240503 17.87914506 23.3603247 19.6328125 38.22265625 C20.68395525 56.88044008 14.02999355 73.38988116 1.765625 87.34765625 C-8.01074028 96.74639369 -22.27039818 102.25488301 -35.6796875 102.59765625 C-50.97010304 102.21347495 -63.89660593 97.72734575 -75.1796875 87.16015625 C-88.72779851 72.80113641 -92.96440089 57.00390087 -92.64453125 37.703125 C-91.80118036 24.07885084 -84.5198286 10.29728316 -74.3671875 1.22265625 C-51.74558551 -15.54991288 -22.96511298 -17.24278285 0 0 Z M-72.8671875 17.1875 C-79.940609 26.78451198 -81.3606879 37.58628279 -80.3671875 49.22265625 C-77.81262344 62.00999111 -72.09243438 72.61066492 -61.3671875 80.22265625 C-50.04027866 86.83722515 -39.64593999 88.88415323 -26.515625 86.76171875 C-14.79170696 83.59812182 -4.59428532 76.09242467 1.5 65.55859375 C7.05716439 54.09933753 8.7670074 41.2794356 5.5078125 28.84765625 C0.97860003 16.3503848 -6.94532188 7.90533215 -18.91015625 2.23046875 C-39.20492068 -6.09393383 -59.19938948 0.76715932 -72.8671875 17.1875 Z " transform="translate(691.3671875,566.77734375)" style="fill: #EDF4F9;"/><path d="M0 0 C8.42149072 4.26404593 12.26635425 11.04186335 16.15234375 19.34375 C18.24184675 29.58231468 16.51369045 38.30679366 11.02734375 47.09375 C5.45596009 54.91275787 -0.76538802 59.26881185 -10.22265625 61.40625 C-19.47588375 62.52122223 -26.36189565 61.47770845 -34.22265625 56.40625 C-34.22265625 55.74625 -34.22265625 55.08625 -34.22265625 54.40625 C-35.54265625 54.07625 -36.86265625 53.74625 -38.22265625 53.40625 C-39.78515625 51.03125 -39.78515625 51.03125 -41.22265625 48.40625 C-42.21265625 47.41625 -43.20265625 46.42625 -44.22265625 45.40625 C-48.55343283 37.22589425 -48.53522831 27.35970184 -46.56640625 18.4296875 C-43.17843073 8.99592808 -35.90666208 1.61230704 -26.91796875 -2.69921875 C-17.85845541 -5.7059268 -8.50284446 -3.71033213 0 0 Z " transform="translate(474.22265625,578.59375)" style="fill: #071A27;"/><path d="M0 0 C5 5.47619048 5 5.47619048 5 8 C5.66 8 6.32 8 7 8 C8.41170765 9.59675178 9.75399468 11.25513602 11.0625 12.9375 C14.7584397 17.56484023 18.64089139 21.75497134 22.87890625 25.8828125 C25.47470156 28.47382734 27.84108051 31.22084393 30.2265625 34.00390625 C33.32528789 37.49167866 36.66344637 40.74144373 40 44 C35.1459607 50.15634252 30.84063808 54.03984048 23 56 C13.74523033 56.7621575 5.55659542 56.90400665 -2 51 C-9.87094727 43.51233365 -13.90918421 34.31504286 -14.625 23.5 C-14.29940699 15.46482956 -10.24725295 8.00451355 -4.75 2.25 C-2 0 -2 0 0 0 Z " transform="translate(328,584)" style="fill: #32B8FA;"/><path d="M0 0 C2.97 0 5.94 0 9 0 C9.00146656 0.7113828 9.00293312 1.4227656 9.00444412 2.15570545 C9.04156805 19.50102525 9.10065645 36.84611219 9.18390274 54.19126606 C9.22363646 62.57941807 9.25605763 70.96747704 9.27099609 79.35571289 C9.28404211 86.67071981 9.31108158 93.98552152 9.35461307 101.30041283 C9.37716196 105.17018227 9.39291466 109.03969922 9.39188385 112.90954018 C9.39425578 117.23989061 9.4213577 121.56944535 9.45410156 125.8996582 C9.4490712 127.16921356 9.44404083 128.43876892 9.43885803 129.74679565 C9.55617251 139.80718074 11.50959259 149.02607089 18 157 C21.44146005 160.27220792 25.14698224 163.22582721 29 166 C20.17865999 164.72845549 12.33950107 158.48219948 6.85203075 151.6759367 C0.5308493 142.54267506 -0.72664734 132.8758984 -0.56762695 122.03979492 C-0.56835709 120.71141098 -0.56908722 119.38302704 -0.56983948 118.01438904 C-0.56638518 113.6693183 -0.52762246 109.32534981 -0.48828125 104.98046875 C-0.47614748 101.94990136 -0.47158673 98.91933495 -0.46684265 95.88874817 C-0.45137991 88.75621888 -0.41045568 81.62407853 -0.3600952 74.49171954 C-0.30396405 66.36345381 -0.27665586 58.23516826 -0.25161803 50.10675657 C-0.19953175 33.40429507 -0.11173903 16.70217335 0 0 Z " transform="translate(221,520)" style="fill: #92A4AE;"/><path d="M0 0 C0.495 1.485 0.495 1.485 1 3 C1.66 3 2.32 3 3 3 C7.14797798 9.26640959 8.67425259 13.47084606 8 21 C7.67 22.32 7.34 23.64 7 25 C6.34 25 5.68 25 5 25 C5 25.99 5 26.98 5 28 C4.34 28 3.68 28 3 28 C3 28.99 3 29.98 3 31 C2.34 31 1.68 31 1 31 C1 31.66 1 32.32 1 33 C-6.14981108 37.09025611 -13.77669664 37.32074957 -21.734375 35.30859375 C-26.80819526 33.27395778 -29.88253539 30.57877614 -33 26 C-34.83235757 20.5029273 -35.1772627 14.03352755 -33.05859375 8.57421875 C-29.90996805 3.33308944 -26.46530072 0.0354263 -20.875 -2.3125 C-14.03225491 -3.52653542 -6.35156439 -3.00863576 0 0 Z " transform="translate(555,587)" style="fill: #061B29;"/><path d="M0 0 C3.54188374 -0.30754417 5.43629462 -0.36923151 8.45703125 1.609375 C9.62298828 2.66898438 9.62298828 2.66898438 10.8125 3.75 C21.21055221 12.59774021 31.69136707 13.74089297 45 13 C53.77912071 11.58090925 60.72632616 6.84911589 68 2 C68 2.66 68 3.32 68 4 C72.95 4 77.9 4 83 4 C76.78784009 16.96450763 64.14323637 23.27203736 51.0625 27.9375 C36.48325983 31.78546339 21.01492706 28.49346998 8.16015625 21.16796875 C1.5789301 16.6530361 -4.41231113 11.17537774 -8 4 C-6.35 4 -4.7 4 -3 4 C-3 3.34 -3 2.68 -3 2 C-2.01 2 -1.02 2 0 2 C0 1.34 0 0.68 0 0 Z " transform="translate(617,640)" style="fill: #B4C9D9;"/><path d="M0 0 C0.495 0.99 0.495 0.99 1 2 C4.0399648 2.69337792 4.0399648 2.69337792 7.5625 3.125 C9.35880859 3.37636719 9.35880859 3.37636719 11.19140625 3.6328125 C12.11824219 3.75398437 13.04507813 3.87515625 14 4 C8.68292808 14.63414383 -0.63292685 20.85828352 -11.42578125 25.4609375 C-26.2899962 30.29566485 -41.14674166 29.19127351 -55.15234375 22.4921875 C-63.37241051 18.03490035 -70.75736841 12.48526319 -75 4 C-69.85297169 0.56864779 -63.98187293 1.13902151 -58 2 C-55.14142344 3.49525543 -52.8513318 5.23150015 -50.3359375 7.2421875 C-42.2835807 13.30165332 -31.60499236 12.83111045 -22 12 C-13.18291636 10.28754907 -6.33809663 6.33809663 0 0 Z " transform="translate(374,641)" style="fill: #B3C7D5;"/><path d="M0 0 C6.03079808 4.38603497 11.70822529 9.54779496 14.3203125 16.6875 C14.3203125 17.3475 14.3203125 18.0075 14.3203125 18.6875 C12.88365234 18.70937378 12.88365234 18.70937378 11.41796875 18.73168945 C7.8318675 18.79309232 4.2463144 18.86730944 0.66064453 18.94995117 C-0.88515393 18.98300862 -2.43106754 19.01109903 -3.97705078 19.03393555 C-17.14574414 18.88421998 -17.14574414 18.88421998 -28.74609375 24.30078125 C-29.23980469 24.86152344 -29.73351562 25.42226563 -30.2421875 26 C-33.54770881 29.54702058 -36.83558464 32.71376005 -40.6796875 35.6875 C-41.9996875 35.6875 -43.3196875 35.6875 -44.6796875 35.6875 C-47.20346201 30.63995099 -46.25468073 23.28046311 -45.06640625 17.921875 C-42.23898865 10.00012349 -36.96911921 3.09787689 -29.4296875 -0.8125 C-19.89333937 -4.62703925 -9.07558801 -5.27162868 0 0 Z " transform="translate(669.6796875,582.3125)" style="fill: #34B8F9;"/><path d="M0 0 C5.0134573 2.01690811 8.16694855 4.9840836 11.5625 9.125 C13.78947186 15.12814153 14.44984701 21.33378851 12.046875 27.41015625 C9.03874865 32.5030284 5.53181169 35.79163533 0.25 38.3125 C-6.43177227 39.72595183 -11.22924771 38.81363359 -16.875 35.1875 C-21.93893534 31.6572655 -24.47043423 28.00060418 -26 22 C-26.6467159 16.17955687 -25.3306604 11.76911953 -22 7 C-15.1692774 -0.02849408 -9.62140375 -1.14750687 0 0 Z " transform="translate(465,588)" style="fill: #F1F8F9;"/><path d="M0 0 C8.84882312 -0.02312588 17.69763923 -0.04091634 26.54648495 -0.05181217 C30.65494285 -0.05704046 34.76338014 -0.06413713 38.87182617 -0.07543945 C42.83346828 -0.08627025 46.79509052 -0.09227724 50.75674629 -0.09487724 C53.01084677 -0.09763606 55.26493921 -0.10544766 57.51902771 -0.11329651 C58.88036331 -0.11337204 60.24169891 -0.11344757 61.64428711 -0.11352539 C62.85007919 -0.115746 64.05587128 -0.11796661 65.29820251 -0.12025452 C68 0 68 0 69 1 C69.38270052 5.9751068 69.17088582 9.06372795 66 13 C61.70357226 16.08461479 57.67634475 17.11566405 52.43432617 17.16113281 C51.53626755 17.17074036 50.63820892 17.1803479 49.7129364 17.19024658 C48.26755241 17.1966214 48.26755241 17.1966214 46.79296875 17.203125 C45.79421219 17.20882507 44.79545563 17.21452515 43.76643372 17.22039795 C41.65411434 17.22983729 39.54178031 17.23637769 37.42944336 17.24023438 C34.20986021 17.24993264 30.99091758 17.2809635 27.77148438 17.3125 C25.71614961 17.31903126 23.6608103 17.32428125 21.60546875 17.328125 C20.64795212 17.3404718 19.69043549 17.3528186 18.7039032 17.36553955 C12.04726082 17.34352643 7.25471439 16.08635538 1.5625 12.4375 C-0.28562251 9.55442888 -0.16556307 8.21855058 -0.09765625 4.84765625 C-0.08355713 3.94152588 -0.06945801 3.03539551 -0.05493164 2.10180664 C-0.0368042 1.40821045 -0.01867676 0.71461426 0 0 Z " transform="translate(688,725)" style="fill: #0568AB;"/><path d="M0 0 C21.45 0 42.9 0 65 0 C65 9.5 65 9.5 62 13 C53.99902342 17.76653924 45.8573078 17.18619026 36.86669922 17.18530273 C34.40444252 17.18747404 31.94264535 17.20560119 29.48046875 17.22460938 C9.25362503 17.29997632 9.25362503 17.29997632 2.375 12.4375 C0 9 0 9 0 0 Z " transform="translate(262,725)" style="fill: #056BB4;"/><path d="M0 0 C-1.20739638 9.41755445 -5.52938349 15.57060828 -12.87890625 21.55859375 C-19.86803329 26.30811102 -27.74594313 26.95562236 -36 26 C-42.15249146 24.47361853 -46.68868799 22.75042712 -51 18 C-40.04871538 -3.90256924 -21.42016261 -1.65063494 0 0 Z " transform="translate(684,614)" style="fill: #10A0F4;"/><path d="M0 0 C1.32 0.33 2.64 0.66 4 1 C4.33 1.66 4.66 2.32 5 3 C12.60452338 6.24920544 22.17194413 6.34892585 30.08984375 4.13671875 C31.71085036 3.46637767 33.31498328 2.7515447 34.88671875 1.97265625 C37.40006709 0.81586561 39.21527106 0.10313811 42 0 C44.45703125 1.87109375 44.45703125 1.87109375 46.8125 4.4375 C47.60269531 5.28183594 48.39289063 6.12617187 49.20703125 6.99609375 C49.79871094 7.65738281 50.39039063 8.31867187 51 9 C46.1459607 15.15634252 41.84063808 19.03984048 34 21 C24.77095909 21.76003866 16.52296611 21.92598558 9 16 C4.06756365 11.07575707 0.75095176 7.06717612 0 0 Z " transform="translate(317,619)" style="fill: #0C9FF5;"/><path d="M0 0 C3.94007309 3.31324328 5.46336366 5.59268193 6.3125 10.6875 C5.51756435 15.8104186 3.3929282 17.6695718 -0.25 21.3125 C-3.72058344 23.04779172 -7.48365033 22.76902723 -11.25 22.3125 C-15.5998054 20.1375973 -18.51209405 17.91283928 -20.25 13.3125 C-20.25 7.98788892 -20.19019508 5.53221253 -16.9375 1.3125 C-11.72891999 -2.56365257 -5.70636025 -2.96291782 0 0 Z " transform="translate(466.25,596.6875)" style="fill: #40B0F8;"/><path d="M0 0 C9.16917334 -0.41889624 16.42434401 -0.05043733 24.1875 5.125 C29.77940609 10.84117067 34.14963441 16.74655931 34.125 24.9375 C34.12886719 26.21947266 34.12886719 26.21947266 34.1328125 27.52734375 C34 30 34 30 33 34 C29.04979191 32.02489596 27.50448446 30.57980169 24.6875 27.3125 C21.99322412 24.23899708 19.29804961 21.23206655 16.375 18.375 C12.70314249 14.76250278 9.34691342 10.91237368 6 7 C5.12214844 5.9790625 5.12214844 5.9790625 4.2265625 4.9375 C2.81499916 3.29398963 1.40709838 1.64733469 0 0 Z " transform="translate(339,580)" style="fill: #34B1F3;"/><path d="M0 0 C0.78310547 0.73089844 0.78310547 0.73089844 1.58203125 1.4765625 C-0.30815429 4.83770955 -2.19698199 7.31432602 -5.41796875 9.4765625 C-9.37061723 9.66130585 -12.89824233 9.24036509 -16.796875 8.5859375 C-21.32094869 8.44928802 -22.97440321 9.64097814 -26.41796875 12.4765625 C-30.17208213 16.49882684 -32.82295077 20.67097366 -35.41796875 25.4765625 C-36.73796875 25.4765625 -38.05796875 25.4765625 -39.41796875 25.4765625 C-40.3417336 18.39436531 -37.53882419 13.95053466 -33.41796875 8.4765625 C-25.93084583 0.07905566 -10.66114774 -6.71703977 0 0 Z " transform="translate(664.41796875,580.5234375)" style="fill: #ECF9FB;"/><path d="M0 0 C3.5386994 1.65139305 4.81070153 2.71605229 7 6 C7.56270114 10.34083735 7.51859598 12.27710864 4.9375 15.875 C1.42309156 18.41733802 -0.67500571 19 -5 19 C-8.57387602 17.41161066 -9.81089572 16.28365642 -12 13 C-12.52673418 8.33464011 -12.63174757 5.91890556 -9.9375 2 C-6.25125882 -0.50978123 -4.38261849 -0.62608836 0 0 Z " transform="translate(544,595)" style="fill: #1BB4F4;"/><path d="M0 0 C2.97922593 -0.02683987 5.95821295 -0.04676037 8.9375 -0.0625 C9.78763672 -0.07087891 10.63777344 -0.07925781 11.51367188 -0.08789062 C13.67596257 -0.09650533 15.83832511 -0.05231546 18 0 C19 1 19 1 19.25 4.25 C18.98304677 8.25429845 18.48969235 9.90934743 16 13 C10.66381645 16.83110614 6.66291106 17 0 17 C0 11.39 0 5.78 0 0 Z " transform="translate(738,725)" style="fill: #0664A7;"/><path d="M0 0 C4.61937034 0.81041585 6.51865245 2.06147116 9.5625 5.625 C10.26067357 10.09331086 10.12801988 12.56182263 8 16.5625 C4.79005042 19.27861118 2.74205847 19.625 -1.4375 19.625 C-4.63811707 18.31565665 -6.14148212 16.99008872 -8.3125 14.3125 C-9.76995458 10.83080295 -9.62845575 9.19786725 -8.4375 5.625 C-5.80443058 2.06261196 -4.38830836 0.79787425 0 0 Z " transform="translate(753.4375,609.375)" style="fill: #F4F7F7;"/><path d="M0 0 C6.27 0 12.54 0 19 0 C19 9.5 19 9.5 16 13 C10.15999616 16.47915122 5.89497719 17 -1 17 C-0.67 11.39 -0.34 5.78 0 0 Z " transform="translate(308,725)" style="fill: #0663A5;"/><path d="M0 0 C10.23 0 20.46 0 31 0 C31 2.97 31 5.94 31 9 C20.77 9 10.54 9 0 9 C0 6.03 0 3.06 0 0 Z " transform="translate(707,733)" style="fill: #34CCFB;"/><path d="M0 0 C2.69990662 1.79993774 4.5418865 3.083773 6 6 C6.48602588 10.29322859 6.46241608 12.32082639 4 15.9375 C0.0197216 18.6739414 -2.25731714 18.66693978 -7 18 C-10.80103497 15.97817289 -11.76161531 14.71515406 -13.125 10.625 C-12.96124574 5.87612638 -11.3385334 4.26089309 -8 1 C-5.14675563 -0.42662219 -3.16545451 -0.31033868 0 0 Z " transform="translate(757,584)" style="fill: #F6F8F9;"/><path d="M0 0 C9.9 0 19.8 0 30 0 C30 8 30 8 29 9 C26.85441173 9.08775605 24.70595579 9.10695219 22.55859375 9.09765625 C21.25341797 9.09443359 19.94824219 9.09121094 18.60351562 9.08789062 C17.22873047 9.07951172 15.85394531 9.07113281 14.4375 9.0625 C13.05884766 9.05798828 11.68019531 9.05347656 10.25976562 9.04882812 C6.8398013 9.03699434 3.41992156 9.0205088 0 9 C0 6.03 0 3.06 0 0 Z " transform="translate(278,733)" style="fill: #33C2F6;"/><path d="M0 0 C10.23 0 20.46 0 31 0 C31 2.64 31 5.28 31 8 C20.77 8 10.54 8 0 8 C0 5.36 0 2.72 0 0 Z " transform="translate(707,725)" style="fill: #0F94E9;"/><path d="M0 0 C9.57 0 19.14 0 29 0 C29 2.64 29 5.28 29 8 C19.43 8 9.86 8 0 8 C0 5.36 0 2.72 0 0 Z " transform="translate(279,725)" style="fill: #108DE7;"/><path d="M0 0 C1.20446777 0.01047363 2.40893555 0.02094727 3.64990234 0.03173828 C5.60283203 0.04140625 5.60283203 0.04140625 7.59521484 0.05126953 C9.64482422 0.07640625 9.64482422 0.07640625 11.73583984 0.10205078 C13.10998047 0.11107422 14.48412109 0.12009766 15.89990234 0.12939453 C19.3037201 0.15303215 22.70719491 0.18598211 26.11083984 0.22705078 C20.19605443 6.50061867 13.54563359 8.99648578 4.9440918 9.3046875 C2.54050362 9.32510543 0.13937341 9.3144678 -2.26416016 9.28955078 C-3.51132812 9.2827832 -3.51132812 9.2827832 -4.78369141 9.27587891 C-6.81887913 9.26418243 -8.85402938 9.24625013 -10.88916016 9.22705078 C-3.24640939 0.25512597 -3.24640939 0.25512597 0 0 Z " transform="translate(652.88916015625,613.77294921875)" style="fill: #31B8FA;"/><path d="M0 0 C5 5.47619048 5 5.47619048 5 8 C5.66 8 6.32 8 7 8 C7.99 9.485 7.99 9.485 9 11 C8.67 12.32 8.34 13.64 8 15 C5.3125 15.75 5.3125 15.75 2 16 C-0.875 14.0625 -0.875 14.0625 -3 12 C-5.24007711 15.28544643 -7.21739173 18.43478346 -9 22 C-10.32 21.67 -11.64 21.34 -13 21 C-13.77935797 14.9210078 -11.3356542 10.86052469 -8 6 C-2.98159509 0 -2.98159509 0 0 0 Z " transform="translate(328,584)" style="fill: #EBF8FB;"/><path d="M0 0 C4 0.25 4 0.25 6 2.25 C6.27450545 5.59896654 6.08628804 8.88476663 6 12.25 C2.04 12.25 -1.92 12.25 -6 12.25 C-6.1953125 4.6328125 -6.1953125 4.6328125 -6 2.25 C-4 0.25 -4 0.25 0 0 Z " transform="translate(227,507.75)" style="fill: #EAF1F4;"/><path d="M0 0 C5.94 0 11.88 0 18 0 C18 2.64 18 5.28 18 8 C12.15385092 8.30769206 8.19349968 7.74949983 3 5 C0 2 0 2 0 0 Z " transform="translate(689,734)" style="fill: #1889CB;"/><path d="M0 0 C5.94 0 11.88 0 18 0 C15.88486583 4.23026833 15.04951675 4.97524163 11 7 C7.1273408 7.9681648 3.96388638 8.07622858 0 8 C0 5.36 0 2.72 0 0 Z " transform="translate(738,734)" style="fill: #1688CD;"/><path d="M0 0 C5.94 0 11.88 0 18 0 C15.71041793 4.57916414 14.56179964 5.08404415 10 7 C6.1273408 7.9681648 2.96388638 8.07622858 -1 8 C-0.67 5.36 -0.34 2.72 0 0 Z " transform="translate(308,734)" style="fill: #1488C9;"/><path d="M0 0 C0.33 0.66 0.66 1.32 1 2 C0.09808111 4.0155422 -0.89653955 5.990125 -1.9375 7.9375 C-4.35643917 12.2396809 -4.35643917 12.2396809 -5 17 C-2.64644661 16.11785113 -2.64644661 16.11785113 -2 13 C-0.68 12.67 0.64 12.34 2 12 C2.66 12.66 3.32 13.32 4 14 C2.59466816 15.34527493 1.17527548 16.6758731 -0.25 18 C-1.03890625 18.7425 -1.8278125 19.485 -2.640625 20.25 C-5 22 -5 22 -9 22 C-10.44207941 19.11584117 -10.09394887 16.58278472 -10.0625 13.375 C-10.05347656 12.18648437 -10.04445313 10.99796875 -10.03515625 9.7734375 C-10.02355469 8.85820313 -10.01195312 7.94296875 -10 7 C-9.67 7.99 -9.34 8.98 -9 10 C-4.98952626 9.45526678 -4.98952626 9.45526678 -3.515625 6.93359375 C-2.88914062 5.69802734 -2.88914062 5.69802734 -2.25 4.4375 C-1.82203125 3.61121094 -1.3940625 2.78492188 -0.953125 1.93359375 C-0.48132813 0.97646484 -0.48132813 0.97646484 0 0 Z " transform="translate(634,596)" style="fill: #40B2E8;"/><path d="M0 0 C6.27 0 12.54 0 19 0 C19 2.31 19 4.62 19 7 C9.76 7 0.52 7 -9 7 C-9 6.67 -9 6.34 -9 6 C-3.39 6 2.22 6 8 6 C8 4.35 8 2.7 8 1 C5.36 1 2.72 1 0 1 C0 0.67 0 0.34 0 0 Z " transform="translate(288,734)" style="fill: #3CCEFE;"/><path d="M0 0 C4.95 0 9.9 0 15 0 C15 2.64 15 5.28 15 8 C8.18461113 8.71740936 8.18461113 8.71740936 4.91015625 6.734375 C3 5.125 3 5.125 0 2 C0 1.34 0 0.68 0 0 Z " transform="translate(263,733)" style="fill: #0B8CD3;"/><path d="M0 0 C2.19946289 0.00966797 2.19946289 0.00966797 4.44335938 0.01953125 C5.97396076 0.03623765 7.50455972 0.05316749 9.03515625 0.0703125 C10.59309324 0.08035639 12.15103646 0.08947976 13.70898438 0.09765625 C17.50536761 0.12116327 21.3014316 0.15402502 25.09765625 0.1953125 C25.09765625 0.8553125 25.09765625 1.5153125 25.09765625 2.1953125 C24.06358643 2.20989502 23.0295166 2.22447754 21.96411133 2.23950195 C18.11526392 2.30067712 14.26711808 2.37485139 10.41870117 2.45776367 C8.75538517 2.49094905 7.09195829 2.51900084 5.4284668 2.54174805 C3.03256126 2.57541249 0.6376659 2.6277319 -1.7578125 2.68359375 C-3.19793701 2.70977783 -4.63806152 2.73596191 -6.12182617 2.76293945 C-9.97140644 3.20321111 -11.71916076 4.1415655 -14.90234375 6.1953125 C-15.89234375 5.8653125 -16.88234375 5.5353125 -17.90234375 5.1953125 C-12.7376868 0.03065555 -7.05006612 -0.05486433 0 0 Z " transform="translate(658.90234375,600.8046875)" style="fill: #002D4E;"/><path d="M0 0 C0.268125 0.56847656 0.53625 1.13695312 0.8125 1.72265625 C4.74371071 9.46869315 10.13900091 13.89627239 17 19 C7.26584861 17.61191704 -0.24755663 10.55867132 -6 3 C-2.25 0 -2.25 0 0 0 Z " transform="translate(233,667)" style="fill: #798B98;"/><path d="M0 0 C11.55 0 23.1 0 35 0 C35 2.97 35 5.94 35 9 C34.34 9 33.68 9 33 9 C33.20625 9.94875 33.4125 10.8975 33.625 11.875 C33.74875 12.90625 33.8725 13.9375 34 15 C31.3144406 17.6855594 28.62378672 18.06049974 25 19 C25.72316406 17.93072266 25.72316406 17.93072266 26.4609375 16.83984375 C27.09257813 15.88207031 27.72421875 14.92429687 28.375 13.9375 C29.00148438 12.99777344 29.62796875 12.05804687 30.2734375 11.08984375 C32.42980567 7.50801691 32.42980567 7.50801691 34 1 C22.78 1 11.56 1 0 1 C0 0.67 0 0.34 0 0 Z " transform="translate(650,613)" style="fill: #043659;"/></svg>