<svg width="100" height="100" viewBox="0 0 100 100" xmlns="http://www.w3.org/2000/svg">
  <!-- Trophy icon -->
  <g fill="white" stroke="white" stroke-width="2.5" stroke-linecap="round" stroke-linejoin="round">
    <!-- Trophy cup -->
    <path d="M 35 30 L 35 45 Q 35 55 50 55 Q 65 55 65 45 L 65 30 Z" fill="white"/>
    
    <!-- Trophy handles -->
    <path d="M 35 35 L 25 35 Q 20 35 20 40 Q 20 45 25 45 L 35 45" fill="none"/>
    <path d="M 65 35 L 75 35 Q 80 35 80 40 Q 80 45 75 45 L 65 45" fill="none"/>
    
    <!-- Trophy stem -->
    <rect x="45" y="55" width="10" height="10" fill="white"/>
    
    <!-- Trophy base -->
    <rect x="35" y="65" width="30" height="5" rx="1" fill="white"/>
    
    <!-- Star on top -->
    <path d="M 50 20 L 52 26 L 58 26 L 53 30 L 55 36 L 50 32 L 45 36 L 47 30 L 42 26 L 48 26 Z" fill="white"/>
  </g>
</svg>
